<svg xmlns="http://www.w3.org/2000/svg" xmlns:xlink="http://www.w3.org/1999/xlink" viewBox="0 0 599.75 607.21"><defs><style>.cls-1,.cls-18,.cls-19{fill:none;}.cls-1{clip-rule:evenodd;}.cls-2{fill:#cee8ff;}.cls-3{fill:#001868;}.cls-17,.cls-4{fill:#fff;}.cls-5{fill:#39cba0;}.cls-6{fill:#caddff;}.cls-7{fill:#beb2ff;}.cls-8{clip-path:url(#clip-path);}.cls-9{clip-path:url(#clip-path-2);}.cls-10{clip-path:url(#clip-path-3);}.cls-11{clip-path:url(#clip-path-4);}.cls-12{clip-path:url(#clip-path-5);}.cls-13{clip-path:url(#clip-path-6);}.cls-14{clip-path:url(#clip-path-7);}.cls-15{clip-path:url(#clip-path-8);}.cls-16{clip-path:url(#clip-path-9);}.cls-17,.cls-18{stroke:#001868;stroke-linecap:round;stroke-linejoin:round;stroke-width:2px;}.cls-19{stroke:#39cba0;stroke-miterlimit:10;stroke-width:3px;}</style><clipPath id="clip-path"><path class="cls-1" d="M701.05,727.08a3.65,3.65,0,0,1,3.69,3.69,3.65,3.65,0,0,1,3.69-3.69,3.64,3.64,0,0,1-3.69-3.68A3.64,3.64,0,0,1,701.05,727.08Z"/></clipPath><clipPath id="clip-path-2"><path class="cls-1" d="M680.48,742.52s0,.08.09,0l2.16-1.33a.16.16,0,0,0,0-.06.19.19,0,0,0,0-.08l-2.16-1.32s-.08,0-.09,0Z"/></clipPath><clipPath id="clip-path-3"><path class="cls-1" d="M661,712.82a1,1,0,1,0,1-1A1,1,0,0,0,661,712.82Z"/></clipPath><clipPath id="clip-path-4"><path class="cls-1" d="M619.71,745.17a1.3,1.3,0,1,0,1.3-1.29A1.29,1.29,0,0,0,619.71,745.17Z"/></clipPath><clipPath id="clip-path-5"><path class="cls-1" d="M667.36,719.4a1.3,1.3,0,1,0,1.3-1.29A1.3,1.3,0,0,0,667.36,719.4Z"/></clipPath><clipPath id="clip-path-6"><path class="cls-1" d="M725.22,765.41a3.65,3.65,0,0,1,3.69,3.69,3.69,3.69,0,1,0,0-7.37A3.64,3.64,0,0,1,725.22,765.41Z"/></clipPath><clipPath id="clip-path-7"><path class="cls-1" d="M712.76,722.68a1,1,0,1,0,1-1A1,1,0,0,0,712.76,722.68Z"/></clipPath><clipPath id="clip-path-8"><path class="cls-1" d="M732.81,758.09a3.7,3.7,0,0,0,7.39,0,3.7,3.7,0,0,0-7.39,0Z"/></clipPath><clipPath id="clip-path-9"><path class="cls-1" d="M624.81,761.6a3.64,3.64,0,0,1,3.69,3.68,3.69,3.69,0,1,0,0-7.37A3.65,3.65,0,0,1,624.81,761.6Z"/></clipPath></defs><g id="Illustration"><g id="About_us" data-name="About us"><path class="cls-2" d="M439.83,534.43C582.3,444.36,584.22,282.46,584.17,275,583.65,191,545.22,73.4,447.38,31.83c-11.3-4.8-73.74-27.34-129.55-5.71-65.14,25.25-108.55,79.69-119.58,127.24-1.56,6.74-2.67,13.71-8.51,21.21-22.58,29-45.19,8.25-82.76,19.64C43,213.62-4.93,326.76,21.66,421.87c32,114.52,157.4,150.64,177.06,155.93C319.74,610.37,419.35,547.39,439.83,534.43Z"/><path class="cls-3" d="M460.72,476.51h-335l2.15-367.86,327.9,0a4.83,4.83,0,0,1,4.83,4.83Z"/><rect class="cls-4" x="120.22" y="109.68" width="335.04" height="365.22" rx="7.2"/><path class="cls-3" d="M450.31,475.94H125.18a6,6,0,0,1-6-6V114.64a6,6,0,0,1,6-6H450.31a6,6,0,0,1,6,6V470A6,6,0,0,1,450.31,475.94ZM125.18,110.72a3.93,3.93,0,0,0-3.92,3.92V470a3.93,3.93,0,0,0,3.92,3.93H450.31a3.93,3.93,0,0,0,3.92-3.93V114.64a3.93,3.93,0,0,0-3.92-3.92Z"/><rect class="cls-2" x="159.4" y="149.43" width="253.54" height="7.55" rx="3.77"/><path class="cls-2" d="M332.2,184.9h-169a3.77,3.77,0,0,1-3.77-3.78h0a3.77,3.77,0,0,1,3.77-3.77h169a3.77,3.77,0,0,1,3.77,3.77h0A3.77,3.77,0,0,1,332.2,184.9Z"/><path class="cls-2" d="M409.17,212.82h-246A3.77,3.77,0,0,1,159.4,209h0a3.77,3.77,0,0,1,3.77-3.77h246a3.77,3.77,0,0,1,3.77,3.77h0A3.77,3.77,0,0,1,409.17,212.82Z"/><path class="cls-2" d="M332.2,240.74h-169A3.77,3.77,0,0,1,159.4,237h0a3.77,3.77,0,0,1,3.77-3.77h169A3.77,3.77,0,0,1,336,237h0A3.77,3.77,0,0,1,332.2,240.74Z"/><path class="cls-2" d="M409.17,268.66h-246a3.77,3.77,0,0,1-3.77-3.78h0a3.77,3.77,0,0,1,3.77-3.77h246a3.77,3.77,0,0,1,3.77,3.77h0A3.77,3.77,0,0,1,409.17,268.66Z"/><path class="cls-2" d="M332.2,296.58h-169a3.77,3.77,0,0,1-3.77-3.78h0a3.77,3.77,0,0,1,3.77-3.77h169A3.77,3.77,0,0,1,336,292.8h0A3.77,3.77,0,0,1,332.2,296.58Z"/><rect class="cls-2" x="159.4" y="316.95" width="253.54" height="7.55" rx="3.77"/><rect class="cls-5" x="229.66" y="362.14" width="124.76" height="28.17" rx="6.28"/><path class="cls-4" d="M326.88,171.39a3.68,3.68,0,0,1,.92-2.51c1.92-2.14,6.2-6.78,8.23-7.66,2.66-1.16,13-9.13,15.61-8.78s.34,6-2,7.85-6.7,3.82-6.12,5.21,9.36.92,11,3.46-4.74,17.34-11.91,19c-5,1.13-10.61-1.14-13.48-2.59a3.64,3.64,0,0,1-2-3.17Z"/><path class="cls-3" d="M339.75,189.26a25.93,25.93,0,0,1-11.08-3,4.68,4.68,0,0,1-2.57-4.07l-.25-10.76A4.64,4.64,0,0,1,327,168.2c2.79-3.13,6.54-7,8.59-7.93a47.77,47.77,0,0,0,4.78-3c5.59-3.72,9.4-6.14,11.37-5.88a2.28,2.28,0,0,1,2,1.71c.63,2.27-1.39,6.35-3.42,8a29.75,29.75,0,0,1-2.71,1.85,18.43,18.43,0,0,0-2.93,2.1,23.24,23.24,0,0,0,3.08.57c3,.44,6.46.94,7.64,2.79s-.22,5.53-1.09,7.65c-2.16,5.23-6.45,11.73-11.46,12.87A14.14,14.14,0,0,1,339.75,189.26Zm11.65-35.81c-1.5,0-6.92,3.61-9.86,5.56a46.3,46.3,0,0,1-5.09,3.16c-1.29.56-4.24,3.33-7.87,7.4a2.56,2.56,0,0,0-.66,1.8l.25,10.77a2.6,2.6,0,0,0,1.44,2.27c2.75,1.39,8.07,3.57,12.78,2.5,3.92-.89,7.92-6.61,10-11.56,1.47-3.55,1.5-5.49,1.29-5.83-.67-1.05-4-1.54-6.2-1.85-2.74-.4-4.39-.64-4.87-1.78-.73-1.75,1.42-3.11,3.91-4.69.9-.57,1.83-1.16,2.53-1.71,1.52-1.22,3.07-4.53,2.72-5.81-.05-.18-.1-.2-.25-.22Z"/><path class="cls-5" d="M328.86,78.93c22.32,0,45.39,3.44,67.56,29.73H280.64s-7.08,34.48-1.08,40.77c8.36,8.78,35.69,15.85,45.47,15.83a3.89,3.89,0,0,1,3.9,3.89v15.43a3.88,3.88,0,0,1-3.53,3.88c-15.14,1.42-72.86,7.2-79.11-27-6.06-33.26-4.73-72.9,38.62-81.5,9.36-1.85,21.62-1.69,29.21-1.33C319,78.82,324,78.92,328.86,78.93Z"/><path class="cls-4" d="M330.94,102.61s-15,2.79-17.54,6c-1.82,2.26-4.77,9.32-2.31,14.71a8.24,8.24,0,0,0,12.61,2.86,17.64,17.64,0,0,0,5.9-9.31,9.33,9.33,0,0,1,5.24-6.07,7.88,7.88,0,0,1,2.08-.56,1.66,1.66,0,0,0,1.39-2.19A7.67,7.67,0,0,0,330.94,102.61Z"/><path class="cls-3" d="M318.47,129a9.3,9.3,0,0,1-2.28-.28,9,9,0,0,1-6-5c-2.63-5.75.3-13.12,2.45-15.78,2.74-3.4,16.58-6.06,18.15-6.35l.12,0H331a8.72,8.72,0,0,1,8.29,6.11,2.71,2.71,0,0,1-2.24,3.56,6.75,6.75,0,0,0-1.81.48,8.26,8.26,0,0,0-4.65,5.42,18.82,18.82,0,0,1-6.26,9.83A9.55,9.55,0,0,1,318.47,129ZM331,103.65c-5.65,1.06-15.1,3.5-16.79,5.59s-4.45,8.66-2.18,13.63a6.93,6.93,0,0,0,4.65,3.85,7.48,7.48,0,0,0,6.38-1.37,16.78,16.78,0,0,0,5.55-8.79,10.32,10.32,0,0,1,5.84-6.74,8.89,8.89,0,0,1,2.35-.62.64.64,0,0,0,.47-.3.63.63,0,0,0,.07-.54A6.66,6.66,0,0,0,331,103.65Z"/><path class="cls-4" d="M315.82,64.12s-2.62,8.94,3,14.87a7.88,7.88,0,0,1-.73,11.42c-2.81,2.34-7.33,4.29-14.6,4.52-5.62.17-9.47-1-12.11-2.75a7.92,7.92,0,0,1,.41-13.4c4.2-2.41,8.64-8.12,6.43-21.68Z"/><path class="cls-3" d="M302.45,96c-4.76,0-8.66-1-11.61-2.94a8.95,8.95,0,0,1,.47-15.16c3.87-2.22,8-7.6,5.92-20.62l-.3-1.8,20.14,8-.26.9c0,.13-2.36,8.46,2.79,13.87A8.72,8.72,0,0,1,322,84.84a9,9,0,0,1-3.2,6.36c-3.55,3-8.67,4.56-15.23,4.76Zm-2.92-37.26c1.64,12.91-2.95,18.52-7.2,21A6.9,6.9,0,0,0,292,91.32c2.81,1.86,6.67,2.72,11.51,2.58,6.08-.19,10.78-1.63,14-4.29a6.89,6.89,0,0,0,2.46-4.89,6.68,6.68,0,0,0-1.82-5c-5-5.21-4-12.41-3.5-15Z"/><path class="cls-3" d="M299.42,58.85s-6.43-.45-9.37-4.1a17.74,17.74,0,0,1-3.87-11.48c.24-3.39,1.53-12.88,9.84-15.46s15.53-.15,18.22-1.09a20.22,20.22,0,0,1,11.16-1c5.1.74,10.14,12.66-2.36,15.72-.36.09-.73.15-1.1.21L299.3,44.91Z"/><path class="cls-4" d="M299.65,48.68V43.5a2.57,2.57,0,0,1,2.57-2.57h19.69s4.8,26.24-9.37,27.18-15.93-11.72-15.93-11.72a4.24,4.24,0,0,1-4.34-2.81c-.9-2.42-.82-6.67,3.05-6.44A4.7,4.7,0,0,1,299,48.89.34.34,0,0,0,299.65,48.68Z"/><path class="cls-3" d="M311.06,69.19c-11.43,0-14.57-8.9-15.29-11.77a5.22,5.22,0,0,1-4.47-3.48c-.7-1.91-.85-4.6.41-6.3a4,4,0,0,1,3.67-1.53,6.53,6.53,0,0,1,3.24,1V43.5a3.6,3.6,0,0,1,3.6-3.6h20.55l.15.85c.13.68,3,16.9-2.92,24.52a9.85,9.85,0,0,1-7.4,3.87C312.08,69.17,311.56,69.19,311.06,69.19ZM297.49,55.26l.14,1c.07.48,1.82,11.68,14.84,10.82a7.71,7.71,0,0,0,5.9-3.07c4.65-6,3.16-18.65,2.66-22H302.22a1.53,1.53,0,0,0-1.53,1.54v5.18a1.38,1.38,0,0,1-2.48.83,3.72,3.72,0,0,0-2.95-1.34,2,2,0,0,0-1.89.7c-.75,1-.63,3-.13,4.35a3.17,3.17,0,0,0,3.25,2.15Z"/><rect class="cls-4" x="427.73" y="128.31" width="114.62" height="48.54" rx="7.92"/><path class="cls-3" d="M536.89,177.88H433.19a6.5,6.5,0,0,1-6.49-6.49V133.76a6.5,6.5,0,0,1,6.49-6.49h103.7a6.5,6.5,0,0,1,6.49,6.49v37.63A6.5,6.5,0,0,1,536.89,177.88Zm-103.7-48.54a4.42,4.42,0,0,0-4.42,4.42v37.63a4.43,4.43,0,0,0,4.42,4.43h103.7a4.44,4.44,0,0,0,4.43-4.43V133.76a4.43,4.43,0,0,0-4.43-4.42Z"/><path class="cls-3" d="M526.47,146.64H444.06a1,1,0,0,1,0-2.06h82.41a1,1,0,0,1,0,2.06Z"/><path class="cls-3" d="M526.47,157.65H509.24a1,1,0,0,1,0-2.06h17.23a1,1,0,0,1,0,2.06Z"/><path class="cls-3" d="M498.23,157.65H444.06a1,1,0,0,1,0-2.06h54.17a1,1,0,0,1,0,2.06Z"/><path class="cls-4" d="M497.18,525.38l6.54,7.75a20.46,20.46,0,0,1,4.79,11.73,8.24,8.24,0,0,1-2.29,6.32,5.53,5.53,0,0,1-8,0l-10.1-10.45-8-9.31Z"/><path class="cls-3" d="M502.23,553.91a6.5,6.5,0,0,1-4.73-2l-10.09-10.45L478.33,531l19.18-6.79,7,8.3a21.42,21.42,0,0,1,5,12.32A9.33,9.33,0,0,1,507,551.9a6.54,6.54,0,0,1-4.73,2Zm-20.36-22,7.06,8.16L499,550.47a4.5,4.5,0,0,0,3.24,1.37h0a4.47,4.47,0,0,0,3.24-1.38,7.21,7.21,0,0,0,2-5.53,19.34,19.34,0,0,0-4.54-11.14l-6.09-7.2Z"/><path class="cls-4" d="M479.22,540.1l-.25,14-7.78,3a5.93,5.93,0,0,1-6.87-1.94l-2.83-3.73,4.78-20.25Z"/><path class="cls-3" d="M469.06,558.52a7,7,0,0,1-5.57-2.75l-3.12-4.11,5.24-22.2,14.65,10.11-.27,15.2-8.42,3.28A6.89,6.89,0,0,1,469.06,558.52Zm-6.45-7.34,2.53,3.34a4.91,4.91,0,0,0,5.68,1.61l7.13-2.78.23-12.71-11.25-7.76Z"/><path class="cls-4" d="M462.75,545.84a7.57,7.57,0,0,0-4,3.69c-1.67,3-1.51,8.39-4.19,12.58S442.29,572.67,441.45,577s.17,7.38,3.86,9.73,21.13,5.53,27.67-7.88,7.71-17.44,6.2-29.68l-.11.09a4.39,4.39,0,0,1-6.44-.66,4.41,4.41,0,0,0-2.86-1.72Z"/><path class="cls-3" d="M455.38,589.9c-4.87,0-9-1.25-10.63-2.27-3.94-2.5-5.27-5.83-4.31-10.79.56-2.91,4.2-6.28,7.72-9.55a37.35,37.35,0,0,0,5.5-5.74,21.82,21.82,0,0,0,2.54-7.3,19.42,19.42,0,0,1,1.62-5.22,8.59,8.59,0,0,1,4.64-4.18l.22-.06,7.24,1.1a5.43,5.43,0,0,1,3.54,2.12,3.31,3.31,0,0,0,2.35,1.34,3.38,3.38,0,0,0,2.58-.83l1.57-1.4.25,2c1.54,12.56.18,16.95-6.31,30.26A17.86,17.86,0,0,1,462.21,589,25.22,25.22,0,0,1,455.38,589.9Zm7.47-43a6.93,6.93,0,0,0-3.22,3.13,18.8,18.8,0,0,0-1.42,4.66,23.51,23.51,0,0,1-2.81,8,38.48,38.48,0,0,1-5.83,6.14c-3.13,2.89-6.67,6.17-7.11,8.42-.79,4.11.2,6.62,3.4,8.66,2.18,1.38,9.32,2.94,15.79,1.12a15.9,15.9,0,0,0,10.4-8.58c6.07-12.46,7.47-16.63,6.3-27.46a5.45,5.45,0,0,1-6.55-1.72,3.38,3.38,0,0,0-2.19-1.32Z"/><path class="cls-3" d="M470.8,562.64a1,1,0,0,1-.77-1.73s3.22-3.66,2.75-10.13a1,1,0,0,1,1-1.1,1,1,0,0,1,1.1,1c.53,7.4-3.13,11.5-3.28,11.67A1,1,0,0,1,470.8,562.64Z"/><path class="cls-3" d="M458.22,584.76c-12.93,0-17.41-6.81-17.64-7.17a1,1,0,1,1,1.74-1.11c.09.14,6.88,10.15,28.21,4.42a1,1,0,0,1,.53,2A49.29,49.29,0,0,1,458.22,584.76Z"/><path class="cls-4" d="M493.13,548.34a13.05,13.05,0,0,1,10.16-2A1.48,1.48,0,0,0,505,545l1-9.06s13.08.84,14.76,3.52-2.15,16.67-2.32,22.21,2.65,19.71-4.89,22.9-17.78,3.86-20.13-.17,4.36-10.39,5.37-17.94c.53-4-4.34-13.08-6.09-16.2A1.48,1.48,0,0,1,493.13,548.34Z"/><path class="cls-3" d="M501.05,588.26c-3.82,0-7.11-.94-8.51-3.33-1.59-2.72,0-5.94,1.91-9.67,1.36-2.69,2.9-5.75,3.33-8.93.39-2.93-2.83-10-6-15.55a2.5,2.5,0,0,1,.73-3.28,14.1,14.1,0,0,1,10.94-2.21.41.41,0,0,0,.33-.07.48.48,0,0,0,.18-.32l1.1-10,1,.06c3.19.2,13.75,1.1,15.56,4,1.17,1.87.44,6.54-.89,14a73.55,73.55,0,0,0-1.26,8.78c0,1.07,0,2.51.15,4.17.4,6.7,1,16.83-5.68,19.65A35.37,35.37,0,0,1,501.05,588.26Zm-.52-41.18a11.76,11.76,0,0,0-6.8,2.1.44.44,0,0,0-.12.58c2.55,4.55,6.75,12.78,6.21,16.85-.47,3.52-2.09,6.74-3.52,9.58-1.61,3.19-3,5.95-2,7.7,1.85,3.17,11,3,18.82-.26,5.35-2.26,4.79-11.51,4.43-17.63-.11-1.71-.19-3.19-.16-4.36a76.11,76.11,0,0,1,1.29-9.07c.8-4.47,2-11.23,1.18-12.55s-7.17-2.51-13-3l-.88,8.07a2.57,2.57,0,0,1-1,1.76,2.5,2.5,0,0,1-1.94.44A14,14,0,0,0,500.53,547.08Zm-7.4,1.26h0Z"/><path class="cls-3" d="M500.72,584a46.74,46.74,0,0,1-7.62-.7,1,1,0,0,1,.33-2c8.16,1.35,13.81.65,16.8-2.08,3.35-3,3-8.32,2.7-12.16,0-.72-.09-1.39-.12-2,0-1-.11-2.05-.2-3.21a47.88,47.88,0,0,1-.22-6.45,75.29,75.29,0,0,1,3.54-17.85,1,1,0,0,1,2,.67,74.44,74.44,0,0,0-3.44,17.31,45.88,45.88,0,0,0,.22,6.17c.09,1.17.17,2.28.21,3.29,0,.58.07,1.23.11,1.92.3,4.27.72,10.12-3.36,13.84C509.21,582.86,505.61,584,500.72,584Z"/><path class="cls-4" d="M509.87,399.79s-15.43,108.49-24.49,125.6l-31.19-11.07,15.1-124.93Z"/><path class="cls-3" d="M485.88,526.66,453.07,515,468.4,388.1,511,399l-.13.91c-.63,4.44-15.56,108.87-24.59,125.94Zm-30.56-13,29.55,10.49C493.34,506,507.21,411,508.71,400.56l-38.54-9.88Z"/><path class="cls-4" d="M435.6,380.74a.51.51,0,0,0-.63.42c-.9,7.06-9.84,78.09-7.69,97.44,1.68,15.12,24.14,42.3,35.61,55.31a22.78,22.78,0,0,0,16.22,7.68l10.63.4-2.34-3a4,4,0,0,1,.53-5.53l9.25-8.06a1.36,1.36,0,0,0,.19-1.84l-25.16-33.3a41.19,41.19,0,0,1-8.21-27.7l2.94-41.62,2.35-31.53Z"/><path class="cls-3" d="M491.92,543.1l-12.85-.48a23.89,23.89,0,0,1-16.95-8c-12.67-14.37-34.18-40.74-35.87-55.88-2.15-19.4,6.68-89.72,7.69-97.68a1.54,1.54,0,0,1,1.91-1.29l34.53,8.87L468,421,465,462.61a40.12,40.12,0,0,0,8,27l25.15,33.3a2.4,2.4,0,0,1-.33,3.24l-9.25,8.05a3,3,0,0,0-.4,4.13Zm-56-161.21c-1.31,10.32-9.7,77.84-7.61,96.6,1.68,15.11,25.29,43.31,35.36,54.73a21.83,21.83,0,0,0,15.48,7.34l8.42.31-1-1.26a5.08,5.08,0,0,1,.68-7l9.24-8.06a.33.33,0,0,0,0-.44l-25.15-33.3A42.13,42.13,0,0,1,463,462.47l2.94-41.63,2.28-30.66Zm-.58-.15Z"/><path class="cls-3" d="M499.9,424.1l-.17,0a1,1,0,0,1-.86-1.18c2.24-14,3.79-24.07,3.8-24.17a1,1,0,0,1,2.05.32c0,.1-1.57,10.17-3.81,24.18A1,1,0,0,1,499.9,424.1Z"/><path class="cls-3" d="M485.42,507.5a.83.83,0,0,1-.22,0,1,1,0,0,1-.79-1.22c3.32-15.45,8.6-47,12.45-70.8a1,1,0,1,1,2,.33c-3.85,23.8-9.14,55.41-12.47,70.9A1,1,0,0,1,485.42,507.5Z"/><path class="cls-3" d="M478.45,238.5S467,225.06,477,214.57a17.57,17.57,0,0,1,14.59-5.16c7.73.85,19.05,5.59,23.45,25.05,0,0,.6,12.51,9,16.7s20.68,3.6,25.17,18.58S544.52,292.59,549,301s12.42,12.16,11.91,25.1c-.68,16.93-34.31,30.86-58.88,12Z"/><path class="cls-4" d="M445.76,288.26s-6.32,43.11-16.38,60.89-13.08,39.91-16.44,43.93-13.71,5.77-15.34,10l3.78,2.58,9.36,7.47s6.86-3.68,9.37-7.83c1.44-2.37,8.73-14.64,14.73-24.74a99.5,99.5,0,0,0,11.72-29.8l11.59-51.63Z"/><path class="cls-3" d="M410.63,414.35l-9.87-7.88-4.42-3,.29-.76c1-2.67,4.59-4.28,8.36-6,2.83-1.28,5.77-2.61,7.16-4.28,1.2-1.44,2.56-6.19,4.13-11.68,2.57-9,6.1-21.32,12.2-32.1,9.85-17.41,16.19-60.1,16.26-60.53l.27-1.87,14.28,12.49L447.57,351a100.55,100.55,0,0,1-11.84,30.11c-5.93,10-13.3,22.37-14.73,24.74-2.64,4.35-9.48,8.06-9.77,8.21ZM399,402.74l3.07,2.09,8.82,7c1.68-1,6.46-3.95,8.39-7.13C420.66,402.38,428,390,434,380a98.4,98.4,0,0,0,11.6-29.5l11.46-51-10.51-9.2c-1.35,8.57-7.26,43.54-16.22,59.37-6,10.57-9.47,22.76-12,31.65-1.77,6.19-3,10.67-4.53,12.44-1.7,2-4.85,3.46-7.9,4.84C403,399.86,400.13,401.17,399,402.74Z"/><path class="cls-5" d="M535.74,295.55c-2.54-10.11-9.71-28.92-28.62-35.73A37.54,37.54,0,0,0,499.6,258c-4.42-.23-18.28-.48-20.9-.2a40.27,40.27,0,0,0-6.23,1.19c-9.35,2.59-25.16,9.52-31.71,27.54a3,3,0,0,0,.85,3.23l10.18,8.78a2.93,2.93,0,0,1,1,2.5c-.69,7.24-3.81,38.46-7.66,46.45-4.36,9-10.73,34.21-10.73,34.21s36.72,25.9,77,19.53c0,0,.51-19.2-.5-31.27s-8.38-27.17-9.05-38.57S525,309.24,525,309.24l6.68-3.9A8.82,8.82,0,0,0,535.74,295.55Z"/><path class="cls-4" d="M425.6,419c0-1.18-14.75-5.12-17.69-8.81-2.31-2.9-19-12.33-26-16.19a3,3,0,0,0-4.26,1.53c-4.27,10.9-18.91,46.6-32.38,60a3,3,0,0,0,.84,4.89c9.16,4.21,30.41,14.22,38,19.85a3,3,0,0,0,4-.34C396.11,471.67,425.6,439.82,425.6,419Z"/><path class="cls-3" d="M385.92,481.89a4,4,0,0,1-2.39-.78c-7.56-5.6-29-15.67-37.83-19.74a4,4,0,0,1-2.28-2.95,4.06,4.06,0,0,1,1.14-3.61c13.33-13.29,28-49,32.15-59.66a4,4,0,0,1,5.72-2.06c8.82,4.88,23.95,13.51,26.29,16.45,1.58,2,7.72,4.34,11.79,5.91,5,1.9,6.13,2.4,6.13,3.54,0,21-28.93,52.52-37.8,61.67A4.07,4.07,0,0,1,385.92,481.89Zm-5.45-87.25a2,2,0,0,0-1.84,1.26c-4.21,10.73-19,46.8-32.61,60.37a2,2,0,0,0-.57,1.78,1.93,1.93,0,0,0,1.11,1.44c8.92,4.1,30.49,14.25,38.2,20a2,2,0,0,0,2.6-.23c8.67-9,36.84-39.57,37.21-59.84a50.14,50.14,0,0,0-4.8-2c-4.79-1.84-10.74-4.13-12.67-6.55-1.52-1.92-11.11-7.87-25.67-15.93A2,2,0,0,0,380.47,394.64Z"/><path class="cls-3" d="M388.48,468.17a1,1,0,0,1-.71-.28c-4.75-4.47-28.52-14.53-28.76-14.64a1,1,0,0,1-.55-1.35,1,1,0,0,1,1.36-.55c1,.42,24.35,10.32,29.37,15a1,1,0,0,1,0,1.46A1,1,0,0,1,388.48,468.17Z"/><path class="cls-3" d="M395,459.74a1.06,1.06,0,0,1-.63-.21c-6.13-4.67-29.54-15.66-29.78-15.77a1,1,0,0,1,.88-1.87c1,.46,23.84,11.19,30.15,16a1,1,0,0,1-.62,1.85Z"/><path class="cls-3" d="M401.7,451a1,1,0,0,1-.65-.23c-2.55-2.06-10.83-6.35-23.33-12.06a1,1,0,1,1,.86-1.88c8.95,4.09,20.34,9.56,23.77,12.34a1,1,0,0,1-.65,1.83Z"/><path class="cls-3" d="M408.37,442.32a1,1,0,0,1-.53-.14c-10.9-6.48-34.25-16.47-34.49-16.57a1,1,0,0,1,.81-1.9c.24.1,23.72,10.14,34.74,16.69a1,1,0,0,1,.36,1.42A1.05,1.05,0,0,1,408.37,442.32Z"/><path class="cls-3" d="M414,432.14a1,1,0,0,1-.49-.13c-3.53-1.91-33.8-16.16-34.11-16.3a1,1,0,0,1-.49-1.38,1,1,0,0,1,1.37-.49c1.25.58,30.64,14.42,34.22,16.35a1,1,0,0,1,.41,1.4A1,1,0,0,1,414,432.14Z"/><path class="cls-4" d="M524.35,311.65a71.56,71.56,0,0,1-16.26,28.88,54.35,54.35,0,0,1-29.8,15.89c-7.23,1.31-18.24,3.23-29.66,4.93a51.85,51.85,0,0,0-14.36,4.3c-4.86,2.27-10.15,4-13.58,5.67a1.76,1.76,0,0,1-2.5-1.21c-.61-2.7-2.19-6.12-.8-9.73a18,18,0,0,1,10.14-10.23c5.2-2,15.6-.67,21.63-.84s30.86-9.75,37.75-15.44c8.14-6.72,14.43-15.9,17.24-20.37a6.33,6.33,0,0,1,4.83-2.94l13.54-1.12A1.75,1.75,0,0,1,524.35,311.65Z"/><path class="cls-3" d="M419.92,372.54a2.86,2.86,0,0,1-1.21-.28,2.8,2.8,0,0,1-1.53-1.92c-.12-.52-.27-1.07-.44-1.66-.69-2.44-1.55-5.47-.32-8.67a19.12,19.12,0,0,1,10.74-10.82c3.85-1.49,10.16-1.25,15.73-1,2.3.09,4.48.17,6.25.12,5.46-.15,30.25-9.54,37.12-15.21,7.92-6.55,14.06-15.42,17-20.12a7.37,7.37,0,0,1,5.62-3.42l13.53-1.12a2.78,2.78,0,0,1,2.91,3.52,72.8,72.8,0,0,1-16.5,29.31,55.76,55.76,0,0,1-30.37,16.2c-7.24,1.31-18.27,3.23-29.69,4.93a50.6,50.6,0,0,0-14.07,4.22c-2.52,1.18-5.2,2.23-7.57,3.16s-4.36,1.71-6,2.5A2.77,2.77,0,0,1,419.92,372.54Zm16.68-22.48c-3.38,0-6.55.22-8.69,1.06a17.05,17.05,0,0,0-9.56,9.63c-1,2.56-.26,5.11.38,7.37.17.61.33,1.19.46,1.76a.8.8,0,0,0,.41.52.74.74,0,0,0,.64,0c1.71-.83,3.86-1.67,6.15-2.57,2.45-1,5-1.95,7.45-3.1a53.19,53.19,0,0,1,14.63-4.4c11.4-1.69,22.41-3.6,29.63-4.92a53.63,53.63,0,0,0,29.24-15.59,70.61,70.61,0,0,0,16-28.44.7.7,0,0,0-.14-.64.71.71,0,0,0-.62-.26l-13.53,1.12a5.33,5.33,0,0,0-4,2.46c-3,4.81-9.31,13.88-17.46,20.61-6.81,5.63-32,15.51-38.38,15.69-1.83,0-4,0-6.38-.13C440.78,350.14,438.65,350.06,436.6,350.06Z"/><path class="cls-4" d="M412.82,404.9c-3.52-.38-11.95,10-14.15,10.63s-2.64-.82-2.64-.82c-1.64-2.76,8.49-11.95,8.49-11.95Z"/><path class="cls-3" d="M397.6,416.77a3,3,0,0,1-2.58-1.35c-1.86-3.16,5.53-10.44,8.8-13.42a1,1,0,0,1,1.39,1.53c-5,4.6-9,9.76-8.41,10.83.08.12.5.58,1.51.2a27.64,27.64,0,0,0,4-3.45c4.64-4.41,8.12-7.5,10.63-7.24a1,1,0,0,1-.22,2.06c-1.77-.2-6.28,4.11-9,6.67-2.38,2.26-3.76,3.55-4.7,3.9A4.17,4.17,0,0,1,397.6,416.77Z"/><path class="cls-4" d="M484.28,217.67c-1.35,1.13-14.47,10.46-4.32,29.42,0,0,2.72,10.62-3,14.63a1.92,1.92,0,0,0-.13,3,17,17,0,0,0,10.85,3.68,27.39,27.39,0,0,0,13.62-3.62,1.92,1.92,0,0,0,.34-3.09,21.42,21.42,0,0,1-6.17-9.84,6.34,6.34,0,0,1,1.72-6.34,13.48,13.48,0,0,0,4.33-9.16c.45-7.67-4.19-9.88-7.22-11.88C488.09,220.45,484.28,217.67,484.28,217.67Z"/><path class="cls-3" d="M488,269.49h-.41a18,18,0,0,1-11.49-3.91,2.94,2.94,0,0,1-1.07-2.39,3,3,0,0,1,1.27-2.31c4.8-3.34,2.92-12.3,2.66-13.41-6.38-12-4.77-23.08,4.43-30.42l.82-.68.65.48s3.86,2.82,9.93,6.81l.79.51c3.1,2,7.35,4.67,6.9,12.3a14.45,14.45,0,0,1-4.66,9.85,5.29,5.29,0,0,0-1.43,5.31A20.27,20.27,0,0,0,502.3,261a3,3,0,0,1,.94,2.53,2.91,2.91,0,0,1-1.47,2.22A28.37,28.37,0,0,1,488,269.49ZM484.32,219c-4.89,4.08-11.36,12.86-3.45,27.63l.09.23c.12.46,2.83,11.37-3.45,15.74a.89.89,0,0,0-.06,1.41,16,16,0,0,0,10.2,3.44,26.5,26.5,0,0,0,13.1-3.49.85.85,0,0,0,.44-.66.9.9,0,0,0-.29-.77,22.4,22.4,0,0,1-6.47-10.32,7.35,7.35,0,0,1,2-7.37,12.48,12.48,0,0,0,4-8.47c.37-6.41-3-8.55-5.95-10.44l-.81-.52C489,222.3,485.66,219.93,484.32,219Z"/><path class="cls-3" d="M485.52,250.52a8.05,8.05,0,0,1-6.91-3.83,1,1,0,0,1,.39-1.4,1,1,0,0,1,1.41.38c.1.18,2.48,4.11,7.72,2.32a1,1,0,1,1,.67,1.95A10,10,0,0,1,485.52,250.52Z"/><path class="cls-3" d="M160.89,262.1s-7.19-.9-9.43-15.73-2.7-27.87-17.53-31.92-28.77,4.5-28.32,18.88.39,26-9,32.37c-12.14,8.24-23.52,2.24-46,22.32-28.29,25.27-20.07,102.18,61.73,81.06Z"/><path class="cls-4" d="M142.37,249.39s-2.24,2.46-6.92,1.6Z"/><path class="cls-3" d="M137.39,252.21a10.93,10.93,0,0,1-2.12-.21,1,1,0,0,1,.37-2c4,.74,5.89-1.2,6-1.28a1,1,0,0,1,1.46-.05,1,1,0,0,1,.06,1.44A7.84,7.84,0,0,1,137.39,252.21Z"/><path class="cls-4" d="M140.66,541.36s3.9,11.95,7.8,15.59,19.4,10.82,19.62,18.62c.25,9-5,10.73-19.1,7.46-10.17-2.37-18.57-8.59-21.57-12.14-2.65-3.14-1.17-5.81-.53-9.48a78.33,78.33,0,0,0,1-13.69v-7.49Z"/><path class="cls-3" d="M159.57,585.6A50,50,0,0,1,148.75,584c-10.5-2.44-19.15-8.94-22.13-12.47-2.45-2.91-1.84-5.51-1.19-8.28.15-.66.31-1.34.44-2a78.73,78.73,0,0,0,.93-13.51V539.1l14.63,1.29.21.65c0,.11,3.86,11.74,7.52,15.16a45.49,45.49,0,0,0,5.17,3.65c6.17,4,14.61,9.5,14.78,15.69.11,3.89-.8,6.56-2.77,8.17C164.81,585,162.64,585.6,159.57,585.6Zm-30.7-44.25v6.37a80.46,80.46,0,0,1-1,13.87c-.13.77-.3,1.48-.46,2.16-.62,2.63-1,4.36.76,6.47,2.81,3.33,11,9.48,21,11.8,8.58,2,13.46,2,15.82.09,1.46-1.19,2.1-3.26,2-6.51-.14-5.11-8-10.26-13.83-14a44.27,44.27,0,0,1-5.46-3.87c-3.55-3.33-7-12.79-7.85-15.38Z"/><path class="cls-3" d="M167.53,580.35h-.08l-5-.36A53.72,53.72,0,0,1,128,564.14c-1.22-1.24-1.9-2-1.93-2.06a1,1,0,0,1,1.57-1.35s.66.77,1.83,2a51.61,51.61,0,0,0,33.09,15.24l5,.36a1,1,0,0,1-.07,2.06Z"/><path class="cls-3" d="M137.3,561.14a1,1,0,0,1-.17-2.06c.06,0,6.37-1.1,8.67-4.1a1,1,0,1,1,1.64,1.26c-2.8,3.65-9.68,4.83-10,4.88Z"/><path class="cls-3" d="M143.25,565.18a1,1,0,0,1-.21-2c1.66-.35,6.27-1.79,7.68-4.16a1,1,0,1,1,1.77,1c-2.15,3.64-8.75,5.07-9,5.13Z"/><path class="cls-3" d="M149.66,569a1,1,0,0,1-.36-2s4.87-1.85,6.24-4.72a1,1,0,0,1,1.87.89c-1.74,3.63-7.16,5.68-7.39,5.77A1.13,1.13,0,0,1,149.66,569Z"/><path class="cls-4" d="M110.6,512c-.47,0-7.25-.67-11.17-1.06a2.77,2.77,0,0,0-3,2.47l-.77,7.1a43.43,43.43,0,0,1-1.49,7.41c-1.28,4.4-3.18,12-2.14,15.44,1.11,3.7,4.58,8.85,6.87,11.78a4,4,0,0,0,4.47,1.35c2.91-1,7.56-2.86,10.29-5.59,4.19-4.19-.33-12.24-.33-12.24Z"/><path class="cls-3" d="M102.05,557.7a5.1,5.1,0,0,1-4-2c-2.55-3.27-5.92-8.4-7-12.12-1.06-3.55.58-10.68,2.14-16a42.09,42.09,0,0,0,1.45-7.23l.77-7.1a3.82,3.82,0,0,1,4.17-3.39c6.53.65,10.68,1.05,11.08,1.06l.91,0,.11.91,2.66,26.45c.72,1.35,4.42,8.93.06,13.28-2.79,2.8-7.36,4.72-10.69,5.84A5.26,5.26,0,0,1,102.05,557.7Zm-2.9-45.77a1.75,1.75,0,0,0-1.74,1.56l-.77,7.1a43.24,43.24,0,0,1-1.52,7.59c-2.07,7.08-2.85,12.5-2.14,14.85,1,3.23,4.06,8.07,6.69,11.45a3,3,0,0,0,3.33,1c2.56-.86,7.25-2.7,9.89-5.34,3.6-3.59-.46-10.93-.51-11l-.1-.19-2.62-26c-1.18-.11-3.9-.36-10.33-1Z"/><path class="cls-3" d="M105.16,556.53a1,1,0,0,1-.84-.44c-8.41-11.82-7.8-15.14-6.58-21.75.25-1.37.54-2.92.77-4.73.63-4.84,2.5-18.15,2.52-18.29a1,1,0,1,1,2,.29c0,.14-1.89,13.44-2.51,18.27-.24,1.86-.53,3.44-.79,4.83-1.18,6.42-1.67,9.08,6.23,20.19a1,1,0,0,1-.24,1.44A1,1,0,0,1,105.16,556.53Z"/><path class="cls-3" d="M104,536.19a1,1,0,0,1-.14-2.05l7.64-1.13a1,1,0,0,1,.3,2l-7.64,1.12Z"/><path class="cls-3" d="M104.82,541.7a1,1,0,0,1-.15-2.06l7.64-1.12a1,1,0,1,1,.3,2L105,541.68Z"/><path class="cls-3" d="M113.13,543.78c4.45,3.07,13.88,7,29.73,2.28l-7.27-160.69-29.85-5.7s-3.9,39.95.33,80.15a735.27,735.27,0,0,1,4,77.92A7.24,7.24,0,0,0,113.13,543.78Z"/><path class="cls-3" d="M107.08,375l71.44,4-2.43,78.12A49.19,49.19,0,0,1,168,482.69c-8.08,12.2-21,30.15-31.19,37.16C120.66,530.92,107.08,375,107.08,375Z"/><path class="cls-6" d="M142.58,517.59a1,1,0,0,1-1-1L139.19,466a1,1,0,1,1,2.06-.1l2.36,50.62a1,1,0,0,1-1,1.08Z"/><path class="cls-4" d="M228.91,234.15a1,1,0,0,1-.8-1c.06-2.49.57-10,4.76-13.39,5.07-4.15,9.38-13.67,12.45-12.75s-3.69,9.22-2.92,10.14,6.15-4.3,7.84-7.38,3.73-9.08,6.19-8.88c3.37.28,4.1,5.35-.35,15.34-4.24,9.5-18.5,12.05-19.61,18.37a1,1,0,0,1-1.15.78Z"/><path class="cls-3" d="M235.51,236.45a1.72,1.72,0,0,1-.39,0l-6.41-1.24a2,2,0,0,1-1.63-2c.06-3.05.7-10.53,5.14-14.17a39.2,39.2,0,0,0,5.8-6.75c2.86-3.87,5.13-6.93,7.6-6.19a2,2,0,0,1,1.36,1.21c.65,1.58-.54,3.93-2.29,7.06l-.48.87a25.72,25.72,0,0,0,5.12-5.88c.39-.7.8-1.57,1.23-2.49,1.65-3.51,3.37-7.15,5.95-6.93a3.63,3.63,0,0,1,2.93,1.82c1.59,2.69.75,7.86-2.42,15-2.36,5.28-7.49,8.44-12,11.23-3.79,2.34-7.07,4.35-7.51,6.89a1.93,1.93,0,0,1-.84,1.3A2,2,0,0,1,235.51,236.45Zm-6.36-3.3,6.32,1.22c.63-3.42,4.26-5.65,8.45-8.23s9.12-5.61,11.21-10.31c4.1-9.18,3-12.33,2.54-13.07a1.57,1.57,0,0,0-1.33-.82h0c-1.16,0-2.92,3.73-3.87,5.75-.45.95-.87,1.85-1.29,2.6-1.5,2.73-6.27,7.82-8.31,8a1.36,1.36,0,0,1-1.22-.47c-.74-.89-.07-2.1,1.28-4.52.76-1.37,2.55-4.58,2.18-5.29-1.12-.32-3.59,3-5.39,5.44a40.26,40.26,0,0,1-6.15,7.12C229.67,223.74,229.2,230.93,229.15,233.15Z"/><path class="cls-4" d="M73.3,394.9a1,1,0,0,0-1.07.59c-.83,1.92-3.16,6.7-6.78,8.49-2.57,1.27-4.89,2.07-8,5s-8.51,10.67-7.33,12.57c1.39,2.25,5.86,0,9.29-2.14s6.84-7.12,10.18-7.63-3.72,7.54-2.72,8.8,4.61-.61,6.92-4.41c.92-1.5,6.37-14.74,8-18.75a1,1,0,0,0-.76-1.34Z"/><path class="cls-3" d="M52,423.56a3,3,0,0,1-2.74-1.43c-1.81-2.92,5.14-11.62,7.5-13.86a23.65,23.65,0,0,1,7.07-4.64l1.2-.58c3.29-1.62,5.49-6.11,6.29-8a2,2,0,0,1,2.18-1.2l7.72,1.22a2,2,0,0,1,1.55,2.76c-2.12,5.17-7.15,17.36-8.07,18.88-1.79,2.94-4.59,5.17-6.67,5.3a2.21,2.21,0,0,1-1.94-.77c-.88-1.11.12-2.8,1.64-5.37a32.34,32.34,0,0,0,1.6-2.95c-1.58.47-3.37,2.17-5.1,3.82a27.55,27.55,0,0,1-4.26,3.56C57.27,422,54.24,423.56,52,423.56Zm21.2-27.64c-1.11,2.58-3.51,7.14-7.25,9l-1.24.6a21.52,21.52,0,0,0-6.53,4.27c-3.65,3.46-7.64,10.07-7.16,11.29.31.49,1.71,1.27,7.87-2.49a26.32,26.32,0,0,0,3.92-3.3c2.12-2,4.32-4.11,6.65-4.47a1.71,1.71,0,0,1,1.82.64c.75,1.12-.14,2.74-1.77,5.51A22.83,22.83,0,0,0,67.84,420c.78,0,3.19-1.27,5-4.34.69-1.14,4.54-10.31,7.91-18.54Z"/><path class="cls-5" d="M143.84,261.05a70.75,70.75,0,0,1,19.41-1.65c7.46.4,16.89,1.56,23.06,4.64,11.57,5.79,17.11,12.83,23.9,10.07,5.7-2.33,13.15-30.94,15.4-40.07a3,3,0,0,1,3.49-2.22l7.14,1.42a3,3,0,0,1,2.4,3.19c-1,12.14-5.8,61.81-16.61,65.34-12.32,4-43.26-12.07-43.26-12.07s.25,61.12,8.3,93.32c0,0-12.7-.07-21,3.35-44,18.24-62.62-3.35-62.62-3.35.27-12.5,3-21.07,12-35,4.92-7.63,6.33-19.94-3.41-31.06,0,0-23.73,73.31-28.15,81.94-.3.59-14.92-2.65-14.95-3-2.36-26.28,15.67-75.32,18.29-87.21a61.79,61.79,0,0,1,3.28-10.56C95,287.5,105,270.07,123.51,265.64Z"/><path class="cls-3" d="M151.69,382.71a1,1,0,0,1-.46-.11,1,1,0,0,1-.47-1.38l17.44-35.55a1,1,0,1,1,1.85.91l-17.44,35.55A1,1,0,0,1,151.69,382.71Z"/><path class="cls-3" d="M167,371a.92.92,0,0,1-.4-.08,1,1,0,0,1-.56-1.34L170.77,358a1,1,0,0,1,1.35-.56,1,1,0,0,1,.56,1.35l-4.78,11.57A1,1,0,0,1,167,371Z"/><path class="cls-4" d="M142,249.71c4.55-3.14-.63-21.89-5.78-24.65s-16,.25-16,.25c4,13.2-3.21,16.47-4.22,16.47s-4.21.19-2.2,4.47,6.54,1.95,6.54,1.95a16.16,16.16,0,0,0,4.71,2.48,17.89,17.89,0,0,1-2.6,16.56,2.89,2.89,0,0,0,1.64,4.51,29.19,29.19,0,0,0,14.24-.41,27.88,27.88,0,0,0,9.92-4.53,2.87,2.87,0,0,0-.52-4.88C142.55,259.52,139,251.78,142,249.71Z"/><path class="cls-3" d="M130.23,273.47a26.94,26.94,0,0,1-6.31-.72,3.86,3.86,0,0,1-2.73-2.41,4,4,0,0,1,.49-3.7,16.82,16.82,0,0,0,2.61-15.17,18.78,18.78,0,0,1-4-2.08,6.56,6.56,0,0,1-4.26.2,5.25,5.25,0,0,1-3-2.9c-.88-1.88-1-3.37-.3-4.45.43-.68,1.37-1.49,3.43-1.49a5.66,5.66,0,0,0,2.93-2.48c1.28-2,2.38-5.84.3-12.66l-.31-1,1-.29c.46-.12,11.28-3.09,16.74-.16,4,2.14,7.66,12.16,8,19,.21,3.76-.52,6.25-2.16,7.38a2.19,2.19,0,0,0-.64,2c.23,2.72,2.86,6.83,6.25,8.39a3.82,3.82,0,0,1,2.21,3.09,3.88,3.88,0,0,1-1.51,3.56,29.33,29.33,0,0,1-10.28,4.7A33.08,33.08,0,0,1,130.23,273.47ZM120.57,247l.53.46a15.16,15.16,0,0,0,4.38,2.3l.46.17.16.46a18.78,18.78,0,0,1-2.74,17.49,1.9,1.9,0,0,0-.24,1.77,1.78,1.78,0,0,0,1.28,1.13,28.06,28.06,0,0,0,13.73-.4,27,27,0,0,0,9.56-4.35,1.83,1.83,0,0,0,.71-1.68,1.78,1.78,0,0,0-1-1.45c-4.22-1.93-7.15-6.74-7.44-10.08a4.07,4.07,0,0,1,1.53-3.92c1-.67,1.43-2.7,1.27-5.56-.38-6.81-4-15.72-7-17.33-3.86-2.07-11.46-.56-14.19.08,2,7.37.47,11.59-1.21,13.87a6.66,6.66,0,0,1-4.3,2.9c-.86,0-1.47.19-1.69.53s-.11,1.32.43,2.46a3.23,3.23,0,0,0,1.83,1.82,4.92,4.92,0,0,0,3.3-.35Z"/><path class="cls-3" d="M535.16,120.35a1,1,0,0,1-.29,0,1,1,0,0,1-.7-1.28L540.76,96a1,1,0,1,1,2,.57l-6.59,23.07A1,1,0,0,1,535.16,120.35Z"/><path class="cls-3" d="M545.35,124.24a1,1,0,0,1-.73-.29,1,1,0,0,1,0-1.46l34.46-35.06a1,1,0,1,1,1.47,1.45l-34.46,35.05A1,1,0,0,1,545.35,124.24Z"/><path class="cls-3" d="M551,138.93a1,1,0,0,1-.52-1.93l11.68-6.89a1,1,0,0,1,1.42.37,1,1,0,0,1-.37,1.41l-11.68,6.89A1,1,0,0,1,551,138.93Z"/><path class="cls-3" d="M424.37,48.73a1,1,0,0,1-.73-.3l-3.21-3.2a1,1,0,1,1,1.47-1.47L425.1,47a1,1,0,0,1-.73,1.76Z"/><path class="cls-3" d="M435.58,60a1,1,0,0,1-.73-.31l-3.2-3.2A1,1,0,1,1,433.11,55l3.2,3.2a1,1,0,0,1,0,1.46A1,1,0,0,1,435.58,60Z"/><path class="cls-3" d="M421.16,60a1.07,1.07,0,0,1-.73-.31,1,1,0,0,1,0-1.46l3.21-3.2a1,1,0,0,1,1.46,0,1,1,0,0,1,0,1.46l-3.2,3.2A1.07,1.07,0,0,1,421.16,60Z"/><path class="cls-3" d="M432.38,48.73a1,1,0,0,1-.73-1.76l3.2-3.21a1,1,0,1,1,1.46,1.47l-3.2,3.2A1,1,0,0,1,432.38,48.73Z"/><path class="cls-3" d="M214.38,520.76a1,1,0,0,1-.73-.3l-3.2-3.2a1,1,0,0,1,1.46-1.46l3.2,3.2a1,1,0,0,1-.73,1.76Z"/><path class="cls-3" d="M225.6,532a1,1,0,0,1-.73-.31l-3.21-3.2a1,1,0,1,1,1.46-1.46l3.21,3.2a1,1,0,0,1,0,1.46A1,1,0,0,1,225.6,532Z"/><path class="cls-3" d="M211.18,532a1,1,0,0,1-.73-.31,1,1,0,0,1,0-1.46l3.2-3.2a1,1,0,0,1,1.46,0,1,1,0,0,1,0,1.46l-3.2,3.2A1,1,0,0,1,211.18,532Z"/><path class="cls-3" d="M222.39,520.76a1,1,0,0,1-.73-1.76l3.21-3.2a1,1,0,0,1,1.46,0,1,1,0,0,1,0,1.46l-3.21,3.2A1,1,0,0,1,222.39,520.76Z"/><path class="cls-3" d="M458.9,72.33a6.44,6.44,0,1,1,6.44-6.44A6.45,6.45,0,0,1,458.9,72.33Zm0-10.82a4.38,4.38,0,1,0,4.37,4.38A4.38,4.38,0,0,0,458.9,61.51Z"/><path class="cls-3" d="M44.48,200.2a8.2,8.2,0,0,1,0-16.4,1,1,0,0,1,0,2.06A6.14,6.14,0,1,0,50.61,192a1,1,0,1,1,2.07,0A8.21,8.21,0,0,1,44.48,200.2Z"/><path class="cls-3" d="M469.25,94.15a4.66,4.66,0,1,1,4.65-4.66A4.66,4.66,0,0,1,469.25,94.15Zm0-7.24a2.59,2.59,0,1,0,2.58,2.58A2.59,2.59,0,0,0,469.25,86.91Z"/><path class="cls-7" d="M257.46,565.37h0c-2.69,0-5.49-.09-8.3-.22a1,1,0,0,1-1-1.08,1.06,1.06,0,0,1,1.08-1c2.79.13,5.56.21,8.22.22a1,1,0,0,1,1,1A1,1,0,0,1,257.46,565.37Zm8.26-.13a1,1,0,0,1-1-1,1,1,0,0,1,1-1.08c2.79-.1,5.55-.28,8.19-.53a1,1,0,0,1,.19,2.06c-2.68.25-5.47.43-8.3.54ZM241,564.62h-.09c-2.7-.22-5.48-.49-8.26-.81a1,1,0,0,1,.23-2c2.76.31,5.52.58,8.2.8a1,1,0,0,1-.08,2.06Zm41.22-.93a1,1,0,0,1-.16-2.05l1.86-.31c2.1-.36,4.16-.8,6.13-1.32a1,1,0,0,1,.52,2c-2,.53-4.14,1-6.29,1.36l-1.9.31Zm-57.66-.92h-.14c-2.72-.39-5.48-.83-8.2-1.29a1,1,0,0,1,.35-2c2.7.46,5.44.9,8.14,1.28a1,1,0,0,1-.15,2.06Zm-16.3-2.8a.68.68,0,0,1-.2,0c-2.81-.56-5.54-1.15-8.12-1.75a1,1,0,1,1,.47-2c2.55.59,5.27,1.18,8,1.74a1,1,0,0,1-.2,2Zm89.9-.49a1,1,0,0,1-.39-2A55.31,55.31,0,0,0,305,554a1,1,0,0,1,1.41.37,1,1,0,0,1-.37,1.42,58.15,58.15,0,0,1-7.56,3.67A1.06,1.06,0,0,1,298.11,559.48ZM192.17,556a1,1,0,0,1-.34-.06c-2.62-.91-5.24-1.85-7.79-2.82a1,1,0,1,1,.73-1.93c2.53,1,5.14,1.9,7.74,2.8a1,1,0,0,1-.34,2Zm120.11-4.82a1.06,1.06,0,0,1-.79-.37,1,1,0,0,1,.13-1.46,41.18,41.18,0,0,0,5.62-5.75,1,1,0,0,1,1.45-.17,1,1,0,0,1,.16,1.46,43.07,43.07,0,0,1-5.9,6A1,1,0,0,1,312.28,551.14Zm-135.56-1a1.09,1.09,0,0,1-.4-.07c-2.55-1.06-5.12-2.16-7.62-3.28a1,1,0,1,1,.84-1.88c2.49,1.11,5,2.2,7.57,3.25a1,1,0,0,1-.39,2Zm124.63-4.72h0a27.75,27.75,0,0,1-8.42-1.49,1,1,0,0,1-.64-1.31,1,1,0,0,1,1.31-.64,25.52,25.52,0,0,0,7.8,1.37,1,1,0,0,1,0,2.07Zm8.18-.87a1,1,0,0,1-.22-2,55,55,0,0,0,7.74-2.39,1,1,0,0,1,.74,1.93,54.76,54.76,0,0,1-8,2.47A.91.91,0,0,1,309.53,544.52Zm-147.9-1.16a1,1,0,0,1-.45-.1c-2.49-1.21-5-2.47-7.4-3.75a1,1,0,1,1,1-1.82c2.41,1.26,4.88,2.51,7.34,3.71a1,1,0,0,1-.45,2Zm124.29-3.16a1.07,1.07,0,0,1-.59-.18,42.59,42.59,0,0,1-6.48-5.42,1,1,0,1,1,1.47-1.44,41.33,41.33,0,0,0,6.18,5.16,1,1,0,0,1-.58,1.88ZM325,538.78a1,1,0,0,1-.93-.58,1,1,0,0,1,.48-1.38c2.18-1.06,4.58-2.28,7.31-3.75a1,1,0,0,1,1,1.82c-2.76,1.48-5.18,2.72-7.39,3.79A1,1,0,0,1,325,538.78Zm-2.55-.52a1,1,0,0,1-.45-.1,1,1,0,0,1-.48-1.38,32.61,32.61,0,0,0,2.57-7.56,1,1,0,1,1,2,.41,34.61,34.61,0,0,1-2.73,8A1,1,0,0,1,322.44,538.26ZM339.59,531a1,1,0,0,1-.51-1.94l3.65-2,3.57-2a1,1,0,1,1,1,1.8l-3.56,2-3.65,2A1,1,0,0,1,339.59,531Zm-65-2.66a1,1,0,0,1-.9-.51,27.28,27.28,0,0,1-3.16-7.94,1,1,0,0,1,.79-1.23,1,1,0,0,1,1.23.79,25.11,25.11,0,0,0,2.93,7.34,1,1,0,0,1-.37,1.41A1,1,0,0,1,274.56,528.38ZM354,523a1,1,0,0,1-.5-1.94c2.61-1.42,5-2.69,7.32-3.89a1,1,0,0,1,.95,1.84c-2.31,1.19-4.69,2.45-7.28,3.86A1,1,0,0,1,354,523Zm-28.41-.77a1,1,0,0,1-1-1,26,26,0,0,0-1.74-7.72,1,1,0,1,1,1.92-.76,28.06,28.06,0,0,1,1.88,8.33,1,1,0,0,1-1,1.11Zm43.09-6.81a1,1,0,0,1-.45-2c2.53-1.22,5.06-2.4,7.52-3.49a1,1,0,1,1,.84,1.88c-2.44,1.09-4.95,2.26-7.46,3.47A1,1,0,0,1,368.72,515.43Zm-97.34-2.89-.21,0a1,1,0,0,1-.81-1.22,17.62,17.62,0,0,1,3.75-7.83,1.05,1.05,0,0,1,1.46-.13,1,1,0,0,1,.13,1.46,15.54,15.54,0,0,0-3.31,6.91A1,1,0,0,1,271.38,512.54Zm112.44-3.83a1,1,0,0,1-.39-2c2.58-1,5.19-2,7.76-3a1,1,0,0,1,1.32.62,1,1,0,0,1-.62,1.32c-2.54.91-5.13,1.9-7.69,2.93A.84.84,0,0,1,383.82,508.71Zm-64.22-1.56a1,1,0,0,1-.79-.36,24.25,24.25,0,0,0-6-5.11,1,1,0,0,1,1.06-1.77,26.42,26.42,0,0,1,6.53,5.54,1,1,0,0,1-.79,1.7Zm79.76-4a1,1,0,0,1-.31-2c2.64-.83,5.32-1.62,8-2.34a1,1,0,1,1,.54,2c-2.62.71-5.28,1.48-7.89,2.31A1.12,1.12,0,0,1,399.36,503.12Zm-117.93-2.91a1,1,0,0,1-.44-2,28.85,28.85,0,0,1,8.18-2.41,1,1,0,1,1,.31,2,26.82,26.82,0,0,0-7.6,2.24A1,1,0,0,1,281.43,500.21Zm133.87-1.4a1,1,0,0,1-1-.81,1,1,0,0,1,.78-1.23c2-.45,4-.88,6-1.26l2.13-.39a1,1,0,1,1,.37,2l-2.11.39c-2,.38-4,.8-6,1.24A.85.85,0,0,1,415.3,498.81Zm-109.57-.14a1.15,1.15,0,0,1-.26,0,33.17,33.17,0,0,0-4.9-.89c-1-.1-2.06-.18-3.06-.23a1,1,0,0,1,.1-2.07c1,.05,2.11.14,3.18.25a34.63,34.63,0,0,1,5.2.94,1,1,0,0,1-.26,2Z"/><path class="cls-7" d="M95.11,494.9a1,1,0,0,1-.75-.32c-1.88-2-3.74-4.11-5.54-6.2A1,1,0,0,1,90.39,487c1.78,2.07,3.62,4.13,5.48,6.13a1,1,0,0,1-.05,1.46A1.05,1.05,0,0,1,95.11,494.9ZM84.35,482.37a1,1,0,0,1-.81-.4c-1.71-2.16-3.39-4.39-5-6.62a1,1,0,0,1,.22-1.44,1,1,0,0,1,1.45.23c1.6,2.21,3.27,4.41,5,6.55a1,1,0,0,1-.81,1.68ZM74.64,469a1,1,0,0,1-.86-.46c-1.52-2.29-3-4.65-4.46-7a1,1,0,0,1,1.76-1.08c1.42,2.33,2.91,4.66,4.42,6.93a1,1,0,0,1-.28,1.43A1,1,0,0,1,74.64,469ZM66,454.89a1,1,0,0,1-.91-.53c-1.33-2.4-2.64-4.87-3.89-7.33a1,1,0,0,1,.46-1.39,1,1,0,0,1,1.38.45c1.24,2.44,2.53,4.88,3.86,7.27a1,1,0,0,1-.4,1.4A1,1,0,0,1,66,454.89Zm-7.46-14.74a1,1,0,0,1-.94-.61c-1.15-2.49-2.26-5.05-3.31-7.61a1,1,0,1,1,1.91-.79c1,2.53,2.14,5.07,3.28,7.54a1,1,0,0,1-.51,1.37A1,1,0,0,1,58.58,440.15Z"/><path class="cls-7" d="M47.93,411.81a1,1,0,0,1-1-.74c-.78-2.63-1.53-5.33-2.22-8a1,1,0,0,1,.74-1.26,1,1,0,0,1,1.26.74c.68,2.65,1.42,5.32,2.2,7.93a1,1,0,0,1-.69,1.28A1,1,0,0,1,47.93,411.81Zm-4.14-16a1,1,0,0,1-1-.82c-.59-2.69-1.14-5.43-1.63-8.14a1,1,0,1,1,2-.36c.49,2.68,1,5.39,1.61,8.06a1,1,0,0,1-.78,1.23A.91.91,0,0,1,43.79,395.81Zm-2.92-16.27a1,1,0,0,1-1-.89c-.39-2.77-.73-5.54-1-8.25a1,1,0,0,1,2.06-.2c.27,2.68.6,5.42,1,8.16a1,1,0,0,1-.88,1.17Zm-1.62-16.45a1,1,0,0,1-1-1c-.16-3-.19-5.27-.19-6.64,0-1.12,0-1.71,0-1.71a1,1,0,0,1,2.07.07s0,.58,0,1.64c0,1.35,0,3.58.18,6.53a1,1,0,0,1-1,1.09Z"/><path class="cls-7" d="M504.74,489.22a1,1,0,0,1-.25-2,65.62,65.62,0,0,0,7.72-2.53,1,1,0,0,1,1.34.58,1,1,0,0,1-.58,1.34,68,68,0,0,1-8,2.61A1.09,1.09,0,0,1,504.74,489.22Zm15.35-6.05a1,1,0,0,1-.92-.55,1,1,0,0,1,.43-1.39,74.25,74.25,0,0,0,6.95-4.25,1,1,0,0,1,1.44.27,1,1,0,0,1-.27,1.43,75.1,75.1,0,0,1-7.15,4.37A1,1,0,0,1,520.09,483.17Zm13.59-9.35a1,1,0,0,1-.79-.36A1,1,0,0,1,533,472a78.36,78.36,0,0,0,5.89-5.64,1,1,0,1,1,1.51,1.41,78.7,78.7,0,0,1-6,5.79A1,1,0,0,1,533.68,473.82Zm11.29-12a1.06,1.06,0,0,1-.63-.21,1,1,0,0,1-.2-1.45,76.84,76.84,0,0,0,4.57-6.75,1,1,0,0,1,1.41-.36,1,1,0,0,1,.36,1.42,81.13,81.13,0,0,1-4.69,6.94A1,1,0,0,1,545,461.8Zm8.49-14.14a1,1,0,0,1-.43-.1,1,1,0,0,1-.51-1.37,77.44,77.44,0,0,0,3-7.56,1,1,0,0,1,2,.67,80,80,0,0,1-3.12,7.76A1,1,0,0,1,553.46,447.66Zm5.35-15.6a1,1,0,0,1-.24,0,1,1,0,0,1-.77-1.24c.6-2.62,1.09-5.32,1.43-8a1,1,0,0,1,1.16-.89,1,1,0,0,1,.89,1.16,82.58,82.58,0,0,1-1.47,8.22A1,1,0,0,1,558.81,432.06Zm2.11-16.36h0a1,1,0,0,1-1-1.07c0-1,0-2,0-3,0-1.71,0-3.46-.14-5.2a1,1,0,1,1,2.06-.11c.1,1.77.15,3.56.15,5.31,0,1,0,2,0,3A1,1,0,0,1,560.92,415.7ZM560,399.21a1,1,0,0,1-1-.89c-.37-2.65-.86-5.36-1.44-8.05a1,1,0,1,1,2-.44c.6,2.74,1.1,5.5,1.48,8.21a1,1,0,0,1-.88,1.16Zm-3.5-16.13a1,1,0,0,1-1-.74c-.75-2.57-1.62-5.19-2.56-7.79a1,1,0,1,1,1.94-.71c1,2.64,1.84,5.3,2.6,7.92a1,1,0,0,1-.7,1.28A1,1,0,0,1,556.51,383.08Zm-5.63-15.53a1,1,0,0,1-1-.62c-.65-1.53-1.35-3.08-2.07-4.61a1,1,0,0,1,.49-1.37,1,1,0,0,1,1.38.49c.73,1.55,1.43,3.12,2.1,4.67a1,1,0,0,1-.54,1.36A1.15,1.15,0,0,1,550.88,367.55Z"/></g><rect class="cls-17" x="55.81" y="57.53" width="125.08" height="99.58" rx="0.31" transform="translate(-32.62 55.05) rotate(-23.11)"/><path class="cls-18" d="M52.53,68.88l82.76-35.31L156,36.92l-114.74,49C47.56,76,52.53,68.88,52.53,68.88Z"/><path class="cls-19" d="M139.51,106.48c.64,9.21-4.09,18-12.5,21.57s-18,.93-24.21-5.9"/></g></svg>