<?xml version="1.0" encoding="UTF-8" standalone="no"?>
<svg
   xmlns:dc="http://purl.org/dc/elements/1.1/"
   xmlns:cc="http://creativecommons.org/ns#"
   xmlns:rdf="http://www.w3.org/1999/02/22-rdf-syntax-ns#"
   xmlns:svg="http://www.w3.org/2000/svg"
   xmlns="http://www.w3.org/2000/svg"
   xmlns:xlink="http://www.w3.org/1999/xlink"
   xmlns:sodipodi="http://sodipodi.sourceforge.net/DTD/sodipodi-0.dtd"
   xmlns:inkscape="http://www.inkscape.org/namespaces/inkscape"
   version="1.1"
   x="0"
   y="0"
   width="511"
   height="386"
   viewBox="0, 0, 511, 386"
   id="svg16765"
   sodipodi:docname="publicdomainq-0000676uvkqve.svg"
   inkscape:version="0.92.2 2405546, 2018-03-11">
  <metadata
     id="metadata16769">
    <rdf:RDF>
      <cc:Work
         rdf:about="">
        <dc:format>image/svg+xml</dc:format>
        <dc:type
           rdf:resource="http://purl.org/dc/dcmitype/StillImage" />
      </cc:Work>
    </rdf:RDF>
  </metadata>
  <sodipodi:namedview
     pagecolor="#ffffff"
     bordercolor="#666666"
     borderopacity="1"
     objecttolerance="10"
     gridtolerance="10"
     guidetolerance="10"
     inkscape:pageopacity="0"
     inkscape:pageshadow="2"
     inkscape:window-width="1435"
     inkscape:window-height="869"
     id="namedview16767"
     showgrid="false"
     inkscape:zoom="2.223092"
     inkscape:cx="369.25869"
     inkscape:cy="207.55632"
     inkscape:window-x="0"
     inkscape:window-y="23"
     inkscape:window-maximized="0"
     inkscape:current-layer="svg16765" />
  <defs
     id="defs16606">
    <linearGradient
       inkscape:collect="always"
       id="linearGradient17326">
      <stop
         style="stop-color:#efa496;stop-opacity:1;"
         offset="0"
         id="stop17322" />
      <stop
         style="stop-color:#efa496;stop-opacity:0;"
         offset="1"
         id="stop17324" />
    </linearGradient>
    <linearGradient
       inkscape:collect="always"
       id="linearGradient17318">
      <stop
         style="stop-color:#efa496;stop-opacity:1;"
         offset="0"
         id="stop17314" />
      <stop
         style="stop-color:#efa496;stop-opacity:0;"
         offset="1"
         id="stop17316" />
    </linearGradient>
    <clipPath
       id="Clip_1">
      <path
         d="M0,386 L510.379,386 L510.379,0.481 L0,0.481 z"
         id="path16600" />
    </clipPath>
    <clipPath
       id="Clip_2">
      <path
         d="M0,386 L510.379,386 L510.379,0.481 L0,0.481 z"
         id="path16603" />
    </clipPath>
    <radialGradient
       inkscape:collect="always"
       xlink:href="#linearGradient17318"
       id="radialGradient17320"
       cx="313.62848"
       cy="158.703"
       fx="313.62848"
       fy="158.703"
       r="17.310864"
       gradientTransform="matrix(1,0,0,0.71244279,0,45.636192)"
       gradientUnits="userSpaceOnUse" />
    <radialGradient
       inkscape:collect="always"
       xlink:href="#linearGradient17326"
       id="radialGradient17328"
       cx="446.02345"
       cy="170.0565"
       fx="446.02345"
       fy="170.0565"
       r="17.310895"
       gradientTransform="matrix(1,0,0,0.71247036,0,48.896283)"
       gradientUnits="userSpaceOnUse" />
  </defs>
  <g
     id="Layer_1">
    <path
       d="M479.59,46.624 L302.123,31.407 C269.432,70.7 258.388,121.75 269.392,156.692 C280.395,191.634 298.942,208.557 305.805,221.811 C305.805,221.811 312.223,224.944 322.076,228.796 C320.104,221.553 317.262,209.747 316.943,200.767 L328.687,231.291 C341.309,235.863 357.582,240.684 373.416,242.409 C389.313,243.405 406.17,241.425 419.386,239.068 L436.155,210.989 C434.311,219.783 429.501,230.934 426.325,237.735 C436.689,235.616 443.547,233.622 443.547,233.622 C452.566,221.729 473.724,208.211 490.515,175.653 C507.306,143.094 505.115,90.909 479.59,46.624"
       fill="#624B47"
       id="path16608" />
    <path
       d="M192.342,329.207 L83.051,363.568 C83.051,363.568 86.87,375.498 80.659,386 L190.915,350.206 C194.262,344.005 196.643,336.362 192.342,329.207"
       fill="#D8232A"
       id="path16610" />
    <path
       d="M80.659,386 C86.87,375.498 83.051,363.568 83.051,363.568 L2.865,327.297 L0.006,347.342 L80.659,386"
       fill="#FFFFFE"
       id="path16612" />
    <path
       d="M192.342,329.207 L83.051,363.568 L2.865,327.297 L108.819,301.528 L192.342,329.207"
       fill="#9B1D23"
       id="path16614" />
    <path
       d="M1.744,333.612 L75.978,367.123 C76.365,367.298 76.821,367.125 76.995,366.738 C77.17,366.351 76.998,365.896 76.611,365.721 L2.377,332.21 C1.99,332.036 1.535,332.208 1.36,332.595 C1.185,332.982 1.357,333.437 1.744,333.612"
       fill="#8A8B8A"
       id="path16616" />
    <g
       clip-path="url(#Clip_1)"
       id="g16622">
      <path
         d="M1.132,337.95 L75.361,371.466 C75.748,371.64 76.203,371.468 76.378,371.081 C76.552,370.694 76.38,370.239 75.993,370.064 L1.765,336.549 C1.378,336.374 0.922,336.546 0.748,336.933 C0.573,337.32 0.745,337.775 1.132,337.95"
         fill="#8A8B8A"
         id="path16618" />
      <path
         d="M0.452,342.698 L74.691,376.214 C75.078,376.389 75.533,376.216 75.708,375.829 C75.883,375.442 75.711,374.987 75.324,374.812 L1.085,341.297 C0.698,341.122 0.243,341.294 0.068,341.681 C-0.107,342.068 0.066,342.523 0.452,342.698"
         fill="#8A8B8A"
         id="path16620" />
    </g>
    <path
       d="M24.592,285.297 C20.523,290.071 20.658,294.627 20.523,299.136 L50.531,359.417 C46.307,346.942 52.508,335.89 52.508,335.89 L24.592,285.297"
       fill="#0073A2"
       id="path16624" />
    <path
       d="M52.508,335.89 C52.508,335.89 46.307,346.942 50.531,359.417 L174.211,343.051 L175.441,323.602 L52.508,335.89"
       fill="#FFFFFE"
       id="path16626" />
    <path
       d="M175.441,323.602 L52.508,335.89 L24.592,285.297 L111.694,283.45 L175.441,323.602"
       fill="#008AC4"
       id="path16628" />
    <path
       d="M175.084,327.072 L59.105,339.417 C58.683,339.462 58.377,339.84 58.422,340.263 C58.467,340.685 58.846,340.991 59.268,340.946 L175.247,328.601 C175.669,328.556 175.975,328.177 175.93,327.755 C175.885,327.333 175.507,327.027 175.084,327.072"
       fill="#8A8B8A"
       id="path16630" />
    <path
       d="M174.82,331.317 L58.83,343.666 C58.408,343.711 58.102,344.09 58.147,344.512 C58.192,344.935 58.57,345.24 58.993,345.195 L174.983,332.846 C175.405,332.801 175.711,332.422 175.666,332 C175.621,331.578 175.242,331.272 174.82,331.317"
       fill="#8A8B8A"
       id="path16632" />
    <path
       d="M174.431,337.497 L58.446,349.841 C58.024,349.886 57.718,350.265 57.763,350.687 C57.808,351.109 58.187,351.415 58.609,351.37 L174.594,339.026 C175.016,338.981 175.322,338.602 175.277,338.18 C175.232,337.758 174.853,337.452 174.431,337.497"
       fill="#8A8B8A"
       id="path16634" />
    <path
       d="M0.955,302.784 L95.458,319.97 C99.012,325.699 97.839,335.241 94.985,339.06 L0.955,321.879 L0.955,302.784"
       fill="#FFFFFE"
       id="path16636" />
    <path
       d="M176.121,281.478 C180.889,287.684 178.025,295.799 178.025,295.799 L94.985,339.06 C97.839,335.241 99.012,325.699 95.458,319.97 L176.121,281.478"
       fill="#AFB4A5"
       id="path16638" />
    <path
       d="M176.121,281.478 L95.458,319.97 L0.955,302.784 L94.031,274.322 L176.121,281.478"
       fill="#81857A"
       id="path16640" />
    <path
       d="M0.818,308.314 L90.069,324.545 C90.487,324.621 90.887,324.344 90.963,323.926 C91.039,323.509 90.762,323.109 90.344,323.033 L1.093,306.801 C0.675,306.725 0.275,307.002 0.199,307.42 C0.123,307.838 0.4,308.238 0.818,308.314"
       fill="#8A8B8A"
       id="path16642" />
    <path
       d="M0.818,314.997 L90.069,331.229 C90.487,331.305 90.887,331.028 90.963,330.61 C91.039,330.192 90.762,329.792 90.344,329.716 L1.093,313.485 C0.675,313.409 0.275,313.686 0.199,314.103 C0.123,314.521 0.4,314.921 0.818,314.997"
       fill="#8A8B8A"
       id="path16644" />
    <path
       d="M0.818,317.789 L90.069,334.02 C90.487,334.096 90.887,333.819 90.963,333.402 C91.039,332.984 90.762,332.584 90.344,332.508 L1.093,316.276 C0.675,316.2 0.275,316.477 0.199,316.895 C0.123,317.313 0.4,317.713 0.818,317.789"
       fill="#8A8B8A"
       id="path16646" />
    <path
       d="M4.344,284.155 L4.344,295.135 L100.755,309.986 L100.755,298.477 L4.344,284.155"
       fill="#45A497"
       id="path16648" />
    <path
       d="M100.755,309.986 L169.001,288.929 L169.001,277.954 L100.755,298.477 L100.755,309.986"
       fill="#FFFFFE"
       id="path16650" />
    <path
       d="M169.001,277.954 L100.755,298.477 L4.344,284.155 L80.228,266.98 L169.001,277.954"
       fill="#337B70"
       id="path16652" />
    <path
       d="M99.324,296.09 L162.795,274.613 L162.795,265.548 L99.324,284.638 L99.324,296.09"
       fill="#008AC4"
       id="path16654" />
    <path
       d="M99.324,296.09 L7.208,279.869 L7.208,270.788 L99.324,284.638 L99.324,296.09"
       fill="#0073A2"
       id="path16656" />
    <path
       d="M7.208,270.788 L99.324,284.638 L162.795,265.548 L71.645,251.983 L7.208,270.788"
       fill="#006791"
       id="path16658" />
    <path
       d="M168.784,280.118 L104.803,299.006 C104.396,299.126 104.164,299.553 104.284,299.961 C104.404,300.368 104.832,300.601 105.239,300.48 L169.219,281.592 C169.626,281.472 169.859,281.044 169.739,280.637 C169.619,280.23 169.191,279.997 168.784,280.118"
       fill="#8A8B8A"
       id="path16660" />
    <path
       d="M168.784,284.134 L104.803,303.017 C104.396,303.137 104.164,303.565 104.284,303.972 C104.404,304.379 104.831,304.612 105.239,304.492 L169.219,285.609 C169.626,285.489 169.859,285.061 169.739,284.654 C169.619,284.247 169.191,284.014 168.784,284.134"
       fill="#8A8B8A"
       id="path16662" />
    <path
       d="M318.053,234.082 L310.97,240.088 C308.248,236.585 300.85,242.423 303.185,247.094 C303.185,247.094 285.671,265.392 278.278,272.005 C270.885,278.618 265.822,300.419 269.325,308.2 C272.828,315.981 280.221,325.709 306.688,326.489 L336.616,302.12 L318.053,234.082"
       fill="#F4B452"
       id="path16664" />
    <path
       d="M385.773,217.576 C385.773,217.576 404.619,218.474 419.852,221.776 C435.058,225.11 442.292,243.322 435.459,256.603 C428.645,269.875 431.072,268.005 432.34,278.573 C433.589,289.136 431.428,302.326 422.607,312.825 C413.604,323.497 420.144,352.094 420.144,352.094 C420.144,352.094 395.753,355.04 378.768,355.04 L377.235,355.04 C360.232,355.04 335.85,352.094 335.85,352.094 C335.85,352.094 342.399,323.497 333.387,312.825 C324.575,302.326 322.405,289.136 323.663,278.573 C324.94,268.005 327.349,269.875 320.525,256.603 C313.721,243.322 320.945,225.11 336.151,221.776 C351.385,218.474 370.202,217.576 370.202,217.576 L385.773,217.576"
       fill="#6880A1"
       id="path16666" />
    <path
       d="M345.93,232.982 C345.93,232.982 343.722,250.751 348.174,263.718 C352.607,276.671 368.46,275.544 379.196,281.104 L368.861,248.914 L345.93,232.982"
       fill="#EB9073"
       id="path16668" />
    <path
       d="M408.806,232.982 C408.806,232.982 411.013,250.751 406.571,263.718 C402.129,276.671 387.698,276.671 376.971,282.217 L385.874,248.914 L408.806,232.982"
       fill="#EB9073"
       id="path16670" />
    <path
       d="M373.997,286.276 C373.997,286.276 368.834,294.057 367.712,304.05 C366.6,314.029 370.294,319.589 377.336,326.617 C377.336,326.617 385.108,315.89 387.324,307.744 C389.541,299.603 383.995,292.205 382.161,284.064 L373.997,286.276"
       fill="#EB9073"
       id="path16672" />
    <path
       d="M366.672,278.664 L388.82,278.144 L387.698,288.497 L368.46,288.497 L366.672,278.664"
       fill="#7A97C1"
       id="path16674" />
    <path
       d="M338.814,219.678 C338.814,219.678 355.854,303.06 356.748,354.124 L332.028,354.124 C332.028,354.124 319.486,276.976 315.81,252.443 C312.115,227.897 331.244,220.846 338.814,219.678"
       fill="#F4B452"
       id="path16676" />
    <path
       d="M417.189,219.678 C417.189,219.678 400.149,303.06 399.246,354.124 L423.948,354.124 C423.948,354.124 436.527,276.976 440.212,252.443 C443.897,227.897 424.76,220.846 417.189,219.678"
       fill="#F4B452"
       id="path16678" />
    <path
       d="M369.783,207.925 L333.834,218.771 C333.834,218.771 340.986,247.431 378.011,266.655 L369.783,207.925"
       fill="#7A97C1"
       id="path16680" />
    <path
       d="M386.211,207.925 L424.185,216.331 C424.185,216.331 415.018,247.431 378.011,266.655 L386.211,207.925"
       fill="#7A97C1"
       id="path16682" />
    <path
       d="M386.182,194.817 C386.182,194.817 387.343,204.76 387.343,209.334 C387.343,213.936 390.794,216.253 395.134,216.933 C395.134,216.933 398.697,252.407 377.142,252.407 C355.571,252.407 359.118,216.933 359.118,216.933 C363.482,216.253 368.446,213.936 368.446,209.334 C368.446,204.76 369.615,194.817 369.615,194.817 L386.182,194.817"
       fill="#F6C395"
       id="path16684" />
    <path
       d="M356.547,227.035 L403.98,227.035 L378.011,266.655 L356.547,227.035"
       fill="#6880A1"
       id="path16686" />
    <path
       d="M358.884,214.001 C361.731,215.241 359.948,217.01 361.012,219.927 C362.077,222.845 362.244,222.784 363.309,225.702 C364.373,228.621 364.102,228.72 365.167,231.638 C366.232,234.557 366.475,234.468 367.539,237.386 C368.605,240.305 368.583,240.313 369.648,243.232 C370.713,246.15 370.361,246.278 371.426,249.196 C372.491,252.116 372.476,252.121 373.542,255.041 C374.608,257.963 374.814,257.888 375.881,260.81 C376.947,263.732 380.99,265.76 377.995,266.6 C374.64,267.541 375.593,264.144 373.226,261.587 C370.858,259.029 370.923,258.968 368.555,256.41 C366.189,253.854 366.341,253.713 363.974,251.157 C361.605,248.598 361.341,248.842 358.972,246.283 C356.602,243.723 356.739,243.595 354.369,241.035 C351.999,238.474 351.13,239.083 349.494,236.001 C348.109,233.391 348.916,233.071 348.386,230.165 C347.855,227.257 347.811,227.265 347.28,224.356 C346.749,221.448 344.734,220.947 346.333,218.461 C348.116,215.688 349.74,217.917 352.547,216.189 C355.57,214.328 355.862,212.684 358.884,214.001"
       fill="#7A97C1"
       id="path16688" />
    <path
       d="M397.175,214.109 L378.011,266.655 L406.443,235.952 L409.599,218.506 L397.175,214.109"
       fill="#7A97C1"
       id="path16690" />
    <path
       d="M421.85,200.176 C421.85,200.176 420.244,198.625 421.941,190.644 C423.656,182.667 423.273,177.467 419.797,174.366 C416.331,171.255 413.905,171.616 413.23,176.468 C412.564,181.326 411.898,190.685 408.815,198.324 C405.704,205.959 406.452,216.002 410.265,228.991 L433.142,214.866 L421.85,200.176"
       fill="#F6C395"
       id="path16692" />
    <path
       d="M417.143,201.412 C419.57,200.705 429.53,198.265 429.53,198.265 C429.53,198.265 435.742,182.206 442.538,174.37 C449.343,166.53 459.459,164.108 465.214,170.179 L449.78,207.236 L421.941,221.224 L417.143,201.412"
       fill="#F6C395"
       id="path16694" />
    <path
       d="M410.292,217.863 C408.395,227.591 411.446,239.107 416.842,250.451 L437.311,250.373 C431.382,228.453 429.129,225.074 429.129,225.074 C429.129,225.074 433.836,222.438 443.468,218.588 C453.082,214.748 461.237,205.799 461.885,197.494 C461.885,197.494 465.105,182.908 467.03,175.419 C468.973,167.931 458.939,168.227 456.64,174.261 C454.342,180.295 448.887,198.019 448.887,198.019 C448.887,198.019 443.797,203.141 432.714,203.651 C421.658,204.157 412.135,208.226 410.292,217.863"
       fill="#F9D8AE"
       id="path16696" />
    <path
       d="M411.323,241.726 C411.323,241.726 426.949,234.054 436.837,237.936 L443.295,256.238 C452.636,260.908 452.48,259.235 453.648,270.327 C454.816,281.419 460.809,302.941 462.56,315.785 C464.311,328.628 439.938,338.106 432.823,321.764 C424.085,301.706 415.273,279.28 413.522,274.609 C411.77,269.939 417.024,261.492 417.024,261.492 L411.323,241.726"
       fill="#F4B452"
       id="path16698" />
    <path
       d="M375.748,366.925 L484.499,369.935 L440.46,321.096 L379.214,323.493 L375.748,366.925"
       fill="#9B1D23"
       id="path16700" />
    <path
       d="M375.748,366.925 L266.997,369.935 L311.031,321.096 L372.276,323.493 L375.748,366.925"
       fill="#9B1D23"
       id="path16702" />
    <path
       d="M375.748,320.214 L375.748,355.234 C375.748,355.234 420.405,337.493 477.837,354.767 L441.887,317.412 C441.887,317.412 418.531,305.27 375.748,320.214"
       fill="#FFFFFE"
       id="path16704" />
    <path
       d="M375.748,366.925 C375.748,366.925 420.405,349.864 477.837,367.143 L477.837,354.767 C420.405,337.493 375.748,355.234 375.748,355.234 L375.748,366.925"
       fill="#FFFFFE"
       id="path16706" />
    <path
       d="M478.058,357.591 C459.172,351.906 441.66,349.994 426.648,349.994 C408.014,349.994 393.23,352.939 384.434,355.275 C384.024,355.384 383.779,355.805 383.888,356.216 C383.997,356.626 384.418,356.87 384.829,356.761 C393.522,354.452 408.176,351.531 426.648,351.531 C441.53,351.531 458.889,353.427 477.615,359.063 C478.022,359.185 478.45,358.955 478.573,358.549 C478.695,358.142 478.465,357.713 478.058,357.591"
       fill="#8A8B8A"
       id="path16708" />
    <path
       d="M478.058,361.81 C459.167,356.126 441.651,354.214 426.637,354.214 C408.008,354.214 393.229,357.156 384.434,359.488 C384.024,359.597 383.779,360.018 383.888,360.428 C383.997,360.839 384.418,361.083 384.828,360.974 C393.52,358.669 408.17,355.751 426.637,355.752 C441.521,355.752 458.884,357.646 477.615,363.282 C478.022,363.404 478.45,363.174 478.573,362.767 C478.695,362.361 478.465,361.932 478.058,361.81"
       fill="#8A8B8A"
       id="path16710" />
    <path
       d="M375.748,320.214 L375.748,355.234 C375.748,355.234 331.091,337.493 273.659,354.767 L309.614,317.412 C309.614,317.412 332.959,305.27 375.748,320.214"
       fill="#E0DAD3"
       id="path16712" />
    <path
       d="M298.12,294.149 C288.805,294.508 276.866,306.105 274.874,318.06 C272.881,330.016 281.907,338.666 293.999,339.986 C306.091,341.307 313.653,336.717 317.382,325.366 C321.111,314.016 315.389,293.485 298.12,294.149"
       fill="#F9D8AE"
       id="path16714" />
    <path
       d="M375.748,320.214 L375.748,355.234 C375.748,355.234 337.038,319.155 279.6,336.435 L315.566,299.074 C315.566,299.074 348.796,292.671 375.748,320.214"
       fill="#FFFFFE"
       id="path16716" />
    <path
       d="M375.748,366.925 C375.748,366.925 331.091,349.864 273.659,367.143 L273.659,354.767 C331.091,337.493 375.748,355.234 375.748,355.234 L375.748,366.925"
       fill="#FFFFFE"
       id="path16718" />
    <path
       d="M273.881,359.063 C292.609,353.427 309.969,351.531 324.851,351.531 C343.322,351.531 357.974,354.452 366.662,356.761 C367.072,356.87 367.493,356.626 367.602,356.216 C367.711,355.805 367.467,355.384 367.056,355.275 C358.265,352.939 343.485,349.994 324.851,349.994 C309.839,349.994 292.326,351.906 273.438,357.591 C273.031,357.713 272.801,358.142 272.923,358.549 C273.046,358.955 273.474,359.186 273.881,359.063"
       fill="#8A8B8A"
       id="path16720" />
    <path
       d="M273.881,363.282 C292.614,357.646 309.978,355.752 324.862,355.752 C343.329,355.751 357.976,358.669 366.662,360.974 C367.072,361.083 367.493,360.839 367.602,360.429 C367.711,360.018 367.467,359.597 367.056,359.488 C358.267,357.156 343.491,354.214 324.862,354.214 C309.848,354.214 292.331,356.126 273.438,361.81 C273.031,361.932 272.801,362.361 272.923,362.767 C273.045,363.174 273.474,363.404 273.881,363.282"
       fill="#8A8B8A"
       id="path16722" />
    <path
       d="M260.141,336.487 C258.938,344.114 253.292,349.838 247.9,348.977 C243.215,348.224 239.915,342.724 239.915,336.326 C239.915,335.324 239.997,334.318 240.164,333.29 C241.388,325.657 246.982,319.933 252.41,320.795 C254.983,321.215 256.732,322.943 257.723,324.323 C259.975,327.411 260.868,331.967 260.141,336.487 z M264.951,319.067 C262.139,315.191 258.18,312.679 253.831,311.963 C243.433,310.303 233.361,319.238 231.342,331.879 C229.329,344.524 236.095,356.153 246.484,357.808 C256.862,359.469 266.944,350.538 268.968,337.903 C270.073,330.981 268.62,324.126 264.951,319.067"
       fill="#EA9098"
       id="path16724" />
    <path
       d="M218.764,294.975 C199.487,294.975 183.811,301.035 182.877,308.647 L183.427,312.077 C186.623,318.719 201.236,323.763 218.764,323.763 C236.303,323.763 250.884,318.719 254.08,312.077 L254.636,308.647 C253.665,301.035 238.005,294.975 218.764,294.975"
       fill="#BF7880"
       id="path16726" />
    <path
       d="M218.764,309.151 C201.179,309.151 186.873,314.687 186.021,321.635 L186.551,324.764 C189.457,330.82 202.751,335.423 218.764,335.423 C234.777,335.423 248.087,330.82 250.951,324.764 L251.486,321.635 C250.619,314.687 236.334,309.151 218.764,309.151"
       fill="#FFFFFE"
       id="path16728" />
    <path
       d="M218.764,323.763 C201.236,323.763 186.623,318.719 183.427,312.077 L190.909,356.874 C190.909,364.819 203.373,371.263 218.764,371.263 C234.149,371.263 246.629,364.819 246.629,356.874 L254.08,312.077 C250.884,318.719 236.303,323.763 218.764,323.763"
       fill="#EA9098"
       id="path16730" />
    <g
       clip-path="url(#Clip_2)"
       id="g16738">
      <path
         d="M313.304,301.424 C313.304,301.424 312.523,313.675 313.621,319.012 C314.719,324.348 311.169,327.952 304.966,322.241 C298.762,316.53 300.777,305.662 300.777,305.662"
         fill="#F9D8AE"
         id="path16732" />
      <path
         d="M279.066,79.286 C283.211,30.952 334.62,-4.112 393.89,0.971 C453.159,6.053 497.839,49.355 493.695,97.69 C489.55,146.025 438.15,181.09 378.881,176.007 C319.611,170.925 274.921,127.621 279.066,79.286"
         fill="#624B47"
         id="path16734" />
      <path
         d="M483.576,119.733 C491.328,109.507 507.274,114.979 510.126,129.582 C512.982,144.196 491.247,166.263 468.305,154.724 L483.576,119.733"
         fill="#F6C395"
         id="path16736" />
    </g>
    <path
       d="M285.744,102.769 C279.847,91.374 263.202,94.051 257.905,107.955 C252.603,121.869 270.264,147.315 294.835,139.849 L285.744,102.769"
       fill="#F6C395"
       id="path16740" />
    <path
       d="M376.72,203.886 C436.248,208.99 486.628,188.483 492.273,122.648 C496.558,72.674 452.1,24.115 392.572,19.01 C333.045,13.906 280.978,54.189 276.693,104.163 C271.048,169.998 317.192,198.781 376.72,203.886"
       fill="#F9D8AE"
       id="path16742" />
    <path
       d="M443.427,140.32 C444.075,132.766 439.43,126.197 433.071,125.652 C426.702,125.105 421.027,130.79 420.379,138.343 C419.731,145.897 424.355,152.47 430.725,153.016 C437.084,153.562 442.779,147.873 443.427,140.32"
       fill="#1A1919"
       id="path16744" />
    <path
       d="M373.303,135.344 L373.289,135.371 C373.134,135.684 371.66,138.643 369.507,142.415 C367.359,146.184 364.513,150.779 361.715,154.283 L359.881,156.583 L362.102,158.511 C362.204,158.597 364.085,160.226 367.093,161.972 C370.105,163.709 374.247,165.604 379.008,166.023 C380.695,166.168 382.18,164.918 382.325,163.23 C382.47,161.543 381.219,160.058 379.532,159.913 C376.134,159.633 372.698,158.141 370.17,156.666 C368.905,155.933 367.866,155.215 367.158,154.69 C366.804,154.428 366.532,154.214 366.356,154.072 L366.163,153.913 L366.123,153.88 L366.122,153.879 L364.112,156.195 L366.51,158.107 C369.748,154.041 372.78,149.071 375.048,145.078 C377.31,141.089 378.787,138.09 378.805,138.053 C379.553,136.533 378.927,134.695 377.408,133.947 C375.889,133.199 374.051,133.825 373.303,135.344"
       fill="#F3B991"
       id="path16746" />
    <path
       d="M378.051,185.086 C379.083,185.174 380.176,185.221 381.315,185.221 C385.275,185.218 389.8,184.668 394.17,183.264 C398.528,181.855 402.778,179.584 405.936,175.955 C407.045,174.675 406.907,172.739 405.628,171.629 C404.348,170.52 402.411,170.658 401.302,171.938 C399.153,174.428 395.922,176.261 392.29,177.427 C388.67,178.596 384.696,179.091 381.315,179.088 C380.344,179.088 379.421,179.048 378.574,178.976 C376.887,178.831 375.402,180.081 375.257,181.769 C375.113,183.456 376.363,184.941 378.051,185.086"
       fill="#E77C56"
       id="path16748" />
    <path
       d="M447.079,182.39 C446.387,182.39 445.683,182.36 444.973,182.299 C435.43,181.481 428.165,175.337 428.745,168.575 C429.281,162.32 436.351,157.723 444.969,157.723 C445.661,157.723 446.363,157.753 447.073,157.814 C456.617,158.632 463.881,164.781 463.302,171.538 C462.765,177.797 455.696,182.39 447.079,182.39 z"
       fill="#EFA496"
       id="path16750"
       style="fill-opacity:1;fill:url(#radialGradient17328)" />
    <path
       d="M321.249,129.843 C321.897,122.29 327.582,116.606 333.952,117.152 C340.31,117.698 344.935,124.265 344.287,131.819 C343.639,139.372 337.964,145.062 331.605,144.517 C325.235,143.971 320.601,137.397 321.249,129.843"
       fill="#1A1919"
       id="path16752" />
    <path
       d="M378.574,178.976 C375.199,178.691 370.776,177.669 366.796,175.839 C364.804,174.926 362.919,173.816 361.303,172.53 C359.685,171.242 358.341,169.785 357.366,168.17 C356.491,166.72 354.606,166.255 353.156,167.13 C351.707,168.005 351.241,169.89 352.116,171.34 C353.536,173.691 355.401,175.671 357.484,177.328 C360.612,179.814 364.233,181.597 367.822,182.851 C371.414,184.102 374.973,184.82 378.051,185.086 C379.738,185.231 381.223,183.98 381.368,182.293 C381.512,180.605 380.262,179.12 378.575,178.976"
       fill="#E77C56"
       id="path16754" />
    <path
       d="M314.679,171.036 C313.984,171.036 313.281,171.007 312.569,170.946 C303.025,170.127 295.771,163.985 296.35,157.222 C296.887,150.968 303.948,146.37 312.565,146.37 C313.257,146.37 313.959,146.399 314.668,146.46 C324.222,147.28 331.486,153.429 330.907,160.185 C330.37,166.444 323.302,171.036 314.679,171.036 z"
       fill="#EFA496"
       id="path16756"
       style="fill-opacity:1;fill:url(#radialGradient17320)" />
    <path
       d="M467.289,72.68 C467.289,72.68 471.332,88.45 472.619,103.575 C480.845,107.361 488.674,111.543 496.023,116.089 C494.844,65.21 450.951,18.324 393.057,13.359 C335.163,8.395 283.928,47.124 274.105,97.056 C281.97,93.894 290.224,91.165 298.791,88.86 C302.628,74.117 309.344,59.137 309.344,59.137 C306.273,70.172 305.182,79.979 304.881,87.385 C313.091,85.409 321.555,83.818 330.266,82.685 C333.575,66.394 342.138,47.309 342.138,47.309 C338.088,61.862 337.459,74.299 337.587,81.859 C345.84,81.026 354.272,80.6 362.858,80.566 C365.693,63.778 375.21,42.562 375.21,42.562 C370.454,59.637 370.411,73.805 370.773,80.575 C376.209,80.713 381.685,80.99 387.217,81.464 C392.584,81.925 397.884,82.551 403.12,83.31 C404.631,76.687 406.989,62.734 405.212,45.134 C405.212,45.134 410.965,67.626 410.912,84.647 C419.367,86.127 427.616,87.962 435.614,90.173 C437.022,82.738 438.501,70.412 436.993,55.443 C436.993,55.443 442.162,75.629 442.666,92.226 C451.059,94.813 459.135,97.802 466.901,101.132 C467.858,93.798 468.432,84.001 467.289,72.68"
       fill="#6F5751"
       id="path16758" />
    <path
       d="M420.154,89.949 C423.311,87.66 426.571,86.689 429.671,86.686 C436.313,86.683 442.338,91.237 444.242,98.027 C444.547,99.114 445.675,99.749 446.763,99.444 C447.85,99.139 448.484,98.011 448.179,96.924 C445.796,88.418 438.202,82.6 429.671,82.597 C425.701,82.594 421.553,83.875 417.751,86.641 C416.838,87.304 416.635,88.583 417.299,89.496 C417.962,90.41 419.241,90.612 420.154,89.949"
       fill="#1A1919"
       id="path16760" />
    <path
       d="M355.684,81.319 C351.522,77.027 346.396,75.024 341.45,75.032 C334.151,75.034 327.269,79.302 323.949,86.271 C323.464,87.291 323.897,88.51 324.916,88.996 C325.936,89.481 327.155,89.048 327.641,88.029 C330.288,82.466 335.753,79.12 341.45,79.121 C345.312,79.13 349.293,80.625 352.753,84.169 C353.54,84.979 354.834,84.997 355.644,84.209 C356.453,83.422 356.471,82.128 355.684,81.319"
       fill="#1A1919"
       id="path16762" />
  </g>
</svg>
