<svg xmlns="http://www.w3.org/2000/svg" viewBox="0 0 500 500"><g id="freepik--Floor--inject-15"><ellipse id="freepik--floor--inject-15" cx="252.29" cy="359.72" rx="230.07" ry="132.83" style="fill:#fafafa"></ellipse></g><g id="freepik--Plants--inject-15"><g id="freepik--plants--inject-15"><path d="M465.55,378.3a49.5,49.5,0,0,0-4.31,6.69c-2.41,4.5-7.49,21.26-8.86,26.14l0,0h-.91v0c.77-5.17,6.5-22.44,9.1-26.94a55.39,55.39,0,0,1,4.33-6.41,27.7,27.7,0,0,1,5.76-5.93c.16-.11.21.26.14.35C469.09,374.26,467.18,376.16,465.55,378.3Z" style="fill:#BA68C8"></path><path d="M467.26,375.92a13,13,0,0,0,8.78-6.71c2.82-4.81,5.79-8.81,5.73-10.08s-6.71,2-10.89,6.22S466.82,372.83,467.26,375.92Z" style="fill:#BA68C8"></path><path d="M468.09,380.46c-.16-1,2.16-2.93,6.69-3.91s10.53-.52,10.84.11-5.35,4.14-10.18,4.64S468.23,381.36,468.09,380.46Z" style="fill:#BA68C8"></path><path d="M457.75,358.17c.76-.31,4.34,6.45,4.55,12,.18,4.85-.32,7.51-1.14,8.19a1.33,1.33,0,0,0,0,.19,13.77,13.77,0,0,1,.22,2.64,9,9,0,0,1-1.25,5.07c-.06.09-.13-.06-.12-.11.13-1.57.47-3.11.5-4.69a18.89,18.89,0,0,0-.19-3c-1.16-.46-2.88-3.2-3.58-7.9C456,365.34,457,358.48,457.75,358.17Z" style="fill:#BA68C8"></path><path d="M460.16,391.08c-.26-.94,1.87-3.13,6.27-4.55s10.43-1.55,10.8-.94-4.91,4.64-9.67,5.61S460.39,392,460.16,391.08Z" style="fill:#BA68C8"></path><path d="M461.47,382.8a3.13,3.13,0,0,1,1.49-1.26,12.86,12.86,0,0,1,2.19-.84,22.78,22.78,0,0,1,4.93-.75c.18,0,.23.38.07.43-1.53.47-3.09.78-4.64,1.19a12.79,12.79,0,0,0-2.1.75c-.31.15-.63.31-.93.49s-.6.43-.91.37C461.44,383.15,461.43,382.89,461.47,382.8Z" style="fill:#BA68C8"></path><path d="M459.49,390.74a10.24,10.24,0,0,1,1.79-.62,6.84,6.84,0,0,1,1.86-.19c.15,0,.2.3.05.35-1.13.35-2.25.76-3.34,1.22a11.72,11.72,0,0,0-1.49.78,2.57,2.57,0,0,0-1,1c-.19.33-.57.27-.54-.14C457,391.87,458.55,391.18,459.49,390.74Z" style="fill:#BA68C8"></path><path d="M456,396.91l-.74.48c-1.39-.43-4.45-4-5.75-8.24-1.53-5-1-9.39-.51-9.9s4.93,4,6.5,9.72A17.6,17.6,0,0,1,456,396.91Z" style="fill:#BA68C8"></path><g style="opacity:0.65"><path d="M465.55,378.3a49.5,49.5,0,0,0-4.31,6.69c-2.41,4.5-7.49,21.26-8.86,26.14l0,0h-.91v0c.77-5.17,6.5-22.44,9.1-26.94a55.39,55.39,0,0,1,4.33-6.41,27.7,27.7,0,0,1,5.76-5.93c.16-.11.21.26.14.35C469.09,374.26,467.18,376.16,465.55,378.3Z" style="fill:#fff"></path><path d="M467.26,375.92a13,13,0,0,0,8.78-6.71c2.82-4.81,5.79-8.81,5.73-10.08s-6.71,2-10.89,6.22S466.82,372.83,467.26,375.92Z" style="fill:#fff"></path><path d="M468.09,380.46c-.16-1,2.16-2.93,6.69-3.91s10.53-.52,10.84.11-5.35,4.14-10.18,4.64S468.23,381.36,468.09,380.46Z" style="fill:#fff"></path><path d="M457.75,358.17c.76-.31,4.34,6.45,4.55,12,.18,4.85-.32,7.51-1.14,8.19a1.33,1.33,0,0,0,0,.19,13.77,13.77,0,0,1,.22,2.64,9,9,0,0,1-1.25,5.07c-.06.09-.13-.06-.12-.11.13-1.57.47-3.11.5-4.69a18.89,18.89,0,0,0-.19-3c-1.16-.46-2.88-3.2-3.58-7.9C456,365.34,457,358.48,457.75,358.17Z" style="fill:#fff"></path><path d="M460.16,391.08c-.26-.94,1.87-3.13,6.27-4.55s10.43-1.55,10.8-.94-4.91,4.64-9.67,5.61S460.39,392,460.16,391.08Z" style="fill:#fff"></path><path d="M461.47,382.8a3.13,3.13,0,0,1,1.49-1.26,12.86,12.86,0,0,1,2.19-.84,22.78,22.78,0,0,1,4.93-.75c.18,0,.23.38.07.43-1.53.47-3.09.78-4.64,1.19a12.79,12.79,0,0,0-2.1.75c-.31.15-.63.31-.93.49s-.6.43-.91.37C461.44,383.15,461.43,382.89,461.47,382.8Z" style="fill:#fff"></path><path d="M459.49,390.74a10.24,10.24,0,0,1,1.79-.62,6.84,6.84,0,0,1,1.86-.19c.15,0,.2.3.05.35-1.13.35-2.25.76-3.34,1.22a11.72,11.72,0,0,0-1.49.78,2.57,2.57,0,0,0-1,1c-.19.33-.57.27-.54-.14C457,391.87,458.55,391.18,459.49,390.74Z" style="fill:#fff"></path><path d="M456,396.91l-.74.48c-1.39-.43-4.45-4-5.75-8.24-1.53-5-1-9.39-.51-9.9s4.93,4,6.5,9.72A17.6,17.6,0,0,1,456,396.91Z" style="fill:#fff"></path></g><path d="M472.05,404.42a10.09,10.09,0,0,0,8.58.18c4-1.55,7.79-2.54,8.36-3.34s-5-2.05-9.62-1.51S473.27,402.33,472.05,404.42Z" style="fill:#BA68C8"></path><path d="M467.18,403.75c-.77-.29.67-3.92,3.35-6.27s5.61-3.23,6.05-3.09-2.08,5.11-4.26,6.83S467.68,403.94,467.18,403.75Z" style="fill:#BA68C8"></path><path d="M459.37,406.67c-.92-.14-.14-4.47,2.29-7.69s5.5-4.86,6-4.81-1.16,6.12-3.19,8.51S460,406.76,459.37,406.67Z" style="fill:#BA68C8"></path><path d="M463.42,408.37c0-.93,4.36-1,8,.73s5.85,4.43,5.9,4.95-4.87.7-9-1.44C465.56,411.15,463.45,409,463.42,408.37Z" style="fill:#BA68C8"></path><path d="M475.31,403.85a55.34,55.34,0,0,0-10.64,2l.44-.28a18.5,18.5,0,0,0,2.1-1.64,5.84,5.84,0,0,0,1.68-2c.05-.14-.15-.13-.22-.09a15.9,15.9,0,0,0-2.23,1.71c-.64.5-1.31,1-2,1.42-.93.63-1.92,1.17-2.91,1.72-1,.3-1.94.61-2.9.95a9.69,9.69,0,0,0,1.29-1.43c.2-.29.4-.59.58-.89a1.87,1.87,0,0,0,.36-.8c0-.15-.22-.1-.29-.05a9,9,0,0,0-1.27,1.41,18.53,18.53,0,0,1-1.32,1.34,12.22,12.22,0,0,1-1.57,1.19l-.55.29c-.85.37-2.76,1.25-4.09,1.87v1.07c1.31-.7,2.65-1.34,4-1.91s2.89-1.19,3.81-1.51c.61,0,1.22,0,1.83,0a12.11,12.11,0,0,1,2,.21c.75.14,1.46.4,2.19.56.12,0,.43-.12.26-.25a5.76,5.76,0,0,0-2.07-.88,11.14,11.14,0,0,0-2.07-.32c.71-.23,1.42-.45,2.14-.66,3.78-1.06,7.69-1.68,11.44-2.85C475.49,404,475.49,403.83,475.31,403.85Z" style="fill:#BA68C8"></path></g><g id="freepik--plants--inject-15"><path d="M39.1,378.3A49.5,49.5,0,0,1,43.41,385c2.42,4.5,7.49,21.26,8.87,26.14a0,0,0,0,0,0,0h.91v0c-.76-5.17-6.5-22.44-9.1-26.94a55.39,55.39,0,0,0-4.33-6.41A27.7,27.7,0,0,0,34,371.83c-.16-.11-.2.26-.13.35C35.57,374.26,37.47,376.16,39.1,378.3Z" style="fill:#BA68C8"></path><path d="M37.39,375.92a13,13,0,0,1-8.78-6.71c-2.82-4.81-5.79-8.81-5.73-10.08s6.71,2,10.89,6.22S37.83,372.83,37.39,375.92Z" style="fill:#BA68C8"></path><path d="M36.57,380.46c.16-1-2.17-2.93-6.69-3.91S19.34,376,19,376.66s5.35,4.14,10.18,4.64S36.42,381.36,36.57,380.46Z" style="fill:#BA68C8"></path><path d="M46.9,358.17c-.75-.31-4.34,6.45-4.55,12-.18,4.85.32,7.51,1.14,8.19,0,.06,0,.13,0,.19a13,13,0,0,0-.23,2.64,9,9,0,0,0,1.25,5.07c.06.09.13-.06.12-.11-.13-1.57-.47-3.11-.5-4.69a20.15,20.15,0,0,1,.19-3c1.16-.46,2.88-3.2,3.58-7.9C48.64,365.34,47.65,358.48,46.9,358.17Z" style="fill:#BA68C8"></path><path d="M44.49,391.08c.26-.94-1.87-3.13-6.27-4.55s-10.43-1.55-10.8-.94,4.91,4.64,9.67,5.61S44.26,392,44.49,391.08Z" style="fill:#BA68C8"></path><path d="M43.18,382.8a3.1,3.1,0,0,0-1.48-1.26,13,13,0,0,0-2.2-.84,22.78,22.78,0,0,0-4.93-.75c-.18,0-.23.38-.07.43,1.53.47,3.1.78,4.64,1.19a12.79,12.79,0,0,1,2.1.75c.31.15.63.31.93.49s.6.43.91.37C43.22,383.15,43.22,382.89,43.18,382.8Z" style="fill:#BA68C8"></path><path d="M45.16,390.74a10.24,10.24,0,0,0-1.79-.62,6.8,6.8,0,0,0-1.86-.19c-.15,0-.19.3,0,.35a35,35,0,0,1,3.34,1.22,11.84,11.84,0,0,1,1.5.78,2.55,2.55,0,0,1,1,1c.19.33.57.27.54-.14C47.7,391.87,46.11,391.18,45.16,390.74Z" style="fill:#BA68C8"></path><path d="M48.65,396.91l.74.48c1.39-.43,4.45-4,5.75-8.24,1.53-5,1-9.39.51-9.9s-4.93,4-6.49,9.72A17.5,17.5,0,0,0,48.65,396.91Z" style="fill:#BA68C8"></path><g style="opacity:0.65"><path d="M39.1,378.3A49.5,49.5,0,0,1,43.41,385c2.42,4.5,7.49,21.26,8.87,26.14a0,0,0,0,0,0,0h.91v0c-.76-5.17-6.5-22.44-9.1-26.94a55.39,55.39,0,0,0-4.33-6.41A27.7,27.7,0,0,0,34,371.83c-.16-.11-.2.26-.13.35C35.57,374.26,37.47,376.16,39.1,378.3Z" style="fill:#fff"></path><path d="M37.39,375.92a13,13,0,0,1-8.78-6.71c-2.82-4.81-5.79-8.81-5.73-10.08s6.71,2,10.89,6.22S37.83,372.83,37.39,375.92Z" style="fill:#fff"></path><path d="M36.57,380.46c.16-1-2.17-2.93-6.69-3.91S19.34,376,19,376.66s5.35,4.14,10.18,4.64S36.42,381.36,36.57,380.46Z" style="fill:#fff"></path><path d="M46.9,358.17c-.75-.31-4.34,6.45-4.55,12-.18,4.85.32,7.51,1.14,8.19,0,.06,0,.13,0,.19a13,13,0,0,0-.23,2.64,9,9,0,0,0,1.25,5.07c.06.09.13-.06.12-.11-.13-1.57-.47-3.11-.5-4.69a20.15,20.15,0,0,1,.19-3c1.16-.46,2.88-3.2,3.58-7.9C48.64,365.34,47.65,358.48,46.9,358.17Z" style="fill:#fff"></path><path d="M44.49,391.08c.26-.94-1.87-3.13-6.27-4.55s-10.43-1.55-10.8-.94,4.91,4.64,9.67,5.61S44.26,392,44.49,391.08Z" style="fill:#fff"></path><path d="M43.18,382.8a3.1,3.1,0,0,0-1.48-1.26,13,13,0,0,0-2.2-.84,22.78,22.78,0,0,0-4.93-.75c-.18,0-.23.38-.07.43,1.53.47,3.1.78,4.64,1.19a12.79,12.79,0,0,1,2.1.75c.31.15.63.31.93.49s.6.43.91.37C43.22,383.15,43.22,382.89,43.18,382.8Z" style="fill:#fff"></path><path d="M45.16,390.74a10.24,10.24,0,0,0-1.79-.62,6.8,6.8,0,0,0-1.86-.19c-.15,0-.19.3,0,.35a35,35,0,0,1,3.34,1.22,11.84,11.84,0,0,1,1.5.78,2.55,2.55,0,0,1,1,1c.19.33.57.27.54-.14C47.7,391.87,46.11,391.18,45.16,390.74Z" style="fill:#fff"></path><path d="M48.65,396.91l.74.48c1.39-.43,4.45-4,5.75-8.24,1.53-5,1-9.39.51-9.9s-4.93,4-6.49,9.72A17.5,17.5,0,0,0,48.65,396.91Z" style="fill:#fff"></path></g><path d="M32.61,404.42a10.1,10.1,0,0,1-8.58.18c-4.05-1.55-7.8-2.54-8.37-3.34s5-2.05,9.62-1.51S31.38,402.33,32.61,404.42Z" style="fill:#BA68C8"></path><path d="M37.47,403.75c.77-.29-.67-3.92-3.35-6.27s-5.61-3.23-6-3.09,2.08,5.11,4.26,6.83S37,403.94,37.47,403.75Z" style="fill:#BA68C8"></path><path d="M45.28,406.67c.93-.14.15-4.47-2.29-7.69s-5.5-4.86-6-4.81,1.16,6.12,3.19,8.51S44.69,406.76,45.28,406.67Z" style="fill:#BA68C8"></path><path d="M41.23,408.37c.05-.93-4.36-1-8,.73s-5.85,4.43-5.9,4.95,4.87.7,9-1.44C39.09,411.15,41.2,409,41.23,408.37Z" style="fill:#BA68C8"></path><path d="M29.34,403.85a55.34,55.34,0,0,1,10.64,2l-.44-.28A18.4,18.4,0,0,1,37.45,404a5.76,5.76,0,0,1-1.69-2c0-.14.15-.13.22-.09a15.34,15.34,0,0,1,2.23,1.71c.64.5,1.31,1,2,1.42.94.63,1.93,1.17,2.91,1.72,1,.3,1.94.61,2.9.95a9.69,9.69,0,0,1-1.29-1.43c-.2-.29-.4-.59-.58-.89a1.87,1.87,0,0,1-.36-.8c0-.15.22-.1.29-.05a9,9,0,0,1,1.27,1.41c.43.46.85.92,1.32,1.34a13,13,0,0,0,1.57,1.19l.55.29c.86.37,2.77,1.25,4.09,1.87v1.07c-1.31-.7-2.65-1.34-4-1.91S46,408.6,45,408.28c-.61,0-1.22,0-1.83,0a12.11,12.11,0,0,0-2,.21c-.74.14-1.45.4-2.19.56-.11,0-.43-.12-.25-.25a5.62,5.62,0,0,1,2.07-.88,11,11,0,0,1,2.06-.32c-.71-.23-1.42-.45-2.14-.66-3.78-1.06-7.68-1.68-11.43-2.85C29.16,404,29.16,403.83,29.34,403.85Z" style="fill:#BA68C8"></path></g></g><g id="freepik--Shadows--inject-15"><ellipse id="freepik--Shadow--inject-15" cx="250.41" cy="413.68" rx="70.1" ry="40.47" style="fill:#e0e0e0"></ellipse><ellipse id="freepik--shadow--inject-15" cx="408.47" cy="437.53" rx="64.67" ry="37.34" style="fill:#e0e0e0"></ellipse><ellipse id="freepik--shadow--inject-15" cx="94.08" cy="437.53" rx="64.67" ry="37.34" style="fill:#e0e0e0"></ellipse></g><g id="freepik--character-3--inject-15"><g id="freepik--Character--inject-15"><g id="freepik--Bottom--inject-15"><path d="M449.42,375.84c-4-1.42-6-1.57-8.68-5-3.11-4-10.82-16.12-16.39-24.2S406.1,329.47,402,326.68c3.92-12.37,7-31.54,7-31.54l-9.65-23.24-15.13-15.16s-4.49,9.31-8.52,29.09C371,309,371,311.56,370.26,326.54c-.38,8.31,3.59,11.94,15.83,21.59,13.15,10.38,22.05,17.45,34.42,27.45,5.39,4.35,8.89,7.11,11.67,11.12,1.89,2.71,2.72,7.19,2.95,11s.23,5.75.13,10.26c-.08,3.82-.67,5-1.11,8.33-.29,2.15,1.92,3.94,5.46,3.28,5.23-1,7.95-2.62,9.66-4.86,2.5-3.28,2.55-6.07,2.43-9.07-.16-4.27-.82-4.26-.42-10.67a40.91,40.91,0,0,1,1.37-8.7C454.14,381.1,453.56,377.29,449.42,375.84Z" style="fill:#ffbda7"></path><path d="M443.22,373.28l1.29.77s1.35,2.69,1.26,8.64c-.08,4.79.09,10.23.21,16.41.09,4.4-.21,7-4.11,8.85-4.11,2-6.61.29-6.61.29s-.79,4.36-1.31,7.8,2.43,4.92,6.76,4c5.13-1.1,8.77-3.16,10.73-8.7,1.55-4.39.1-10.3.11-13.21a46.14,46.14,0,0,1,1.35-11.07c1-3.87,1.69-7.41-.36-9.57s-3.66-2.29-5.65-3.09S443.83,372.67,443.22,373.28Z" style="fill:#263238"></path><path d="M403.38,326.4l27.15-70.77-48.27.66s-3.53,11.31-6.57,26.49c-2.68,13.38-4.95,26.65-4.95,26.65-1.33,12.05-2.92,20.77,1.52,26.82s14.24,13.15,22.61,19.62,28.21,22.18,28.21,22.18,4.28-.72,9-5.21,5.12-7.53,5.12-7.53-6-9.86-10.18-16.72S412.5,331,403.38,326.4" style="fill:#455a64"></path><path d="M403.38,326.4l5.28-13.78-3-6L394.81,290s-9.07-2.08-12.49-13.16c-.83,8.95,7.38,15.25,7.38,15.25l-10.85,51c4.75,4.21,10.67,8.6,16,12.74,4.28,3.31,11.57,9,17.67,13.85a37,37,0,0,0-.52-12.85l9-16.05C416.07,335.28,409.46,329.49,403.38,326.4Z" style="fill:#37474f"></path><path d="M374.3,449.75c3.37-3.3,6.26-5.38,8.18-7.65,5.31-6.28,8.08-10,6.58-21.25-.54-4.06-1.1-6.65-2.37-14.33-1.34-8-4.07-22.72-6.18-34-3.61-19.33-2.33-20.3.83-33.1,4.64-18.85,8.59-29.56,14.28-49.76-12.39-8.76-12.41-18.41-10.48-32.59,7.14,3,15.72,3.46,23.22,3.58s15,.15,22.07-2.31c13.09,27.56,9.5,32.07-3,59.74-6.16,13.65-20.91,39.08-20.91,39.08,2.25,11.89,2.52,17.81,1.42,30.87-.6,7.15-2.15,20.89-1.84,30.22a14.7,14.7,0,0,0,2.56,8.6c2.66,4.21,3.36,7.19,2.11,9.49-1.51,2.8-4.44,3.62-7.09,6.41-4.7,5-5.86,10.83-13.86,13.93C380.52,460.33,367.12,456.79,374.3,449.75Z" style="fill:#ffbda7"></path><path d="M378.07,446.3c-.79,1.94,5.42,5.4,11.63,2.21s10.12-9.09,12.82-11.47,7-8,6.16-10.16l-.48-.79s.26-.52,1.64,1.85,3.37,6,1.24,9.1-4.67,3.69-7.38,6.4-4.8,7.79-8.69,10.95-10.55,5-16.67,3.76-6.44-3.74-6.32-5.23C372.2,450.67,374.83,448.64,378.07,446.3Z" style="fill:#263238"></path><path d="M389.55,309l5.26-19s-18.28-6.14-10.6-33.29l49.64.28s4,11,5.19,18.58c1,6.27,1.63,11.22-1,20.17s-10.85,24.44-10.85,24.44c-7.54,15.32-19.75,36.66-19.75,36.66a96.28,96.28,0,0,1,1.72,21.18c-.49,10.72-2.57,35.67-2.57,35.67A20.78,20.78,0,0,1,388,416.09c-4-20-8.25-44.19-9.56-51.12s-1.62-10.08.76-19.71C381.7,335.22,389.55,309,389.55,309Z" style="fill:#455a64"></path></g><g id="freepik--Top--inject-15"><path d="M397.62,198c-5.13.58-7.25.66-12.15,3.72s-28.89,39.48-28.89,39.48a13.3,13.3,0,0,0,9.46,1.18c5.71-1.24,17-8.64,17-8.64Z" style="fill:#f0997a"></path><path d="M398.81,197.35c-5.5.2-9.76,1.08-13.67,4.17S370.32,221,370.32,221l8.08,15.69,5.69-3.18S398.66,200.46,398.81,197.35Z" style="fill:#BA68C8"></path><path d="M383.3,246.06c0-1.81-1.7-9.48-1.51-13.37-2.27-3-4.86-7.22-3.21-12.52,1.49-4.78,3.64-7.85,9.89-13.79,5.08-4.83,8.81-9.25,10.67-9,2.17.25,7.43-1.16,7.43-1.16l14.78-1.91c-.13,2.37,2.82,2.77,4.9,2.24,2.32-.59,4.52.65,7.88,1.28,2.45.47,5.41,14.52,2.46,22.88-2.49,7-5.73,17.9-6.28,24,2.92,7.45,7.9,17,6,19.81,0,0-9.82,7.66-31.89,7.35s-25.75-5.58-25.75-5.58C377.1,263.45,381.06,253.25,383.3,246.06Z" style="fill:#f0f0f0"></path><path d="M393.91,232.69c3.15,3.74,15.07,8.8,23.48,1.87C415.23,242.85,396.73,243.06,393.91,232.69Z" style="fill:#e0e0e0"></path><g id="freepik--Head--inject-15"><path id="freepik--Hair--inject-15" d="M394.52,193.32a18.2,18.2,0,0,0,12.35.88,58.4,58.4,0,0,0,11.58-1s5.8.94,9.62-.91,4.18-7.32,4.18-7.32,1.91,3.5-.88,6c5.42,1,7.64-4.7,6.36-8.43-1.74-5.07-4.4-6.27-4-12.47s.36-11.89-5.35-13.92a25.28,25.28,0,0,1-1.08-2.81,14.09,14.09,0,0,0-1.85-2.62,17.33,17.33,0,0,0-5.53-4.07c-4.7-2.24-10-2.29-15.05-2.14-6.29.18-13.16,2.24-16.73,7.81a8.35,8.35,0,0,0-.86,7.38c.81,1.94,2.4,3.62,2.88,5.7.67,2.89-2.23,5.56-3.86,7.57-2.53,3.12-5.51,10.17,1.32,15.82a5.53,5.53,0,0,1,0-5.43C387.65,187.09,388,190,394.52,193.32Z" style="fill:#37474f"></path><path d="M391.29,164.53c.25-1.39.61-2.73,1-4.08,2.7-7.18,6.49-6.9,9.05-4.86a5.81,5.81,0,0,0,5.71,1,7.38,7.38,0,0,1,6.09.33c3.11,1.33,5.09,4.23,5.13,8.28,0,0-.08,4.44-.08,5.38a3.88,3.88,0,0,0,3.87,4.09,5.54,5.54,0,0,1,8.87-.52c2.06,2.73.44,7.09-3,9.36-4.12,2.74-6,.34-6,.34l-.47,8.47c0,.09,0,.17,0,.25-.12,2.31-.2,3.47,2.35,4-3.93,8.1-9.77,15.12-22.6,14.42-14.31-.77-.17-13.81-.17-13.81s2.68-.43,2.76-2.66l.17-3.48a13.63,13.63,0,0,1-8-1c-3.25-1.64-6.06-5-5.46-17.24A66.4,66.4,0,0,1,391.29,164.53Z" style="fill:#ffbda7"></path><path d="M406.43,180.08l-5.73,1.21a2.87,2.87,0,0,0,3.41,2.36A3.07,3.07,0,0,0,406.43,180.08Z" style="fill:#b16668"></path><path d="M406.24,181.86a2.55,2.55,0,0,0-1.06-.34,2.49,2.49,0,0,0-2.64,2,2.78,2.78,0,0,0,1.57.12A3,3,0,0,0,406.24,181.86Z" style="fill:#f28f8f"></path><path d="M393.93,164.85l3.43-1.6a1.81,1.81,0,0,0-2.46-1A2,2,0,0,0,393.93,164.85Z" style="fill:#263238"></path><path d="M408.71,164.91l3.44,1.58a1.82,1.82,0,0,0-.85-2.5A2,2,0,0,0,408.71,164.91Z" style="fill:#263238"></path><polygon points="403.35 167.1 400.89 177.35 395.57 174.3 403.35 167.1" style="fill:#f0997a"></polygon><path d="M404,191.14c10.16-1.25,12.55-3.84,14.22-6.85,0,0-.49,4.45-4.28,6.42-4,2.06-10.05,2.81-10.05,2.81Z" style="fill:#f0997a"></path><path d="M410.39,171.19c-.29.89-.61-.63-1.62-1s-2.37.47-2-.42a1.81,1.81,0,0,1,2.44-.84A1.77,1.77,0,0,1,410.39,171.19Z" style="fill:#263238"></path><path d="M393.77,169.37c.09.94.73-.49,1.8-.66s2.21.95,2.09,0a1.82,1.82,0,0,0-2.22-1.34A1.76,1.76,0,0,0,393.77,169.37Z" style="fill:#263238"></path></g><path d="M434.15,198.18c5.38,1.59,8.84,3.11,10.18,9.49,1.28,6.05,1.55,22.91.3,31.52s-2.31,13.21-3.81,14.24-12.48-12.62-12.23-12.88-1-21-1-21S427.18,201.16,434.15,198.18Z" style="fill:#ffbda7"></path><path d="M427.68,215a72.26,72.26,0,0,1,6.23,8c4.45,6.55,6.22,10.45,6.4,14.94l-12.39-12.24c-.21-3.47-.37-6.19-.37-6.19S427.51,217.68,427.68,215Z" style="fill:#f0997a"></path><path d="M434.16,197.81c4.36,1,8.24,2.09,10,7.62s1.74,21.71.94,28.66c-3.56-5.06-10.56-5.51-10.56-5.51l-7.45-10.16s.25-5.76.91-9.67S430.29,199.59,434.16,197.81Z" style="fill:#BA68C8"></path><path d="M437.69,229.18a16.73,16.73,0,0,0-3.1-.6l-7.45-10.16c0-.76.12-1.92.24-3.7a77.74,77.74,0,0,1,6.53,8.33A67.47,67.47,0,0,1,437.69,229.18Z" style="opacity:0.15"></path><path d="M385,189.79s.46-.26.55-1.29-.05-1.73,0-2.87.46-3.06,1.5-3.31,1.68,2.11,1.82,4.05a8.73,8.73,0,0,0,1.62,5.21c1.41,2.12,2.65,4.88,1.45,7.41Z" style="fill:#f0997a"></path><path d="M377.78,186.31a35.42,35.42,0,0,0,.41-5.83,16.61,16.61,0,0,1,1.06-4.36c.55-1.53.93-3.52,1.46-3.74s1.47.33,1.48,1.53c0,0,.67-.91,1.22-1.85s.91-2.1,1.75-2.34,1.32,1.09,1.06,2.05-.46,1.51-.46,1.51.85.34.2,2.07a8.47,8.47,0,0,1-1.08,2,8.34,8.34,0,0,1-.82,3.06,15.85,15.85,0,0,1-1,3.33,9.41,9.41,0,0,1,1.18,3.46c.06,1.55-.17,1.92,1.7,3.7,1.26,1.2,3.37,2.54,4.59,4.21s2.06,3.46.7,5.77-2.42,4-3.69,6.39c-.95,1.82-1.87,4.22-5.8,12.85-3,6.7-3.28,7.53-4.8,10-2.12,3.42-4.54,7.84-10.25,10.41s-12.38,2.05-11.71-2.83c.79-5.84,2.32-10.46,4.8-13.68a59.92,59.92,0,0,1,6.68-7.35c2.72-2.75,4.81-5.57,8.14-9.47s5.53-7.57,5.47-8.83a28.8,28.8,0,0,0-1.74-6.78C377.53,189.12,377.15,189.22,377.78,186.31Z" style="fill:#ffbda7"></path><path d="M391.93,199a11.5,11.5,0,0,1-1.58,3.15c-.58,1-1.17,2.07-1.73,3.11s-1.13,2.09-1.66,3.16-1.1,2.59-1.61,3.66c.61-1,1.23-2.52,1.81-3.56s1.14-2.08,1.72-3.11l1.71-3.13.85-1.56A4.24,4.24,0,0,0,391.93,199Z" style="fill:#f0997a"></path><path d="M382.19,173.91a9.2,9.2,0,0,1-.37,1.57c-.16.5-.35,1-.55,1.49l0,.07,0,.11a7.42,7.42,0,0,1,.1.84,6.33,6.33,0,0,1,0,.87,5.21,5.21,0,0,1-.43,1.66l-.06.14.06.1a4.88,4.88,0,0,1,.27.61c.07.21.14.43.19.65a5.1,5.1,0,0,1,.13.68c0,.23,0,.46.05.7a4.06,4.06,0,0,0,.15-1.43,3.66,3.66,0,0,0-.1-.73,4.83,4.83,0,0,0-.22-.71v.23a4.81,4.81,0,0,0,.57-1.84,4.4,4.4,0,0,0,0-1,4.1,4.1,0,0,0-.16-1v.17a9,9,0,0,0,.4-1.61A5.37,5.37,0,0,0,382.19,173.91Z" style="fill:#f0997a"></path><path d="M385.76,173.28a5.6,5.6,0,0,1-.54.74,7.51,7.51,0,0,1-.65.62l-.05,0,0,.09a7.18,7.18,0,0,1-.65,1.8,5,5,0,0,1-1.13,1.48l-.15.13.05.19a5.65,5.65,0,0,1,.17,1,10.09,10.09,0,0,1,0,1.1,10.67,10.67,0,0,1-.14,1.1c0,.37-.15.73-.24,1.11a6.63,6.63,0,0,0,.5-1,6.23,6.23,0,0,0,.32-1.12,5.66,5.66,0,0,0,.1-1.17,4.59,4.59,0,0,0-.13-1.2l-.1.32a3.86,3.86,0,0,0,.73-.78,4.37,4.37,0,0,0,.54-.91,6.32,6.32,0,0,0,.35-1,5.83,5.83,0,0,0,.17-1l-.07.13a4.26,4.26,0,0,0,.58-.78A3.64,3.64,0,0,0,385.76,173.28Z" style="fill:#f0997a"></path><path d="M382.74,185.79a4.49,4.49,0,0,0,.61,2,6.71,6.71,0,0,0,1.3,1.6,9.85,9.85,0,0,0-.52-.89c-.17-.29-.35-.57-.51-.86A17,17,0,0,1,382.74,185.79Z" style="fill:#f0997a"></path><path d="M389,193.29a8.66,8.66,0,0,1,.6,3.61,6.81,6.81,0,0,1-.37,1.77,14.94,14.94,0,0,1-.76,1.71,5.08,5.08,0,0,0,1.2-1.52,4.93,4.93,0,0,0,.54-1.91A5,5,0,0,0,389,193.29Z" style="fill:#f0997a"></path><path d="M410.24,202.94h0a11.51,11.51,0,0,1,3-4.38c1.63-1.74,5.12-7.43,5.67-8.25s1.17-3.8,1.69-5.77,1-3.25,3-2.77c0-.12,0-.41.11-1.08.18-1.55.68-2.07,1.38-2.29a2.33,2.33,0,0,1,1,0,2.86,2.86,0,0,1,.68-1.51c.69-.74,1.37-.76,1.72-.42s.31,1.34.41,3.68a34.09,34.09,0,0,1,0,5.27,3.74,3.74,0,0,1,.45,2.18,51.36,51.36,0,0,1-2.81,8.65c-.58,1.27-4.31,7.23-5.24,9.42-1.13,2.43.76,5.71,3.59,9.65s5.88,8.36,8.66,12a66.62,66.62,0,0,1,6.11,9.43c1.9,3.5,2.66,9,2,14.57-.55,4.79-6.65,4.29-11.77.93s-7.69-6.68-9.4-10.23a91.19,91.19,0,0,1-5.35-14.1c-3-9.76-3.85-12.75-4.32-14.72C410,209.36,409.25,205.94,410.24,202.94Z" style="fill:#ffbda7"></path><path d="M426.56,196.22c-.71,1.33-1.53,2.6-2.3,3.9s-1.55,2.6-2.28,3.92a12.72,12.72,0,0,0-1,2.08,4.63,4.63,0,0,0,0,2.31,14.46,14.46,0,0,0,1.89,4.15c.81,1.29,1.7,2.51,2.58,3.74l2.65,3.68c1.77,2.45,3.56,4.88,5.45,7.24-1.8-2.43-3.52-4.91-5.26-7.38l-2.61-3.71c-.88-1.23-1.76-2.45-2.55-3.73a14.3,14.3,0,0,1-1.87-4,4.47,4.47,0,0,1,0-2.18,14.28,14.28,0,0,1,.93-2C423.59,201.48,425.19,198.91,426.56,196.22Z" style="fill:#f0997a"></path><path d="M423.58,181.77a1.1,1.1,0,0,1,.17.83,8.85,8.85,0,0,1-.16.87l-.32,1.76c-.2,1.16-.37,2.34-.54,3.51-.08.57-.13,1.2-.24,1.74s-.36,1.1-.56,1.65l-1.32,3.31a26.56,26.56,0,0,0,1.76-3.12,13.25,13.25,0,0,0,.68-1.69,6.34,6.34,0,0,0,.16-.9l.13-.89c.15-1.18.3-2.37.41-3.56.06-.59.1-1.18.14-1.77,0-.3,0-.6,0-.91A1,1,0,0,0,423.58,181.77Z" style="fill:#f0997a"></path><path d="M426.09,178.37c.37.13.41.52.38.86s-.08.7-.13,1.05q-.12,1.07-.21,2.13c-.1,1.42-.13,2.84-.22,4.24a16,16,0,0,1-1.05,4c-.46,1.33-1,2.65-1.51,4a33.26,33.26,0,0,0,1.92-3.82,12.66,12.66,0,0,0,1.24-4.14c.12-1.44.11-2.85.12-4.27q0-1.06,0-2.13c0-.35,0-.71,0-1.07a1.56,1.56,0,0,0-.12-.55A.59.59,0,0,0,426.09,178.37Z" style="fill:#f0997a"></path><path d="M428.92,185.39c-.19.74-.35,1.48-.56,2.19s-.45,1.41-.73,2.1a42.41,42.41,0,0,0-1.59,4.26c.43-.64.82-1.29,1.18-2a21.77,21.77,0,0,0,1-2.07,11.27,11.27,0,0,0,.63-2.22A8.89,8.89,0,0,0,428.92,185.39Z" style="fill:#f0997a"></path><path d="M415.18,227.84c-1.22-4.1-2.44-8.2-3.6-12.32a63.94,63.94,0,0,1-1.42-6.24,13.27,13.27,0,0,1,.19-6.3l-.13.07h0l.1,0,0-.1a9,9,0,0,1,1.58-2.79c.67-.84,1.49-1.57,2.15-2.45,1.33-1.74,2.51-3.57,3.7-5.4l.88-1.37c.14-.24.29-.45.44-.7a5.69,5.69,0,0,0,.32-.77c.36-1.05.6-2.11.86-3.17a31.85,31.85,0,0,1,.86-3.12,2.26,2.26,0,0,1,.9-1.22,2.06,2.06,0,0,1,1.49-.1l.14,0,0-.14a8.43,8.43,0,0,1,.42-2.39,1.49,1.49,0,0,1,.79-.81,2,2,0,0,1,1.15-.1l.12,0,0-.12a2.77,2.77,0,0,1,.59-1.37,1.58,1.58,0,0,1,1.26-.67.61.61,0,0,1,.51.4,2.5,2.5,0,0,1,.15.74c0,.52,0,1.05.06,1.58l.12,3.16a22,22,0,0,1,0,3.15v0l0,0a3.82,3.82,0,0,1,.35,2.7c-.2.92-.47,1.83-.75,2.74-.56,1.8-1.16,3.6-1.9,5.35.77-1.74,1.39-3.53,2-5.33.29-.9.57-1.81.79-2.74a3.83,3.83,0,0,0-.34-2.81v.06a21.14,21.14,0,0,0,.07-3.18l-.11-3.17c0-.53,0-1.05,0-1.59a2.84,2.84,0,0,0-.16-.8.83.83,0,0,0-.68-.53,1.75,1.75,0,0,0-1.44.74,2.93,2.93,0,0,0-.66,1.49l.14-.1a2.19,2.19,0,0,0-1.29.11,1.71,1.71,0,0,0-.91.92,4.39,4.39,0,0,0-.33,1.23l-.13,1.24.15-.11a2.33,2.33,0,0,0-1.68.11,2.57,2.57,0,0,0-1,1.35,29.67,29.67,0,0,0-.88,3.16c-.27,1-.52,2.11-.87,3.13a5.2,5.2,0,0,1-.31.72c-.13.22-.29.46-.43.68l-.88,1.38c-1.17,1.83-2.34,3.67-3.65,5.39-.64.87-1.45,1.6-2.13,2.47a8.92,8.92,0,0,0-1.61,2.87l.14-.08h0l-.1,0,0,.1a13.5,13.5,0,0,0-.17,6.41c.38,2.11.88,4.2,1.46,6.26C412.6,219.68,413.91,223.76,415.18,227.84Z" style="fill:#f0997a"></path></g></g></g><g id="freepik--character-2--inject-15"><g id="freepik--character--inject-15"><g id="freepik--bottom--inject-15"><path d="M219.23,227.77c-1.29,13-2.78,42.89-2.37,64.89.27,14.56,1.11,24.22,2.31,40.75,1.1,15.18,3.85,49,2.37,53.12s15.36,9.52,17.11-4.6l.27-2.08c1.71-10.77,5.12-33.86,6.47-45.08,1.73-14.43-1.57-22.68-1.57-22.68l11.31-47.32,9.78-48.91Z" style="fill:#ffa8a7"></path><path d="M194.21,408c-.31,0-.73,3.42,1,4.85,2,1.64,7.7,4.31,15.21,3.22s9.6-2.63,12.57-5.19,5.7-5.94,8.79-7.55c1.75-.91,8-1.6,9.54-3.51.87-1.1.5-4.62.5-4.62Z" style="fill:#263238"></path><path d="M238.92,379.85a1.49,1.49,0,0,1,1,1.19c.25,1.19.55,4.68,1.08,6.64a25.76,25.76,0,0,1,.66,9.05c-.38,2.24-6.9,3.72-10.18,5s-5.75,4.3-9.12,7.17a23.13,23.13,0,0,1-13.84,5.3c-5.8,0-12.37-1.73-13.9-4.4-.63-1.35-2.21-4.11,6.34-8.23,1.61-.78,6.59-3.8,8.52-5.06a36.49,36.49,0,0,0,5.93-4.65,22.64,22.64,0,0,0,3.38-3.93,11.21,11.21,0,0,0,1-2.63,25.62,25.62,0,0,0,.76-2.86,2,2,0,0,1,.74-1.43,1.85,1.85,0,0,1,1.12-.1,29.6,29.6,0,0,1,5.8,1.2,3.5,3.5,0,0,1,2,1.21,3.06,3.06,0,0,1,.41,1.6,13.25,13.25,0,0,0,.07,1.67.94.94,0,0,0,.23.54c.3.3.76.05,1-.18a23,23,0,0,0,2.28-2.82c.4-.51,2.22-.86,2.72-1.26s1.31-.54,1.72-1Z" style="fill:#37474f"></path><path d="M222.38,408.92c1.48-1.26,2.4-2.06,3.73-3.41h0s-8.89,6.43-13,3.7c-2.66-1.76-1.44-4-1.39-4.67s-6.49-3.59-9-3.86h0c-.71.41-1.3.73-1.67.91-8.55,4.12-7.44,6.25-6.34,8.23,1.53,2.67,6.3,4.7,13.8,4.58A23.86,23.86,0,0,0,222.38,408.92Z" style="fill:#455a64"></path><path d="M212.38,402.5c-5.32,2.22-3,3.18-1.52,3.38s9-4.28,14.42-8.71c5.66-4.62,10.59-9.49,12.69-11.19.79-.63,1.63-1.41,2.38-2.13-.16-1.18-.29-2.25-.41-2.81a1.49,1.49,0,0,0-1-1.19l-.27,2.08a20.33,20.33,0,0,1-2.39.78,4.15,4.15,0,0,0-2,1.44,23,23,0,0,1-2.28,2.82C227.34,393,217.7,400.27,212.38,402.5Z" style="fill:#263238"></path><path d="M211.23,405.08a.5.5,0,0,0,.33-.12.53.53,0,0,0,.07-.75,12.74,12.74,0,0,0-9.87-3.72.53.53,0,0,0-.46.59.52.52,0,0,0,.59.46,11.85,11.85,0,0,1,8.93,3.35A.52.52,0,0,0,211.23,405.08Z" style="fill:#f0f0f0"></path><path d="M215.87,402.38a.52.52,0,0,0,.33-.12.53.53,0,0,0,.08-.75,12.71,12.71,0,0,0-9.77-3.94.53.53,0,0,0-.47.58.52.52,0,0,0,.58.47,11.8,11.8,0,0,1,8.84,3.56A.51.51,0,0,0,215.87,402.38Z" style="fill:#f0f0f0"></path><path d="M220.14,399.31a.54.54,0,0,0,.34-.12.54.54,0,0,0,.06-.75,12.73,12.73,0,0,0-9.86-3.72.53.53,0,0,0-.46.59.52.52,0,0,0,.59.46,11.82,11.82,0,0,1,8.92,3.35A.5.5,0,0,0,220.14,399.31Z" style="fill:#f0f0f0"></path><path d="M223.92,396.54a.48.48,0,0,0,.34-.11.52.52,0,0,0,.09-.74,12.76,12.76,0,0,0-9.69-4.14.54.54,0,0,0-.49.57.52.52,0,0,0,.57.49,11.83,11.83,0,0,1,8.78,3.73A.51.51,0,0,0,223.92,396.54Z" style="fill:#f0f0f0"></path><path d="M228,393.29a.53.53,0,0,0,.43-.85c-2-2.67-6.67-4.51-10.61-4.17a.53.53,0,0,0,.09,1.06c3.55-.31,7.89,1.38,9.68,3.75A.55.55,0,0,0,228,393.29Z" style="fill:#f0f0f0"></path><path d="M280.17,222.87c5,10.55,7.82,20.1,8,32.94s-2.06,57.06-2,61.58,2.94,14.42,3.58,25c.51,8.57-2.49,34.92-1.46,48.48a59.27,59.27,0,0,1,.34,6.59c-6.34,4.16-14,2.51-14,2.51s-.65-3.12-1.63-7.57c-1.74-8.59-4.66-23.79-6.62-31.76-3.94-16-5.47-29.29-6.84-37.18-1.24-7.08-9.36-41.76-13.3-66-17-8.68-16.23-26.58-16.23-26.58Z" style="fill:#ffa8a7"></path><path d="M272.87,425.79c.17,5.1.88,8.49,2.62,11.51s5.11,4.05,8.58,3.25,7.94-3,9-7.38,1-7.38.3-12.11Z" style="fill:#263238"></path><path d="M288.31,390.88c1.2.42,1.81,7,2.46,13.87.71,7.35,2,9.59,2.59,15.62.73,6.88.19,9.17-2.31,13.26s-11.12,8-15.17,1.92c-3.31-4.93-3.22-9.53-2.74-16.38a143.94,143.94,0,0,0,.34-16.33c-.16-5.15-1.72-9.89-.48-10.43.87,2.95,1.4,6,2.1,5.8.43-.07.52-.79.46-2.13a2.28,2.28,0,0,1,.43-1.65,2.69,2.69,0,0,1,1.59-.66c1.41-.25,3.34-.63,4.76-.73.84-.05.37-.08,1.2-.1s2.39-.23,3.12.17c.43.24.46.68.56,1.16s.2,1.16.33,1.64c.06.19.31.6.51.58s.45-.9.43-1.28,0-1,0-1.48S288.42,392.09,288.31,390.88Z" style="fill:#37474f"></path><path d="M293.12,418c.12,1,.65,7.19-1.16,8.33s-2.9-3.95-2.9-3.95-4.5-1.49-11.17,1.24c.32,1.07-.78,4.55-2.58,3.77s-2.21-7.54-2.21-7.64c-.43,6.57-.43,11,2.78,15.79,4.05,6,12.66,2.18,15.17-1.92s3-6.38,2.31-13.26C293.28,419.68,293.23,418.63,293.12,418Z" style="fill:#455a64"></path><path d="M288.53,422.82c0,2.48,2.21,1.68,2.63-1.8.64-5.22-.55-10.25-.39-16.27-.65-6.86-1-13.72-2.46-13.87,0,1.19.09,3.73.09,3.73,0,.51.05,1.79.05,1.79.32,5.13,1.52,11.14,1.19,16.41C289.35,417.45,288.56,420.34,288.53,422.82Z" style="fill:#263238"></path><path d="M278.66,423.58c-.41-2.45-1.18-3.16-1.56-7.8S275.34,403,274.49,398c-.23-1.56-1.48-5.54-1.49-5.59-.9.41-1.1,3.09-.47,6.19s1,5,1.42,8c1.08,5.94,1.11,12.22,1.83,15.65S279.07,426,278.66,423.58Z" style="fill:#263238"></path><path d="M278.09,423.69a.66.66,0,0,0,.2-.06,16.81,16.81,0,0,1,11-.87.53.53,0,1,0,.29-1,17.6,17.6,0,0,0-11.73.94.52.52,0,0,0-.24.7A.55.55,0,0,0,278.09,423.69Z" style="fill:#f0f0f0"></path><path d="M276.78,418.72a.47.47,0,0,0,.17,0c.06,0,6.45-2.78,12.81-1.15a.52.52,0,0,0,.64-.38.53.53,0,0,0-.38-.64c-6.73-1.72-13.24,1.09-13.5,1.21a.52.52,0,0,0-.26.69A.51.51,0,0,0,276.78,418.72Z" style="fill:#f0f0f0"></path><path d="M290.58,413.52a.52.52,0,0,0,.14-1c-6.31-2.31-14.76.47-15,.61a.51.51,0,0,0-.23.7.53.53,0,0,0,.7.24c.06,0,8.32-2.72,14.2-.56A.42.42,0,0,0,290.58,413.52Z" style="fill:#f0f0f0"></path><path d="M289.66,409.05a.54.54,0,0,0,.45-.34.53.53,0,0,0-.3-.68c-6.95-2.67-14.23,1-14.49,1.14a.53.53,0,0,0,.53.91s7.11-3.55,13.58-1.06A.45.45,0,0,0,289.66,409.05Z" style="fill:#f0f0f0"></path><path d="M289.36,403.62a.52.52,0,0,0,.44-.33.52.52,0,0,0-.29-.68c-6.5-2.62-14.31,1.12-14.58,1.27a.53.53,0,0,0,.5.93c.07,0,7.65-3.66,13.69-1.23A.51.51,0,0,0,289.36,403.62Z" style="fill:#ebebeb"></path><path d="M270.2,383.48c2.66,2.57,15.47,2.06,18.53-2,0,0,.37-11.75,1.1-24.42.56-9.7.83-18.41-1.38-30.27s-.47-25.48.38-38.89c1-15.87,3.92-40.37-3.93-57.41l-4.34-8.67-61.33,6s-1.41,12.79-3,41.84S221,370.12,221,370.12s1.57,2.63,9,3.19,10.85-1.91,10.85-1.91,5-31.77,5.64-38.86-.25-17.11-1.77-20.41l6.16-29s7,34.07,7.7,38.52,3,22.63,5.41,32.68S270.2,383.48,270.2,383.48Z" style="fill:#455a64"></path><path d="M250.88,283.12,246,258.69a32.07,32.07,0,0,1-17.33-11.16c.49,7.12,10.39,13.87,13.87,14.82l4.7,21.26-2.47,28.52Z" style="fill:#37474f"></path><path d="M278.71,228a30.11,30.11,0,0,1,3.71,6.16,49,49,0,0,1,2.51,6.73,56.19,56.19,0,0,1,1.54,7,46.07,46.07,0,0,1,.6,7.14c-.7-2.3-1.29-4.59-1.89-6.87s-1.21-4.56-1.88-6.8-1.35-4.5-2.11-6.72S279.6,230.24,278.71,228Z" style="fill:#37474f"></path><path d="M279,236a26.7,26.7,0,0,1,1.85,6.27c.42,2.14.69,4.29.91,6.45s.31,4.33.3,6.51a38.47,38.47,0,0,1-.47,6.51c-.34-2.16-.6-4.3-.85-6.44s-.46-4.28-.67-6.42-.37-4.28-.53-6.43S279.23,238.16,279,236Z" style="fill:#37474f"></path><path d="M283.3,323.11c-.57.43-1.15.9-1.67,1.37s-1.31,1-2,1.57A12,12,0,0,1,276,328a12.58,12.58,0,0,1-4.71.49,14.7,14.7,0,0,1-3.25-.61c-.74-.21-1.5-.34-2.25-.55-.05,0-.11.08-.07.11a15,15,0,0,0,2.33,1.6,16.89,16.89,0,0,0,3.16,1.29,11.45,11.45,0,0,0,6.36-.2,12,12,0,0,0,4.28-2.23,5.67,5.67,0,0,0,2-4.32C283.86,323.34,283.63,322.87,283.3,323.11Z" style="fill:#37474f"></path></g><g id="freepik--top--inject-15"><g id="freepik--hair--inject-15"><path d="M265.76,158.44c.21-2.6,1.37-5.2.7-7.71s-2.92-4.14-4.22-6.34c-2.8-4.73-.77-10.73-1.15-16.21-.34-4.8-3-9.74-7.6-11.3a42.1,42.1,0,0,1-4.19-1.24c-3-1.38-4.66-4.87-7.76-6l-2.11-1.62c-5.06,0-7.82.85-10.87,2.87s-5.37,5.46-5.15,9.11c.16,2.7,1.67,5.28,1.35,8-.23,2-1.4,3.67-2.41,5.37-2.14,3.61-3.69,8-2.27,12,.8,2.23,2.51,4.15,2.76,6.51s-.88,4.37-1.71,6.46c-1.17,3-1.77,6.42-.32,9.26a13.42,13.42,0,0,0,2.24,3c1.69,1.86,3.49,3.74,5.83,4.64,3,1.17,6.47.48,9.54-.6s6.06-2.53,9.3-2.87,6.3.39,9.46.33,6.65-1.18,8.08-4S265.51,161.66,265.76,158.44Z" style="fill:#263238"></path><path d="M239.75,106.84c-3.18-1.59-9.33,4.16-8.18,8.39S243.2,108.69,239.75,106.84Z" style="fill:#BA68C8"></path></g><g id="freepik--Arm--inject-15"><path d="M152.83,250.32a4.86,4.86,0,0,0,3-.37,7.69,7.69,0,0,0,1.1-.67.4.4,0,0,1,.21-.09.46.46,0,0,1,.25.08,5,5,0,0,0,3.89.24l5-1.34a12.15,12.15,0,0,0,2.69-1,4.1,4.1,0,0,0,1.92-2,2.16,2.16,0,0,0,0-1.62,2.22,2.22,0,0,0-.66-.8,6,6,0,0,0-3-1.07,16.3,16.3,0,0,0-9.05,1.42c-1.05.49-2.06,1.06-3.06,1.61a6.3,6.3,0,0,0-1.89,2.43,9.66,9.66,0,0,1-1,1.43c-.24.27-.8.49-.78.91s.31.48.59.59A4.22,4.22,0,0,0,152.83,250.32Z" style="fill:#f28f8f"></path><path d="M167.49,250c2.18-.79,4.31-.64,6.57-.84a14.9,14.9,0,0,0,3.19-.55,2.42,2.42,0,0,1,.7-.14,2.54,2.54,0,0,1,.55.1,10.2,10.2,0,0,0,4.72-.27,10,10,0,0,0,3.44-2.11c1.31-1.09,2.4-3.12,3.73-4.19,4.83-3.94,9.47-7.42,14-11.69q2-1.83,3.89-3.72c8.52-8.3,10.92-10.65,12-12.66,6.94-12.53,13.11-26.62,13.11-26.62l4.88-29.61c-9.93,1.21-16,1.19-22.4,17.46-3.81,9.73-6.45,17.42-12.46,30.67-13.73,17-23.73,29.31-25.05,30.1-2.07,1.25-7.14,1.21-11.57,2.09-2.33.46-4.61.86-7,1.12a5.26,5.26,0,0,0-3.74,1.54l-4,3.39c-1.15,1-2.5,1.57-3.69,2.48a1.33,1.33,0,0,0-.4.42c-.85,1.73,2.72,1.84,3.54,1.7a13.12,13.12,0,0,0,3-1.05,24.06,24.06,0,0,0,4-2.31A6.93,6.93,0,0,1,163,244l3.49.26c.21,0,.49.13.42.33s-.09.11-.15.15A44,44,0,0,1,160.7,248a1.93,1.93,0,0,0-.89.61c-.4.61.06,1.44.64,1.89C162.58,252.12,165.27,250.8,167.49,250Z" style="fill:#ffa8a7"></path><path d="M237.56,157.53c-3.65.4-9.2.59-12.45,3.16s-5.3,4.38-9,13-12.6,31.45-12.6,31.45l-11.48,13.92a65.45,65.45,0,0,1,6.88,4.54l5.54-4.12-3.36,6.82s2.74,2.83,3.29,4.8c0,0,12.54-12.47,13.82-13.86a27.07,27.07,0,0,0,4.21-5.74c1.44-2.63,11.41-23.9,11.41-23.9Z" style="fill:#BA68C8"></path><path d="M237.56,157.53c-3.65.4-9.2.59-12.45,3.16s-5.3,4.38-9,13-12.6,31.45-12.6,31.45l-11.48,13.92a65.45,65.45,0,0,1,6.88,4.54l5.54-4.12-3.36,6.82s2.74,2.83,3.29,4.8c0,0,12.54-12.47,13.82-13.86a27.07,27.07,0,0,0,4.21-5.74c1.44-2.63,11.41-23.9,11.41-23.9Z" style="opacity:0.30000000000000004"></path></g><g id="freepik--Chest--inject-15"><path d="M292.25,237c-1.42.85-2.86,1.67-4.29,2.42a49,49,0,0,0-3.06-8.94l-4.34-8.67-61.33,6s-.5,4.54-1.25,14.37a50.64,50.64,0,0,1-8.41-5.15c10.76-23.05,11.05-41.34,11.05-52.62h51.76s1.09,9.57,2.42,19.89S292.25,237,292.25,237Z" style="fill:#BA68C8"></path><path id="freepik--Shirt--inject-15" d="M278.6,213.27c-4-8.2-3.83-12.52-2.47-19.08,1-4.69,2.2-8.72,2.63-12.28,1.31-10.78-5.07-27-7.29-26.08-2.49,1.09-9.8.21-10,.19h0c-5-.24-8.15.16-15.45.75l0-.05-7.62,1h0a53.41,53.41,0,0,0-10.11,8.87c-5.67,6.18-7,10.95-7.59,17.8-.31,3.56,1.14,13,.94,24.92-.17,10.44-3,13-2.85,24.47,13.39,10.66,55.11,9.21,66-3.77C286,227.45,284.81,225.9,278.6,213.27Z" style="fill:#fafafa"></path><g id="freepik--Jaket--inject-15"><path d="M243.36,157.22c-5.62,2.7-16.23,9-19.88,15.89,1.35-5.58,12.54-15.4,12.54-15.4a62.31,62.31,0,0,0,7.19-2.75Z" style="fill:#BA68C8"></path><path d="M260.88,154.7l.13,2.21a120.37,120.37,0,0,0-1.09,25.57c.72,11.83,6.8,57.55,11.08,67.77,0,0,16.65-2.72,21.25-13.24-4.7-7.43-6.23-10.47-10.06-19.41-3.77-8.79-4.61-12.18-4.15-21.6.37-7.53,3.57-17.25.18-30-2.07-7.83-3.9-10.59-3.9-10.59C271.83,156.26,265.38,155.59,260.88,154.7Z" style="fill:#BA68C8"></path></g></g><g id="freepik--head--inject-15"><path d="M260,142a18.38,18.38,0,0,1,2.94-5c1.33-1.35,3.13-2.08,4.69-3.11l5-3.31c6.07-3.52,5.49-11.57,3.85-15.72-3.65-9.26-13.9-12.44-20.18-12.57-11.91-.26-18.57,4-19.6,10.16-3.38.29-5,2.31-6.66,5.06-2.52,4.25-2.35,11.38-1.05,16,1.52,5.47,5.08,8.7,7.84,11,2.31,1.94,4.52,3.24,6.05,5.26C242.87,149.82,258.24,145.42,260,142Z" style="fill:#37474f"></path><path d="M240,142.25c-1.74.38-3.63-.75-5-2.12-2.27-2.32-3.26-5.23-2.11-8.13.76-1.94,3.7-3.31,5.6-2.1s2.09,2.33,2.85,3.78,3.57,2.56,3-3.28a14.44,14.44,0,0,0-.81-3.85c4.45-1.72,7.12-6.79,6.43-11.67,1.63-2.53,12.57-2.9,15.28-1.43s5.36,4.26,6.75,16c1.25,10.48-.63,16-3.05,17.76-1.84,1.33-4.35,2.36-8.3,3.59l.38,6.15s-5.37,12.49-22.17,20.73c-.54-4.74,1.1-16.1,4.52-20.42l-1.11-16.61S242,141.8,240,142.25Z" style="fill:#ffa8a7"></path><path d="M255.71,126.53c.31.89-.44,1.06-1.32,1.37s-1.58.63-1.89-.25a1.7,1.7,0,0,1,3.21-1.12Z" style="fill:#263238"></path><path d="M267.45,126c-.11.93-.86.76-1.79.64s-1.69-.13-1.58-1.06a1.7,1.7,0,0,1,3.37.42Z" style="fill:#263238"></path><path d="M267.76,122l-3.69-1.91a2,2,0,0,1,2.74-.94A2.19,2.19,0,0,1,267.76,122Z" style="fill:#263238"></path><path d="M253.54,121.09,250,123.72a2.13,2.13,0,0,1,.4-3.07A2.34,2.34,0,0,1,253.54,121.09Z" style="fill:#263238"></path><path d="M255.28,136l6.58,1.38a3.38,3.38,0,0,1-4.3,2.52A3.16,3.16,0,0,1,255.28,136Z" style="fill:#b16668"></path><path d="M256.48,137.24a3.17,3.17,0,0,0-1.2.23,3,3,0,0,0,2.28,2.43,3.81,3.81,0,0,0,2.1-.07A3.24,3.24,0,0,0,256.48,137.24Z" style="fill:#f28f8f"></path><polygon points="259.03 124.21 259.76 134.07 265.44 130.3 259.03 124.21" style="fill:#f28f8f"></polygon><polygon points="259.76 134.07 265.77 133.39 265.44 130.3 259.76 134.07" style="fill:#b16668"></polygon><path d="M265.87,146.13c-2.51,0-8.59,1.52-13,2.36s-6.47-1.77-8-3.93c1.63,3.24,2.87,4.22,4.09,4.92,2.7,1.55,5.32,1.89,11.71,1.28a32,32,0,0,0,7.71-3.19C269.29,147,268.36,146.13,265.87,146.13Z" style="fill:#f28f8f"></path></g><g id="freepik--arm--inject-15"><path d="M274.32,155.4c2.52-2.71,6.27-4.9,9.06-7.65a215.5,215.5,0,0,0,15.87-18.22L301.62,96l13.17,7.49s1,16.62,1.4,27.24c.35,8.33.43,8.45-3.14,13.33-3.2,4.38-28.3,30.87-32.89,39.92-1.11,2.18-3.07-1.16-3.46-1.82C273.62,176.8,270.1,167.86,274.32,155.4Z" style="fill:#ffa8a7"></path><path d="M312.52,73.68a1.21,1.21,0,0,1,.34.07,1.58,1.58,0,0,1,.79.76c.11.21.18.43.28.63a1.75,1.75,0,0,0,.18.29c.11.14.2.29.3.44a57.35,57.35,0,0,0,5.51,6.6,11.72,11.72,0,0,0,1.94,1.22,3.88,3.88,0,0,1-.35,2.48,15.45,15.45,0,0,1-1.66,2.5s-6.48-5.25-7.89-9.79l-.06-.17c-.2-.67-.39-1.34-.54-2a2.65,2.65,0,0,1-.15-.87,7.87,7.87,0,0,1,.19-1.08,1.59,1.59,0,0,1,.41-.83A1,1,0,0,1,312.52,73.68Z" style="fill:#f28f8f"></path><path d="M319.85,88.67s-4.79-6.15-6.57-8.79-3.39-5-3.43-7.26c-.07-3.15-2.28-6.76-4.49-5.25-.61,1.14-.4,2.91-.61,5.23A25.13,25.13,0,0,1,303.07,78c-1.18,3.35-1.71,3.67-1.69,6.9s.75,4.53.24,11l13.26,9.44c-.23-7-.5-7.28,1.59-10.17A56.79,56.79,0,0,0,319.85,88.67Z" style="fill:#ffa8a7"></path><g id="freepik--Trophy--inject-15"><g id="freepik--trophy--inject-15"><path d="M348.19,64.09l2.39.69c7.13-6.85,13.1-27.4,10.75-37l-2.39-.69-12,11.54s.25,1,.56,2.75l1.89-1.81c.09.39.28,1.24.5,2.5l7.86-7.54a38.94,38.94,0,0,1-.84,7.43,52,52,0,0,1-4.38,12.8,27.59,27.59,0,0,1-2.3,3.8c-.74,1-1.38,1.72-1.75,2.14C348.38,61.79,348.29,62.93,348.19,64.09Z" style="fill:#BA68C8"></path><path d="M349.29,39.32s.25,1,.56,2.75l10.09-9.68a32.42,32.42,0,0,1-.68,10.26,52,52,0,0,1-4.38,12.8,27.59,27.59,0,0,1-2.3,3.8c-.74,1-1.38,1.72-1.75,2.14-.06,1.09-.15,2.23-.25,3.39,7.13-6.85,13.1-27.4,10.75-37Z" style="fill:#BA68C8"></path><path d="M349.29,39.32s.25,1,.56,2.75l10.09-9.68a32.42,32.42,0,0,1-.68,10.26,52,52,0,0,1-4.38,12.8,27.59,27.59,0,0,1-2.3,3.8c-.74,1-1.38,1.72-1.75,2.14-.06,1.09-.15,2.23-.25,3.39,7.13-6.85,13.1-27.4,10.75-37Z" style="fill:#fff;opacity:0.4"></path><polygon points="361.33 27.78 349.28 39.33 346.89 38.63 358.94 27.09 361.33 27.78" style="fill:#BA68C8"></polygon><polygon points="361.33 27.78 349.28 39.33 346.89 38.63 358.94 27.09 361.33 27.78" style="fill:#fff;opacity:0.6000000000000001"></polygon><path d="M332.88,105.24c-.45-1.85.31-4,2.41-6,4.2-4,12.12-6,17.7-4.35,2.62.77,4.26,2.17,4.82,3.87a.29.29,0,0,1,0,.1,1.82,1.82,0,0,1,.07.25l.59,2.39c0,.09,0,.17.05.25a.44.44,0,0,1,0,.1c.29,1.77-.51,3.77-2.48,5.66-4.19,4-12.12,6-17.7,4.35-2.79-.82-4.46-2.37-4.92-4.21Z" style="fill:#BA68C8"></path><path d="M332.88,105.24c-.45-1.85.31-4,2.41-6,4.2-4,12.12-6,17.7-4.35,2.62.77,4.26,2.17,4.82,3.87a.29.29,0,0,1,0,.1,1.82,1.82,0,0,1,.07.25l.59,2.39c0,.09,0,.17.05.25a.44.44,0,0,1,0,.1c.29,1.77-.51,3.77-2.48,5.66-4.19,4-12.12,6-17.7,4.35-2.79-.82-4.46-2.37-4.92-4.21Z" style="opacity:0.30000000000000004"></path><path d="M346.12,112.12a17.81,17.81,0,0,1-7.73-.27,10,10,0,0,1-2.42-1.06l-2.33-9.5a10,10,0,0,1,1.65-2.06A17.76,17.76,0,0,1,342,95.4Z" style="fill:#BA68C8;opacity:0.7000000000000001"></path><path d="M351,94.47a15.26,15.26,0,0,1,2,.41c2.62.77,4.26,2.17,4.82,3.87a.29.29,0,0,1,0,.1,1.82,1.82,0,0,1,.07.25l.59,2.39c0,.09,0,.17.05.25a.44.44,0,0,1,0,.1c.29,1.77-.51,3.77-2.48,5.66a13.14,13.14,0,0,1-1.56,1.28Z" style="opacity:0.2"></path><path d="M357.6,101.66a5.24,5.24,0,0,0,.2-.64c0-.06,0-.11,0-.17a3.35,3.35,0,0,0,.08-.54,1,1,0,0,0,0-.17,3.64,3.64,0,0,0,0-.66h0a3.52,3.52,0,0,0-.1-.65,1.33,1.33,0,0,0,0-.19,3.66,3.66,0,0,0-.15-.43l-.09-.22a3.84,3.84,0,0,0-.21-.4l-.11-.19a4.91,4.91,0,0,0-.4-.53l-.15-.16a3.85,3.85,0,0,0-.35-.35l-.24-.2-.17-.15-.27-.19-.15-.1c-3.43-2.42-7.63-2.48-12-1.4s-8.11,3.08-10,6.83a.75.75,0,0,1-.07.12,2.25,2.25,0,0,1-.16.31l-.09.23a2,2,0,0,1-.11.26c-.06.18-.11.35-.16.52a1.09,1.09,0,0,1-.05.17,5.16,5.16,0,0,0-.1.67,1.27,1.27,0,0,0,0,.2,3.68,3.68,0,0,0,0,.47c0,.08,0,.15,0,.22s.05.32.08.48l0,.16a4.45,4.45,0,0,0,.53,1.23l.08.13c.11.15.22.31.35.46a.52.52,0,0,0,.1.11,3.94,3.94,0,0,0,.5.5l0,0a5.76,5.76,0,0,0,.66.51l0,0c.21.14.44.27.68.4l.16.08.68.31.18.07c.29.12.6.22.93.32,5.58,1.62,13.51-.32,17.7-4.34.24-.24.46-.48.67-.71l.14-.17a5.68,5.68,0,0,0,.44-.56l.12-.17a7.47,7.47,0,0,0,.4-.64l0-.07a7,7,0,0,0,.35-.74A.14.14,0,0,1,357.6,101.66Z" style="fill:#BA68C8"></path><g style="opacity:0.8"><path d="M357.6,101.66a5.24,5.24,0,0,0,.2-.64c0-.06,0-.11,0-.17a3.35,3.35,0,0,0,.08-.54,1,1,0,0,0,0-.17,3.64,3.64,0,0,0,0-.66h0a3.52,3.52,0,0,0-.1-.65,1.33,1.33,0,0,0,0-.19,3.66,3.66,0,0,0-.15-.43l-.09-.22a3.84,3.84,0,0,0-.21-.4l-.11-.19a4.91,4.91,0,0,0-.4-.53l-.15-.16a3.85,3.85,0,0,0-.35-.35l-.24-.2-.17-.15-.27-.19-.15-.1c-3.43-2.42-7.63-2.48-12-1.4s-8.11,3.08-10,6.83a.75.75,0,0,1-.07.12,2.25,2.25,0,0,1-.16.31l-.09.23a2,2,0,0,1-.11.26c-.06.18-.11.35-.16.52a1.09,1.09,0,0,1-.05.17,5.16,5.16,0,0,0-.1.67,1.27,1.27,0,0,0,0,.2,3.68,3.68,0,0,0,0,.47c0,.08,0,.15,0,.22s.05.32.08.48l0,.16a4.45,4.45,0,0,0,.53,1.23l.08.13c.11.15.22.31.35.46a.52.52,0,0,0,.1.11,3.94,3.94,0,0,0,.5.5l0,0a5.76,5.76,0,0,0,.66.51l0,0c.21.14.44.27.68.4l.16.08.68.31.18.07c.29.12.6.22.93.32,5.58,1.62,13.51-.32,17.7-4.34.24-.24.46-.48.67-.71l.14-.17a5.68,5.68,0,0,0,.44-.56l.12-.17a7.47,7.47,0,0,0,.4-.64l0-.07a7,7,0,0,0,.35-.74A.14.14,0,0,1,357.6,101.66Z" style="fill:#fff"></path></g><path d="M339,100.07l-.9-3.67a19.12,19.12,0,0,1,4.58-1.87l1.53,6.22,1.29,8.64a17.85,17.85,0,0,1-7.74-.27c-.33-.1-.64-.2-.93-.32l-.18-.07-.68-.31-.16-.08-.47-.27Z" style="fill:#fff;opacity:0.30000000000000004"></path><path d="M348.48,99l-1.31-5.35a12.38,12.38,0,0,1,8.33,2l.15.1.27.19.17.15c.08.07.17.13.24.2a3.85,3.85,0,0,1,.35.35l.15.16a4.91,4.91,0,0,1,.4.53l.11.19a3.84,3.84,0,0,1,.21.4l.09.22a3.66,3.66,0,0,1,.15.43,1.33,1.33,0,0,1,0,.19,3.52,3.52,0,0,1,.1.65h0a3.64,3.64,0,0,1,0,.66,1,1,0,0,1,0,.17,3.35,3.35,0,0,1-.08.54c0,.06,0,.11,0,.17a5.24,5.24,0,0,1-.2.64.14.14,0,0,0,0,.06,7,7,0,0,1-.35.74l0,.07a7.47,7.47,0,0,1-.4.64l-.12.17a5.68,5.68,0,0,1-.44.56l-.14.17c-.21.23-.43.47-.67.71a15.12,15.12,0,0,1-1.56,1.27Z" style="fill:#BA68C8;opacity:0.15"></path><path d="M336.72,97a3.58,3.58,0,0,1,1.35-3.35,11.17,11.17,0,0,1,9.86-2.42,3.7,3.7,0,0,1,2.69,2.15s0,0,0,.06a.65.65,0,0,1,0,.13l.51,2.08,0,.14a.09.09,0,0,1,0,0A3.7,3.7,0,0,1,349.84,99a11.25,11.25,0,0,1-9.87,2.42A3.59,3.59,0,0,1,337.23,99C337.18,98.81,336.78,97.18,336.72,97Z" style="fill:#BA68C8"></path><path d="M336.72,97a3.58,3.58,0,0,1,1.35-3.35,11.17,11.17,0,0,1,9.86-2.42,3.7,3.7,0,0,1,2.69,2.15s0,0,0,.06a.65.65,0,0,1,0,.13l.51,2.08,0,.14a.09.09,0,0,1,0,0A3.7,3.7,0,0,1,349.84,99a11.25,11.25,0,0,1-9.87,2.42A3.59,3.59,0,0,1,337.23,99C337.18,98.81,336.78,97.18,336.72,97Z" style="opacity:0.30000000000000004"></path><path d="M344.28,101.53a10,10,0,0,1-4.31-.15,5.52,5.52,0,0,1-1.34-.58l-1.49-6a5.05,5.05,0,0,1,.93-1.15,9.87,9.87,0,0,1,3.74-2.13Z" style="fill:#BA68C8;opacity:0.7000000000000001"></path><path d="M346.83,91a6.5,6.5,0,0,1,1.1.23,3.7,3.7,0,0,1,2.69,2.15s0,0,0,.06a.65.65,0,0,1,0,.13l.51,2.08,0,.14a.09.09,0,0,1,0,0A3.7,3.7,0,0,1,349.84,99a8.67,8.67,0,0,1-.87.71Z" style="opacity:0.2"></path><path d="M336.68,96.76h0c-.5-2.68,5.16-9.06,5.16-9.06s8,3,8.78,5.64h0c0,.11.06.22.08.33a.13.13,0,0,1,0,.06,3.69,3.69,0,0,1-1.38,3.15,11.22,11.22,0,0,1-9.87,2.42,3.68,3.68,0,0,1-2.68-2.15s0,0,0-.06S336.7,96.87,336.68,96.76Z" style="fill:#BA68C8"></path><path d="M336.68,96.76h0c-.5-2.68,5.16-9.06,5.16-9.06s8,3,8.78,5.64h0c0,.11.06.22.08.33a.13.13,0,0,1,0,.06,3.69,3.69,0,0,1-1.38,3.15,11.22,11.22,0,0,1-9.87,2.42,3.68,3.68,0,0,1-2.68-2.15s0,0,0-.06S336.7,96.87,336.68,96.76Z" style="fill:#fff;opacity:0.8"></path><path d="M339.46,99.3a5.36,5.36,0,0,1-1.21-.5c-.79-3.29,3.59-11.11,3.59-11.11s1.32,9.27,1.93,11.77A9.84,9.84,0,0,1,339.46,99.3Z" style="fill:#fff;opacity:0.30000000000000004"></path><path d="M350.62,93.33h0c0,.11.06.22.08.33a.13.13,0,0,1,0,.06,3.69,3.69,0,0,1-1.38,3.15,8.16,8.16,0,0,1-1,.78c-.54-2.2-6.53-10-6.53-10S349.81,90.72,350.62,93.33Z" style="fill:#BA68C8;opacity:0.15"></path><path d="M307.73,52c-.87-3.54.6-7.64,4.61-11.49,8-7.68,23.16-11.4,33.83-8.3,5.33,1.55,8.54,4.51,9.4,8l1,4.22c.87,3.54-.6,7.64-4.61,11.49-8,7.68-23.16,11.4-33.83,8.3-5.33-1.55-8.54-4.51-9.4-8C308.59,55.55,307.9,52.74,307.73,52Z" style="fill:#BA68C8"></path><path d="M307.73,52c-.87-3.54.6-7.64,4.61-11.49,8-7.68,23.16-11.4,33.83-8.3,5.33,1.55,8.54,4.51,9.4,8l1,4.22c.87,3.54-.6,7.64-4.61,11.49-8,7.68-23.16,11.4-33.83,8.3-5.33-1.55-8.54-4.51-9.4-8C308.59,55.55,307.9,52.74,307.73,52Z" style="opacity:0.30000000000000004"></path><path d="M310.94,42l5.31,21.64c-4.18-1.66-6.72-4.31-7.48-7.4-.18-.7-.87-3.51-1-4.22C307,48.94,308,45.42,310.94,42Z" style="fill:#BA68C8;opacity:0.7000000000000001"></path><path d="M336.08,64.19a38.31,38.31,0,0,1-14.21.89l-6.61-26.94a38.2,38.2,0,0,1,13-5.79Z" style="fill:#BA68C8;opacity:0.7000000000000001"></path><path d="M344.59,31.84c.53.12,1.06.25,1.58.4,5.33,1.55,8.54,4.51,9.4,8l1,4.22c.87,3.54-.6,7.64-4.61,11.49-.39.37-.8.73-1.22,1.08Z" style="opacity:0.2"></path><ellipse cx="331.65" cy="46.16" rx="24.63" ry="14.22" transform="translate(-1.44 80.38) rotate(-13.79)" style="fill:#BA68C8"></ellipse><ellipse cx="331.65" cy="46.16" rx="24.63" ry="14.22" transform="translate(-1.44 80.38) rotate(-13.79)" style="opacity:0.15"></ellipse><path d="M310.18,51.43a6.2,6.2,0,0,0,.91,2c.27-2.21,1.65-4.58,4-6.86A32.82,32.82,0,0,1,329.9,39c6-1.46,11.87-1.51,16.6-.13,3.17.92,5.48,2.38,6.75,4.21a6.27,6.27,0,0,0-.13-2.21c-.68-2.78-3.4-5-7.65-6.23a36.05,36.05,0,0,0-31.38,7.7C310.89,45.43,309.5,48.65,310.18,51.43Z" style="fill:#BA68C8"></path><path d="M339.14,33.69a26.8,26.8,0,0,1,6.33,1c4.25,1.24,7,3.45,7.65,6.23a6.27,6.27,0,0,1,.13,2.21c-1.27-1.83-3.58-3.29-6.75-4.21a26.21,26.21,0,0,0-6.32-1Z" style="opacity:0.1"></path><path d="M329.28,39.18a33.85,33.85,0,0,0-12.94,6.33l-1-4.23A33.76,33.76,0,0,1,328.25,35Z" style="fill:#fff;opacity:0.2"></path><path d="M356.61,44.51c.87,3.54-.6,7.64-4.61,11.49-8,7.68-23.16,11.4-33.83,8.3-5.33-1.55-8.54-4.51-9.4-8C314.22,78.45,330,94.07,342.65,91s19.41-24.26,14-46.46Z" style="fill:#BA68C8"></path><path d="M356.61,44.51c.87,3.54-.6,7.64-4.61,11.49-8,7.68-23.16,11.4-33.83,8.3-5.33-1.55-8.54-4.51-9.4-8C314.22,78.45,330,94.07,342.65,91s19.41-24.26,14-46.46Z" style="fill:#fff;opacity:0.7000000000000001"></path><path d="M342.65,91c-5.6,1.37-11.83-.94-17.5-5.87,7.51,6,18.31,2.24,20.57-8.43a49.66,49.66,0,0,0,0-16.17A29.06,29.06,0,0,0,352,56c4-3.85,5.48-8,4.61-11.49h0C362.06,66.71,355.28,87.87,342.65,91Z" style="fill:#BA68C8;opacity:0.2"></path><path d="M354.59,68.17a71.67,71.67,0,0,0-1.31-13.51c3-3.44,4.1-7,3.33-10.15h0C362,66.28,355.53,87,343.37,90.75,350.24,88.44,354.53,77.82,354.59,68.17Z" style="fill:#BA68C8;opacity:0.35000000000000003"></path><path d="M318.17,64.3c6.09,1.77,13.63,1.32,20.48-.83,2.24,14.16-.37,19.89-7.74,18.2-6.15-1.42-11-9.74-14.27-17.88C317.13,64,317.64,64.15,318.17,64.3Z" style="fill:#fff;opacity:0.30000000000000004"></path><path d="M311.09,53.45c1.27,1.82,3.58,3.28,6.75,4.2a32.89,32.89,0,0,0,16.6-.13c6-1.47,11.22-4.15,14.78-7.57,2.38-2.28,3.76-4.65,4-6.85-1.27-1.83-3.58-3.29-6.75-4.21-4.73-1.38-10.63-1.33-16.6.13a32.82,32.82,0,0,0-14.78,7.57C312.74,48.87,311.36,51.24,311.09,53.45Z" style="fill:#BA68C8"></path><path d="M311.09,53.45c1.27,1.82,3.58,3.28,6.75,4.2a32.89,32.89,0,0,0,16.6-.13c6-1.47,11.22-4.15,14.78-7.57,2.38-2.28,3.76-4.65,4-6.85-1.27-1.83-3.58-3.29-6.75-4.21-4.73-1.38-10.63-1.33-16.6.13a32.82,32.82,0,0,0-14.78,7.57C312.74,48.87,311.36,51.24,311.09,53.45Z" style="fill:#fff;opacity:0.7000000000000001"></path><path d="M323.74,58.61a26,26,0,0,1-5.9-1c-3.17-.92-5.48-2.38-6.75-4.2.27-2.21,1.65-4.58,4-6.86a25.21,25.21,0,0,1,3.78-3A77.5,77.5,0,0,0,323.74,58.61Z" style="fill:#BA68C8;opacity:0.1"></path><path d="M313.8,48a71.72,71.72,0,0,0,3.49,9.48,11.76,11.76,0,0,1-6.2-4A10.68,10.68,0,0,1,313.8,48Z" style="fill:#BA68C8;opacity:0.15"></path><path d="M306.74,77.13h0l12-11.54h0l2.39.69h0s.23,1,.74,2.58l-10.09,9.67a10.36,10.36,0,0,0,4.5,5.29,10.07,10.07,0,0,0,1.19.58A10.33,10.33,0,0,0,324.66,83a19.9,19.9,0,0,0,1.93-1.39l2.39.69c.47.58,1,1.15,1.51,1.71a12.72,12.72,0,0,1-12.47,3l-2.4-.69a12.72,12.72,0,0,1-8.88-9.25Z" style="fill:#BA68C8"></path><polygon points="321.17 66.27 309.13 77.82 306.74 77.13 318.78 65.58 321.17 66.27" style="fill:#BA68C8"></polygon><polygon points="321.17 66.27 309.13 77.82 306.74 77.13 318.78 65.58 321.17 66.27" style="fill:#fff;opacity:0.6000000000000001"></polygon><path d="M309.13,77.81A12.85,12.85,0,0,0,330.49,84c-.53-.56-1-1.13-1.51-1.71a19.9,19.9,0,0,1-1.93,1.39,10.44,10.44,0,0,1-2.94,1.22,10.68,10.68,0,0,1-7.79-1.13,10.36,10.36,0,0,1-4.5-5.29l10.09-9.67c-.51-1.58-.74-2.58-.74-2.58Z" style="fill:#BA68C8"></path><path d="M309.13,77.81A12.85,12.85,0,0,0,330.49,84c-.53-.56-1-1.13-1.51-1.71a19.9,19.9,0,0,1-1.93,1.39,10.44,10.44,0,0,1-2.94,1.22,10.68,10.68,0,0,1-7.79-1.13,10.36,10.36,0,0,1-4.5-5.29l10.09-9.67c-.51-1.58-.74-2.58-.74-2.58Z" style="fill:#fff;opacity:0.4"></path></g></g><path d="M312.05,74.74h0c.07,1.61-.13,3.12,1.23,5.14,1.09,1.62,3.32,4.56,4.88,6.6a3.3,3.3,0,0,1-1.33,1.46c-1.46.64-3.06-1.73-3.06-1.73a4.13,4.13,0,0,1-2.43.88c-1,.06-2.1-.19-2.32-1.34s1.49-2.4,1.49-2.4c-2.44,1.28-4-.4-3.19-1.77S310.9,76.18,312.05,74.74Z" style="opacity:0.2"></path><path d="M312,86.38a9.17,9.17,0,0,0-3.17,6.37c-.19-3.28.22-4.44,2.44-7.21Z" style="fill:#f28f8f"></path><path d="M321.26,81.15c-.55-.67-1.11-1.14-1.76-1,.74-1.11-.27-2.38-1-3.12a1.77,1.77,0,0,0-1.83-.59,2.69,2.69,0,0,0-1-3.82c-.74-.55-1.74-.25-2.66.84a56.39,56.39,0,0,0-3.78,5.6,9.87,9.87,0,0,0-1.6,3.07c-.3,1.43,1.32,1.73,2.15,1.49a4.62,4.62,0,0,0,1.24-.53c-.61.78-1.46,1.67-1.37,2.55s1.28,1.45,2.45,1.06a8.09,8.09,0,0,0,3.09-1.91l-.32.37c-1.14,1.37.4,2.55,1.53,2.31a5.92,5.92,0,0,0,2.87-1.87c1-1.07,1.66-1.77,2.59-1.39A3.28,3.28,0,0,0,321.26,81.15Z" style="fill:#ffa8a7"></path><path d="M310,97.33a8.91,8.91,0,0,0,2.61.62,3.37,3.37,0,0,0,3.2-1.75,7,7,0,0,0-.95,2.29s-.38.66-1.77.58S310,97.33,310,97.33Z" style="fill:#f28f8f"></path><path d="M271.47,155.83c.81-.08,2-1.78,4.67-3.3a54.52,54.52,0,0,0,10.66-9.18c2.68-3.1,12.08-13.84,12.08-13.84l1.05-13.92A30.94,30.94,0,0,0,310,117.7s1.52,6.71,1.52,6.51.7-7.08.7-7.08a16.76,16.76,0,0,0,3.86-1.9s.78,19.34.8,22-.89,3.63-4.18,7.94-28.61,32.5-30.76,36.78-2.92,5.61-3.16,7C274.24,192.16,265.5,169.08,271.47,155.83Z" style="fill:#BA68C8"></path><path d="M271.47,155.83c.81-.08,2-1.78,4.67-3.3a54.52,54.52,0,0,0,10.66-9.18c2.68-3.1,12.08-13.84,12.08-13.84l1.05-13.92A30.94,30.94,0,0,0,310,117.7s1.52,6.71,1.52,6.51.7-7.08.7-7.08a16.76,16.76,0,0,0,3.86-1.9s.78,19.34.8,22-.89,3.63-4.18,7.94-28.61,32.5-30.76,36.78-2.92,5.61-3.16,7C274.24,192.16,265.5,169.08,271.47,155.83Z" style="opacity:0.30000000000000004"></path></g></g></g></g><g id="freepik--character-1--inject-15"><g id="freepik--character--inject-15"><g id="freepik--bottom--inject-15"><path d="M118.06,261.45l-34.62,6.66,9.07,56.36s-8.28,8.26-12.87,17.64c-3.33,6.81-14.26,31.75-16.12,36a52.49,52.49,0,0,1-3.45,6.4c-.72,1.17-1.8,1.78-2,3.11-1,5.9,3.45,15,7.4,19.61a13.15,13.15,0,0,0,3.77,3.15,7.53,7.53,0,0,0,4.83.84,3.09,3.09,0,0,0,2.38-1.59,3.69,3.69,0,0,0,0-2.16A69.35,69.35,0,0,1,75,399.58c-.42-5.68,2.73-11.4,6.19-15.89,4.58-5.94,33.76-47.07,35.42-49.89,2.49-4.23,5.31-7.82,5.21-21.54C121.75,298.33,119.7,268.44,118.06,261.45Z" style="fill:#b16668"></path><path d="M121.54,263.29s1.6,11,2.76,33.78c.92,18.08,1.86,23.68-7.27,38.64-6.39,10.46-34.35,47-37.28,50.65,0,0-10.91-2.24-16.08-10.2,0,0,5.68-15.37,11.17-27.59s11.1-21.78,11.1-21.78L70.81,274Z" style="fill:#455a64"></path><path d="M68.38,380.66l-1-.29c3.78-12,19.51-46.2,26.33-52.78l.73.71C87.86,334.65,72,369,68.38,380.66Z" style="fill:#37474f"></path><path d="M66.25,369.05c1.88,3.72,12.86,12.76,17.82,11.74l-5.41,7.14c-4.57.35-12.82-6-15.55-10.67Z" style="fill:#37474f"></path><path d="M117.76,269.4,70.81,274,85.94,326.8s-4.4,7.55-8.77,16.72c0,0,2.31,8.29,2.42,8.66.36,1.23-2.72,6.39-.17,21.63.49,2.93,1.69,7.16,2.41,9.89,5.34-7,16.74-21.74,25.21-33.61,2-2.7,3.93-5.43,3.93-5.43a112.37,112.37,0,0,0-1-14.87c-.89-6-5.29-35-5.29-35a25.43,25.43,0,0,0,6.78-6.36,16.12,16.12,0,0,0,3.06-6.89A97.6,97.6,0,0,0,117.76,269.4Z" style="fill:#37474f"></path><path d="M53.09,391.75c-.81-.18-1.54,2.66-1.65,3.57S52.89,400,54,402s3,4.49,3.85,7.6c.78,2.92.61,8.44,3.12,12.53s8.84,8.44,17.23,8.36c2.57,0,5.65-1.26,6.34-2.05a3.71,3.71,0,0,0,1.12-2.92Z" style="fill:#263238"></path><path d="M60,411.31a21.19,21.19,0,0,0-3.28-8c-1.81-3.12-4.65-7.18-4.42-10.81a12.06,12.06,0,0,1,4.47-5.76c2.5-1.94,2.92-4.35,4.4-3.91l-.59.95a41.41,41.41,0,0,0,3.46,5,2.92,2.92,0,0,1,.61,2.52,8.31,8.31,0,0,0,.47,4.43,14.92,14.92,0,0,1,.8-2.72,2.86,2.86,0,0,1,1.86-1.76c1.64-.63,4,.32,5.26.83,1.87.77,4.08,1.42,5,2.84.73,1.2-.4,3-.91,4.09-1.41,3-.17,6.53.91,9.46,1.16,3.15,3,7.59,5.29,10.13s4,3.78,2.4,6.89a5.82,5.82,0,0,1-2.53,2.27,9.24,9.24,0,0,1-3.29.89,19.55,19.55,0,0,1-13.3-3.47,15.32,15.32,0,0,1-4.25-5.14C61,417.8,60.58,415,60,411.31Z" style="fill:#37474f"></path><path d="M81.2,415.68a17.68,17.68,0,0,0,2,2.94c2.28,2.57,4,3.78,2.4,6.89a5.85,5.85,0,0,1-2.52,2.27,9.35,9.35,0,0,1-3.3.89,19.56,19.56,0,0,1-13.3-3.47,13.71,13.71,0,0,1-3.61-4.09C62.67,417.61,73.33,413.54,81.2,415.68Z" style="fill:#455a64"></path><path d="M109.7,418.23c-.3-5.84-.26-10.46-.4-15.79q-.27-10.79-.5-21.56-.24-11-.46-22.09c-.12-5.87-1.59-11-1.71-16.91-2.42-24.41-8.81-49.46-8.81-49.46a35.19,35.19,0,0,0,11.07-9.2c8-9.66,8.33-18.18,8.33-18.18l-4.19-.55-45.67-1.07c-.34,7.29-1.29,17.48-.87,27,.85,19.46,18,54.89,18,54.89-.36,2.66-3.08,13.85-.91,23.91,3.42,15.87,5.52,32.92,6.8,41.54s2.53,13.43,2.26,15.11c-.21,1.25-.89,3.26-.34,4.17.75,1.22,1.88,1.73,3.51,3.4a65.53,65.53,0,0,0,6,5.43,18.75,18.75,0,0,0,6.31,3.21c2.79.86,6.06,1.45,8.84.58,1-.31,3.2-1,3.32-2a3.06,3.06,0,0,0-.88-2.1c-3-4-3.44-4.41-6.39-8.52C109.17,424.65,109.91,422.18,109.7,418.23Z" style="fill:#b16668"></path><path d="M63.06,261.53c-.09,8.25-.7,13.93-.44,19.93a103.78,103.78,0,0,0,4,23.3c2.32,8.45,14.71,43.5,15.58,46.48-.92,6.52-1.92,12.3.73,26.42C86.74,398,91.19,416,91.19,416s12.3,1.8,18.93-2.23c0,0,.76-57.71,0-71.08-.68-11.62-8.86-49.61-8.86-49.61S119,285.33,120,264.82Z" style="fill:#455a64"></path><path d="M87.41,347c-.63-2.31-2.42-8-4.69-15.27-3.82-12.15-9-28.8-10.83-36.23-2.14-8.85-2.3-27.4-2.3-27.59h-1c0,.18.16,18.84,2.33,27.81,1.8,7.46,6.81,23.44,10.84,36.29,2.18,6.94,4.06,12.94,4.68,15.23.7,2.6.51,5,.25,8.31a80.65,80.65,0,0,0,.78,21.12c1.55,9.88,5.74,29.33,8.07,40l1.07.07c-2.32-10.55-6.56-30.25-8.12-40.18a79.75,79.75,0,0,1-.77-20.9C88,352.34,88.15,349.75,87.41,347Z" style="opacity:0.2"></path><path d="M89.17,407.45c4,1.89,17.68,1.5,21-2.35V414c-3.5,3.07-13.91,4.34-19.2,2.16Z" style="fill:#37474f"></path><path d="M91.19,437c-.32.26-.34,2.16.1,3.08s1.83,1.92,4,3.18,5.23,2,7.25,4.9c1.44,2.07,4.22,6.61,8.92,9.1s11,3.72,16.71,1.69,6.23-4.5,6.09-6.64Z" style="fill:#263238"></path><path d="M113.84,428.34a6.09,6.09,0,0,0,1.3,2.77c1.8,2.85,4.8,5.44,7.3,7.77a79.24,79.24,0,0,0,8.47,6.68c2.43,1.69,4.06,3.5,4,5.09-.23,4.93-6.26,7.34-12.52,7.41a20.14,20.14,0,0,1-10.58-2.84,20.47,20.47,0,0,1-4.9-4.5c-2.89-3.64-3.47-5.56-6.87-7.45-2.88-1.6-6.07-1.88-8.93-5.86-1.12-2.69.09-5.65.42-8.42a27.74,27.74,0,0,0-.08-3.76,1.51,1.51,0,0,1,1.13-1.58c0,.25.12,1.22.12,1.22a4.9,4.9,0,0,0,2.12,1.73c1.51.7,2.87,0,3.89,1.21a9,9,0,0,1,1,1.88,9.47,9.47,0,0,0,1.65,2.45,15,15,0,0,1-.5-2.55c0-1.38-.15-2.31.58-2.82a17.34,17.34,0,0,1,3.47-1.56,22.63,22.63,0,0,1,5.29-1.29c1.26-.22,2.33-.19,3.11.87.53.72.47,2.41.51,3.43A.49.49,0,0,0,113.84,428.34Z" style="fill:#37474f"></path><path d="M127.43,443c1.17.89,2.35,1.75,3.48,2.54,2.43,1.69,4.06,3.5,4,5.09-.24,4.93-6.26,7.34-12.53,7.41a20.14,20.14,0,0,1-10.57-2.84,14.22,14.22,0,0,1-1.25-.88C110.14,450.8,117.11,442.9,127.43,443Z" style="fill:#455a64"></path></g><g id="freepik--top--inject-15"><g id="freepik--arm--inject-15"><path d="M141.26,189.61C121.58,207.49,120,210,115.83,217.07c-8.63-2.69-23.58-20.29-15.79-27.26a70.39,70.39,0,0,0,11.8-3.29c7.79-5.18,17.81-12,23.71-17.06,2.19-5,9.5-26.82,10.78-34.29a5.1,5.1,0,0,0-.81-3.59c-2-3.14-2.31-6.51-3.34-9.74-.8-2.52-2-3.65-1.51-4.08a3.15,3.15,0,0,1,4.15.54c.88.82,2.51,4.12,3.27,4.77s1.06-4.22.51-9.29c-.31-2.89-.73-5.19.31-6.94.5-.83,1.37-1.16,2-.69a2.07,2.07,0,0,1,.53.68,1.89,1.89,0,0,1,1-1.66c1.11-.64,1.8.1,2.18,1.06.32.8.5,1.28.5,1.28a2.34,2.34,0,0,1,2.52,1.46c.17.35.47,1.31.47,1.31a2.6,2.6,0,0,1,3,2c.54,1.49.8,4.54,1.21,7.1a24.44,24.44,0,0,1,.38,5.66,21.92,21.92,0,0,1-.58,5.73c-1.53,5.08-2.9,5.31-3.87,12.12-1.54,10.7-3.09,23.13-6,33.64C151.27,180.05,146.7,184.68,141.26,189.61Z" style="fill:#b16668"></path><path d="M150.3,124.57c3.37,1.89,4.14,7.4,3.46,11.08C155.74,131.45,155.62,126.79,150.3,124.57Z" style="fill:#9a4a4d"></path><path d="M99.75,189.21c2.82-.4,10.46-2.32,12.08-3.27s23.34-16.6,23.34-16.6l9.26-26.43s1.67,2.62,6.94,3.52,6.6,0,6.6,0-2.22,14.74-3.32,21.21-2,9.67-3.76,12.22a89.8,89.8,0,0,1-11.49,12.06c-5.56,5.06-22.24,20.09-23.24,27.73-5.76-2-12.56-7.41-16.62-15.64C96,196.72,96.64,191.63,99.75,189.21Z" style="fill:#263238"></path></g><g id="freepik--chest--inject-15"><path d="M116,218.49c-1.23-9.84-4.78-18.46-8.08-23.32-2.18-3.23-4.21-5.62-8.18-6a65.72,65.72,0,0,0-13.64.55c-5.43.64-15.31,2.89-15.31,2.89s-7.38,1.87-14,3.88c-5.08,1.54-8.38,13.4-6.75,20.95,3,14,10,24.29,13.06,42.16-.83,12.81-.7,18.41-.7,18.41s9.13,5.87,30.29,3.09c28.25-3.72,29.58-13.35,29.58-13.35C121.48,247.71,117.82,232.92,116,218.49Z" style="fill:#37474f"></path></g><g id="freepik--arm--inject-15"><path d="M56.81,196.53c-10.71,2.38-14.14,5.35-16.76,12.17s-6.67,23.46-8.85,33.52c-1.88,8.62-2.6,16.37-.41,20l18.9-8.32,7.78-26.3S63.35,205.06,56.81,196.53Z" style="fill:#263238"></path><path d="M50.09,240.88c-1.47,2.19-3.23,3.08-7.05,5-3.56,1.78-7.69,3.49-9.76,7.47.53-3.64,2.47-5.48,6.89-8.13S51.1,239.4,51.1,239.4Z"></path><path d="M50.09,240.88c-1.47,2.19-3.23,3.08-7.05,5-3.56,1.78-7.69,3.49-9.76,7.47-1.82,3.5-3.82,6.43-2.49,8.91.92,1.7,6,2.65,10.77,2.2s7.9-4.49,12.62-8c4-3.05,6.16-5,6.16-5Z" style="fill:#263238"></path><path d="M56.59,244c-1.82-1.55-2.27-3.25-4.89-4.47s-4.19-1-7-2.18-5-1.66-6.94-.84-1.55,1.94,0,2.77,4.28,1.86,6.19,3,3.72,1.77,3.91,4.05A101.87,101.87,0,0,1,48,257.22c-.18,3.86-.68,7-.36,7.41s2,.44,2.81-1.78,1.5-10.1,1.5-10.1,1.18,5.34,1.79,9,1,6.52,1.13,7.31,2.75,0,3-2.88-1-11.1-1-11.1,2.5,3.6,4.11,5.94,3.62,5.54,4.26,6.31,2.2-.81,1.61-3-3.88-7.42-3.88-7.42,3.75,3.33,4.38,3.63,2.45-.13,1.62-2.54c-.56-1.61-1.69-2.57-4.73-5.52s-3.11-4.27-4.09-5.65C58.79,245,57.91,245.13,56.59,244Z" style="fill:#b16668"></path><path d="M49.81,245.85c2.86,1,5.46-.46,5.78-1.18C55.57,246.59,51.87,248,49.81,245.85Z" style="fill:#9a4a4d"></path><path d="M69.09,259.44a1.27,1.27,0,0,1-1.75,0c-.74-.53-2.62-2.31-3.47-3.14s-3.78-3.76-3.78-3.76l2.81,4.37s3.75,3.33,4.38,3.63A1.36,1.36,0,0,0,69.09,259.44Z" style="fill:#9a4a4d"></path></g><g id="freepik--head--inject-15"><path d="M100.33,157.72c1.42-5.3-1.83-11.5-5-14.14-4.58-3.82-10.88-4.76-19.83-2.75-6.8,1.53-13.11,5.39-13.28,12.41C57,155.74,59,164.4,61,168c4.06,7.39,7.88,11.38,8.62,15.38Z" style="fill:#263238"></path><path d="M101.52,178.72c-.93,3.88-3.1,6.79-6.74,7.51a31.58,31.58,0,0,1-5.79.3l.37,4.87c1.64,3.94.4,10.16.4,10.16-8.29-4.46-14.38-3.2-19.35-8.3L69.14,176.8s-2.13,2.57-5.94.4a7.66,7.66,0,0,1-2.94-9.43c1.66-3.83,5.4-2.44,6.59-1.36s2.59,3.16,3.52,2.82a3.35,3.35,0,0,0,2.17-2.35,19.15,19.15,0,0,0,.87-7.3,10.36,10.36,0,0,0,2.78-2.27,8.88,8.88,0,0,0,2.24-5.66c7.81-2.76,15.16-3.25,19.72-.92,2,3.14,3.12,11.83,3.63,16.14A34.16,34.16,0,0,1,101.52,178.72Z" style="fill:#b16668"></path><path d="M83.16,159l-3,2.59a2,2,0,1,1,3-2.59Z" style="fill:#263238"></path><path d="M85.54,174.38l6.62,1.31a3.55,3.55,0,0,1-4.11,2.6A3.17,3.17,0,0,1,85.54,174.38Z" style="fill:#9a4a4d"></path><path d="M98.13,159.35l-3.55-1.87a2,2,0,0,1,2.68-.83A2,2,0,0,1,98.13,159.35Z" style="fill:#263238"></path><path d="M89.36,161.39l1.7,11.34,6.24-2.13A31.39,31.39,0,0,0,89.36,161.39Z" style="fill:#9a4a4d"></path><path d="M89,186.52c-4.07,0-11.08-1.52-13.35-3.61s-3.84-6.53-3.84-6.53.74,5.24,2.53,7.66,5.14,3.75,7.75,4.25a65.66,65.66,0,0,0,7.1.71Z" style="fill:#9a4a4d"></path><path d="M81.39,165A1.69,1.69,0,1,0,83,163.32,1.66,1.66,0,0,0,81.39,165Z" style="fill:#263238"></path><path d="M95,163.21a1.69,1.69,0,1,0,1.61-1.71A1.65,1.65,0,0,0,95,163.21Z" style="fill:#263238"></path><path d="M85.59,176.09a3.41,3.41,0,0,1,1.32-.36,3.12,3.12,0,0,1,3.19,2.34,3.48,3.48,0,0,1-2,.22A3.17,3.17,0,0,1,85.59,176.09Z" style="fill:#ffa8a7"></path></g><path d="M85.29,197.16c-1.48-1-12.2-3.77-15.17-7.71L70,187.86s-.55,0-1.24,1.17-2.81,4.9-2.81,4.9a18.65,18.65,0,0,0,7.19,7.2,24.15,24.15,0,0,0,11.13,3.16,10.65,10.65,0,0,1,.81-4.12c.61-1.19,3,1.1,4.68,1.39C87.51,200.22,86.86,198.24,85.29,197.16Zm10-2.42a41.85,41.85,0,0,0-2.12-5.61l-2.5-2.58-1.66,0,.37,4.88s0,1.62,0,3.2.59,5.36.35,7c.81-.78,1.33-4.12,2.56-3.76S95,201.64,95,201.64A10.76,10.76,0,0,0,95.27,194.74Z" style="fill:#263238"></path></g></g></g><g id="freepik--Likes--inject-15"><g id="freepik--Like--inject-15"><path d="M453.6,315.29s1.64-5.54,1.7-6.37-1.27-4-1.46-4.57,2.54-1.7,4.1.15a9.08,9.08,0,0,1,2.32,5.75l6.81-2.16a2.18,2.18,0,0,1,2.7,1.48,2.38,2.38,0,0,1-.47,2.34,2,2,0,0,1,2,1.48,2.23,2.23,0,0,1-1,2.59,2.73,2.73,0,0,1,1,1.48,2.45,2.45,0,0,1-1.28,2.6,4.36,4.36,0,0,1,.79,1.45,2.47,2.47,0,0,1-1.83,2.93L457.65,328Z" style="fill:#e0e0e0"></path><path d="M447,317l4.72,14.81,4.91-1.56-4.72-14.82Zm5.48,11.76a1.07,1.07,0,0,1,.92-1.21,1.06,1.06,0,0,1,1.21.91,1.08,1.08,0,1,1-2.13.3Z" style="fill:#e0e0e0"></path></g><g id="freepik--like--inject-15"><path d="M450.78,87.77l-6.95-2.43a.62.62,0,0,1-.38-.33.71.71,0,0,1,0-.5l7.32-21a.64.64,0,0,1,.83-.4l7,2.42a.7.7,0,0,1,.37.33.72.72,0,0,1,0,.5l-7.32,21a.64.64,0,0,1-.72.43Zm1-23.21-6.89,19.77,5.72,2,6.89-19.77Zm-9.38,17.55-16-5.56a4.16,4.16,0,0,1-2.9-5.09,6.9,6.9,0,0,1,.83-1.64A4.37,4.37,0,0,1,423,65.65a5.55,5.55,0,0,1,1-1.83,3.93,3.93,0,0,1-.93-4,3.53,3.53,0,0,1,2.41-2.35,4,4,0,0,1-.12-3A3.81,3.81,0,0,1,430.12,52L439,55.1a13.45,13.45,0,0,1,3.61-7.68,5,5,0,0,1,6.1-1c1.06.62,1,1.29.87,1.55s-.25.63-.47,1.16c-.53,1.29-1.78,4.31-1.75,5.06s1.31,5.86,2.16,9.05a.7.7,0,0,1,0,.38l-6.29,18a.66.66,0,0,1-.72.43Zm3.67-27.82c-.05-1,.85-3.21,1.85-5.62l.38-.92a3.13,3.13,0,0,0-1.68-.6,3.52,3.52,0,0,0-3,1.14A12.39,12.39,0,0,0,440.2,56a.66.66,0,0,1-.3.49.63.63,0,0,1-.57.07l-9.64-3.36a2.49,2.49,0,0,0-3.1,1.62,2.82,2.82,0,0,0,.47,2.73.65.65,0,0,1,.08.72.66.66,0,0,1-.64.35,2.16,2.16,0,0,0-2.2,1.6,2.56,2.56,0,0,0,1.05,3,.64.64,0,0,1,.31.56.68.68,0,0,1-.31.56,3.29,3.29,0,0,0-1.15,1.73A2.94,2.94,0,0,0,425.53,69a.65.65,0,0,1,.42.46.66.66,0,0,1-.15.6,5.76,5.76,0,0,0-1.05,1.82,2.9,2.9,0,0,0,2.1,3.43l15.34,5.34,6-17.24C447.82,62,446.1,55.45,446.05,54.29Z" style="fill:#e0e0e0"></path></g><g id="freepik--like--inject-15"><path d="M49.66,333.27,43.72,332a.55.55,0,0,1-.34-.24.51.51,0,0,1-.07-.4l3.93-17.95a.53.53,0,0,1,.64-.41l5.94,1.3a.53.53,0,0,1,.41.64L50.3,332.86a.53.53,0,0,1-.55.42Zm-1.49-19.13L44.48,331l4.89,1.07,3.69-16.89Zm-6,15.32-13.64-3a3.43,3.43,0,0,1-2.87-3.89,6,6,0,0,1,.51-1.42,3.63,3.63,0,0,1-1.54-3.29,4.5,4.5,0,0,1,.67-1.6,3.23,3.23,0,0,1-1.16-3.17,2.91,2.91,0,0,1,1.74-2.17,3.36,3.36,0,0,1-.4-2.49A3.15,3.15,0,0,1,29.18,306l7.59,1.66A11.1,11.1,0,0,1,39,301a4.1,4.1,0,0,1,4.91-1.4c.93.41.91,1,.87,1.19s-.14.54-.27,1a21.91,21.91,0,0,0-.94,4.33c.11.67,1.66,4.67,2.67,7.2a.69.69,0,0,1,0,.32l-3.38,15.42a.53.53,0,0,1-.55.42Zm.27-23.18a17.23,17.23,0,0,1,1-4.79l.22-.8a2.62,2.62,0,0,0-1.43-.32,2.91,2.91,0,0,0-2.38,1.23,10.28,10.28,0,0,0-2,6.69.5.5,0,0,1-.19.43.55.55,0,0,1-.46.12L29,307a2.05,2.05,0,0,0-2.37,1.64,2.3,2.3,0,0,0,.65,2.19.54.54,0,0,1,.13.59.52.52,0,0,1-.49.34,1.8,1.8,0,0,0-1.64,1.54,2.12,2.12,0,0,0,1.16,2.33.5.5,0,0,1,.3.42.52.52,0,0,1-.2.49,2.79,2.79,0,0,0-.77,1.53,2.45,2.45,0,0,0,1.38,2.28.53.53,0,0,1,.39.33.55.55,0,0,1-.06.51,4.53,4.53,0,0,0-.68,1.59,2.4,2.4,0,0,0,2.05,2.61l13.12,2.87,3.22-14.73C44.7,312.43,42.63,307.23,42.48,306.28Z" style="fill:#e0e0e0"></path></g><g id="freepik--like--inject-15"><path d="M85.2,68.28s1.69-9.53,1.64-10.92S84,51,83.57,50.05s3.9-3.3,6.85-.51a15.2,15.2,0,0,1,4.92,9.12l10.9-4.87a3.67,3.67,0,0,1,4.78,2,4.06,4.06,0,0,1-.35,4,3.34,3.34,0,0,1,3.55,2.09A3.75,3.75,0,0,1,113,66.31a4.53,4.53,0,0,1,1.87,2.28c.53,1.18-.11,3.87-1.64,4.55a7.34,7.34,0,0,1,1.57,2.27,4.13,4.13,0,0,1-2.48,5.21l-18,8.06Z" style="fill:#e0e0e0"></path><path d="M82.35,68.85l-7.86,3.51L85.08,96.1,93,92.59Zm5,23.34a1.54,1.54,0,1,1,1.53-1.54A1.53,1.53,0,0,1,87.38,92.19Z" style="fill:#e0e0e0"></path></g></g><g id="freepik--Sparkles--inject-15"><g id="freepik--Shine--inject-15" style="opacity:0.35000000000000003"><path d="M325.53,25.73a53.16,53.16,0,0,1-2-6.46,54.53,54.53,0,0,1-1.32-6.64,55,55,0,0,1,2,6.46A56.51,56.51,0,0,1,325.53,25.73Z" style="fill:#BA68C8"></path><path d="M305,37.23c-1.1-.9-2.14-1.86-3.16-2.82s-2-2-3-3-2-2-2.9-3.08-1.88-2.11-2.76-3.22c1.1.9,2.14,1.86,3.17,2.82s2,2,3,3,1.95,2,2.89,3.08S304.13,36.12,305,37.23Z" style="fill:#BA68C8"></path><path d="M300.59,59.76c-2.18-.45-4.34-1-6.5-1.53s-4.29-1.14-6.44-1.71-4.27-1.22-6.4-1.88-4.24-1.32-6.34-2.07c2.18.45,4.34,1,6.5,1.52s4.29,1.15,6.44,1.72,4.27,1.22,6.4,1.88S298.49,59,300.59,59.76Z" style="fill:#BA68C8"></path><path d="M300.71,79.4c-1.65.58-3.31,1.08-5,1.57s-3.35.94-5,1.38-3.38.84-5.08,1.21-3.41.74-5.13,1c1.65-.58,3.32-1.08,5-1.57s3.35-.94,5-1.38,3.38-.85,5.08-1.21S299,79.68,300.71,79.4Z" style="fill:#BA68C8"></path><path d="M312.62,94.36c-1.3,1.5-2.67,2.93-4,4.36s-2.77,2.82-4.18,4.21-2.84,2.75-4.3,4.09-2.92,2.67-4.44,3.94c1.3-1.49,2.67-2.92,4-4.35s2.77-2.82,4.18-4.21,2.84-2.75,4.3-4.09S311.1,95.64,312.62,94.36Z" style="fill:#BA68C8"></path><path d="M327,108.28c-.27,1.54-.62,3-1,4.56s-.76,3-1.17,4.51-.86,3-1.34,4.47-1,3-1.53,4.4c.27-1.53.62-3,1-4.56s.76-3,1.17-4.51.86-3,1.34-4.46S326.44,109.74,327,108.28Z" style="fill:#BA68C8"></path><path d="M350.37,118.22a21.9,21.9,0,0,1,1.39,3.93,21.08,21.08,0,0,1,.67,4.12,20.21,20.21,0,0,1-1.39-3.93A21.08,21.08,0,0,1,350.37,118.22Z" style="fill:#BA68C8"></path><path d="M366.62,98.63c1.12.93,2.19,1.92,3.25,2.92s2.09,2,3.11,3,2,2.09,3,3.18,1.94,2.17,2.84,3.32c-1.13-.94-2.19-1.92-3.25-2.92s-2.09-2-3.11-3.06-2-2.09-3-3.17S367.52,99.78,366.62,98.63Z" style="fill:#BA68C8"></path><path d="M371.21,78.37c2,.38,3.87.85,5.79,1.32s3.83,1,5.74,1.52,3.81,1.08,5.69,1.68,3.78,1.19,5.64,1.87c-1.95-.38-3.87-.85-5.79-1.32s-3.83-1-5.74-1.52-3.8-1.08-5.69-1.68S373.08,79.05,371.21,78.37Z" style="fill:#BA68C8"></path><path d="M371.13,60.22c1.87-.64,3.77-1.2,5.67-1.75s3.82-1.06,5.73-1.56,3.84-1,5.77-1.39,3.86-.85,5.82-1.2c-1.88.64-3.78,1.2-5.68,1.75s-3.81,1.06-5.73,1.56-3.83,1-5.77,1.39S373.08,59.87,371.13,60.22Z" style="fill:#BA68C8"></path><path d="M365.84,40.76c1.29-1.48,2.64-2.9,4-4.31s2.74-2.79,4.13-4.17,2.81-2.72,4.26-4,2.89-2.64,4.39-3.9c-1.29,1.48-2.64,2.9-4,4.31s-2.75,2.79-4.14,4.16-2.81,2.73-4.25,4S367.35,39.5,365.84,40.76Z" style="fill:#BA68C8"></path><path d="M348.7,26.65c.24-1.41.55-2.8.87-4.18s.7-2.76,1.07-4.13.78-2.73,1.23-4.08.89-2.7,1.42-4c-.23,1.41-.55,2.79-.87,4.18s-.69,2.75-1.07,4.12-.78,2.73-1.23,4.08S349.23,25.32,348.7,26.65Z" style="fill:#BA68C8"></path></g><g id="freepik--shine--inject-15"><path d="M347.37,262.91c0,3.24-.09,6.35-4.76,7.08,4.94-.07,4.57,3,4.81,6.93.13-3.89.47-6.69,4.32-6.87C347.76,269.39,347.86,267.55,347.37,262.91Z" style="fill:#455a64"></path><path d="M298.88,193.79c0,3.24-.08,6.35-4.75,7.07,4.93-.06,4.56,3,4.8,6.94.13-3.89.47-6.69,4.32-6.87C299.27,200.27,299.38,198.43,298.88,193.79Z" style="fill:#455a64"></path><path d="M144,219.07c0,2.52-.07,5-3.72,5.52,3.86-.05,3.57,2.38,3.75,5.42.11-3,.37-5.23,3.38-5.37C144.33,224.13,144.41,222.69,144,219.07Z" style="fill:#455a64"></path><path d="M197.83,159.72c0,2.53-.06,5-3.71,5.53,3.86-.06,3.56,2.37,3.75,5.41.11-3,.37-5.22,3.38-5.36C198.14,164.78,198.22,163.34,197.83,159.72Z" style="fill:#BA68C8"></path><path d="M193.3,276.73c0,3-.08,5.83-4.37,6.5,4.54-.06,4.19,2.79,4.41,6.37.13-3.58.44-6.14,4-6.31C193.66,282.68,193.76,281,193.3,276.73Z" style="fill:#455a64"></path><path d="M312.25,296.88c0,3.6-.09,7.07-5.29,7.88,5.49-.08,5.08,3.39,5.35,7.73.14-4.34.53-7.46,4.81-7.66C312.69,304.1,312.81,302,312.25,296.88Z" style="fill:#BA68C8"></path><path d="M331.44,160.64c0,3.52-.09,6.9-5.16,7.68,5.36-.07,5,3.31,5.21,7.54.15-4.23.52-7.27,4.69-7.47C331.86,167.68,332,165.68,331.44,160.64Z" style="fill:#BA68C8"></path><path d="M152.42,298.19c0,3.89-.1,7.64-5.72,8.51,5.94-.08,5.49,3.66,5.78,8.35.16-4.69,1.2-8.21,5.83-8.43C153.52,305.83,153,303.77,152.42,298.19Z" style="fill:#BA68C8"></path><path d="M312.16,234.48c0,3.51-.7,7-5.78,7.83,5.36-.07,5.57,3.16,5.84,7.4.14-4.24,1.3-7.5,5.48-7.7C313.38,241.3,312.7,239.52,312.16,234.48Z" style="fill:#ebebeb"></path><path d="M186,121c.05,4.51-.12,8.85-6.63,9.86,6.88-.09,6.36,4.24,6.7,9.67.18-5.43.66-9.32,6-9.58C186.58,130,186.73,127.42,186,121Z" style="fill:#ebebeb"></path><path d="M353.7,190.84c0,3.52-.08,6.9-5.16,7.69,5.36-.07,5,3.31,5.22,7.54.14-4.23.51-7.27,4.69-7.47C354.13,197.88,354.25,195.88,353.7,190.84Z" style="fill:#e0e0e0"></path><path d="M342.82,324.65c0,3.52-.09,6.9-5.16,7.69,5.36-.07,5,3.31,5.22,7.54.14-4.23.51-7.27,4.69-7.47C343.25,331.69,343.36,329.69,342.82,324.65Z" style="fill:#e0e0e0"></path><path d="M181,206c0-3.34-.08-6.32-4.9-7.06,5.09.06,4.71-3.38,5-7.4.14,4,.75,7.47,4.72,7.66C181.67,199.84,181.52,201.19,181,206Z" style="fill:#e0e0e0"></path><path d="M178.67,354.1c0-4-.11-7.64-5.94-8.55,6.16.08,5.7-4.09,6-9,.16,4.87.91,9,5.71,9.27C179.47,346.69,179.29,348.31,178.67,354.1Z" style="fill:#e0e0e0"></path></g></g><g id="freepik--exclamation-marks--inject-15"><g id="freepik--exclamation-sign--inject-15"><path d="M426.55,127a1,1,0,0,1,.56-.53,1,1,0,0,1,.76,0l4.29,1.88a1,1,0,0,1,.53.55,1,1,0,0,1,0,.77l-1.51,3.44a1,1,0,0,1-1.32.51l-4.28-1.87a1,1,0,0,1-.53-.56.92.92,0,0,1,0-.76Zm8.11-18.54a.93.93,0,0,1,.55-.53,1,1,0,0,1,.77,0l4.28,1.88a.93.93,0,0,1,.53.55,1,1,0,0,1,0,.77l-6.41,14.66a1,1,0,0,1-.55.53,1,1,0,0,1-.77,0l-4.29-1.88a1,1,0,0,1-.51-1.32Z" style="fill:#BA68C8"></path><g style="opacity:0.5"><path d="M426.55,127a1,1,0,0,1,.56-.53,1,1,0,0,1,.76,0l4.29,1.88a1,1,0,0,1,.53.55,1,1,0,0,1,0,.77l-1.51,3.44a1,1,0,0,1-1.32.51l-4.28-1.87a1,1,0,0,1-.53-.56.92.92,0,0,1,0-.76Zm8.11-18.54a.93.93,0,0,1,.55-.53,1,1,0,0,1,.77,0l4.28,1.88a.93.93,0,0,1,.53.55,1,1,0,0,1,0,.77l-6.41,14.66a1,1,0,0,1-.55.53,1,1,0,0,1-.77,0l-4.29-1.88a1,1,0,0,1-.51-1.32Z" style="fill:#fff"></path></g><path d="M436.2,136.69a1,1,0,0,1,.69-.33.93.93,0,0,1,.72.23l3.54,3.07a1,1,0,0,1,.34.68.94.94,0,0,1-.24.73l-2.46,2.84a1,1,0,0,1-.69.33.9.9,0,0,1-.72-.23l-3.54-3.07a1,1,0,0,1-.34-.68,1,1,0,0,1,.24-.73Zm13.26-15.28a.92.92,0,0,1,.68-.34,1,1,0,0,1,.73.23l3.54,3.07a1,1,0,0,1,.33.69.89.89,0,0,1-.23.72L444,137.88a1,1,0,0,1-1.41.1l-3.54-3.07a1,1,0,0,1-.34-.69.93.93,0,0,1,.24-.72Z" style="fill:#BA68C8"></path><g style="opacity:0.2"><path d="M436.2,136.69a1,1,0,0,1,.69-.33.93.93,0,0,1,.72.23l3.54,3.07a1,1,0,0,1,.34.68.94.94,0,0,1-.24.73l-2.46,2.84a1,1,0,0,1-.69.33.9.9,0,0,1-.72-.23l-3.54-3.07a1,1,0,0,1-.34-.68,1,1,0,0,1,.24-.73Zm13.26-15.28a.92.92,0,0,1,.68-.34,1,1,0,0,1,.73.23l3.54,3.07a1,1,0,0,1,.33.69.89.89,0,0,1-.23.72L444,137.88a1,1,0,0,1-1.41.1l-3.54-3.07a1,1,0,0,1-.34-.69.93.93,0,0,1,.24-.72Z" style="fill:#fff"></path></g></g><g id="freepik--exclamation-sign--inject-15"><path d="M215.72,86.09a1,1,0,0,1,.4-1.36l4.13-2.22a1,1,0,0,1,.76-.07,1,1,0,0,1,.59.48l1.78,3.3a1,1,0,0,1,.07.77,1,1,0,0,1-.48.59l-4.12,2.22a1,1,0,0,1-.76.07,1,1,0,0,1-.6-.48Zm-9.59-17.83a1,1,0,0,1-.07-.76.92.92,0,0,1,.48-.59l4.12-2.22a1,1,0,0,1,.76-.07,1,1,0,0,1,.6.48l7.58,14.09a1,1,0,0,1-.41,1.36l-4.12,2.22a1,1,0,0,1-.76.07,1,1,0,0,1-.6-.48Z" style="fill:#BA68C8"></path><g style="opacity:0.5"><path d="M215.72,86.09a1,1,0,0,1,.4-1.36l4.13-2.22a1,1,0,0,1,.76-.07,1,1,0,0,1,.59.48l1.78,3.3a1,1,0,0,1,.07.77,1,1,0,0,1-.48.59l-4.12,2.22a1,1,0,0,1-.76.07,1,1,0,0,1-.6-.48Zm-9.59-17.83a1,1,0,0,1-.07-.76.92.92,0,0,1,.48-.59l4.12-2.22a1,1,0,0,1,.76-.07,1,1,0,0,1,.6.48l7.58,14.09a1,1,0,0,1-.41,1.36l-4.12,2.22a1,1,0,0,1-.76.07,1,1,0,0,1-.6-.48Z" style="fill:#fff"></path></g><path d="M229.94,84.27a.94.94,0,0,1,.19-.74,1,1,0,0,1,.66-.4l4.63-.67a1,1,0,0,1,.74.2,1,1,0,0,1,.39.65l.54,3.71a.94.94,0,0,1-.19.74,1,1,0,0,1-.66.4l-4.63.67a1,1,0,0,1-.74-.2.93.93,0,0,1-.4-.65Zm-2.9-20a1,1,0,0,1,.2-.74.93.93,0,0,1,.65-.4l4.63-.67a1,1,0,0,1,.74.2.93.93,0,0,1,.4.65L236,79.12a1,1,0,0,1-.2.74.93.93,0,0,1-.65.4l-4.63.67a1,1,0,0,1-.74-.2.93.93,0,0,1-.4-.65Z" style="fill:#BA68C8"></path><g style="opacity:0.2"><path d="M229.94,84.27a.94.94,0,0,1,.19-.74,1,1,0,0,1,.66-.4l4.63-.67a1,1,0,0,1,.74.2,1,1,0,0,1,.39.65l.54,3.71a.94.94,0,0,1-.19.74,1,1,0,0,1-.66.4l-4.63.67a1,1,0,0,1-.74-.2.93.93,0,0,1-.4-.65Zm-2.9-20a1,1,0,0,1,.2-.74.93.93,0,0,1,.65-.4l4.63-.67a1,1,0,0,1,.74.2.93.93,0,0,1,.4.65L236,79.12a1,1,0,0,1-.2.74.93.93,0,0,1-.65.4l-4.63.67a1,1,0,0,1-.74-.2.93.93,0,0,1-.4-.65Z" style="fill:#fff"></path></g></g><g id="freepik--exclamation-sign--inject-15"><path d="M56.94,130.24a1,1,0,0,1,.19.78,1,1,0,0,1-.41.69l-4,2.91a1,1,0,0,1-.78.18,1,1,0,0,1-.69-.41L49,131.22a1,1,0,0,1-.19-.78,1,1,0,0,1,.42-.69l4-2.91a1.08,1.08,0,0,1,1.47.23Zm-5-6.75a1,1,0,0,1,.19.78,1,1,0,0,1-.41.69l-4,2.91a1,1,0,0,1-.78.18,1,1,0,0,1-.69-.41l-9.95-13.53a1,1,0,0,1-.18-.78,1,1,0,0,1,.41-.69l4-2.91A1.06,1.06,0,0,1,42,110Z" style="fill:#BA68C8"></path><g style="opacity:0.6000000000000001"><path d="M56.94,130.24a1,1,0,0,1,.19.78,1,1,0,0,1-.41.69l-4,2.91a1,1,0,0,1-.78.18,1,1,0,0,1-.69-.41L49,131.22a1,1,0,0,1-.19-.78,1,1,0,0,1,.42-.69l4-2.91a1.08,1.08,0,0,1,1.47.23Zm-5-6.75a1,1,0,0,1,.19.78,1,1,0,0,1-.41.69l-4,2.91a1,1,0,0,1-.78.18,1,1,0,0,1-.69-.41l-9.95-13.53a1,1,0,0,1-.18-.78,1,1,0,0,1,.41-.69l4-2.91A1.06,1.06,0,0,1,42,110Z" style="fill:#fff"></path></g><path d="M51.44,142.72a1,1,0,0,1,.45.67,1,1,0,0,1-.16.79L49,148.26a1,1,0,0,1-.67.45,1,1,0,0,1-.79-.15l-3.27-2.19a1,1,0,0,1-.45-.67,1.05,1.05,0,0,1,.16-.79l2.72-4.08a1,1,0,0,1,.67-.45,1,1,0,0,1,.79.16Zm-7-4.65a1,1,0,0,1,.44.67,1,1,0,0,1-.15.79L42,143.62a1.07,1.07,0,0,1-1.46.29l-14-9.31a1,1,0,0,1-.44-.68,1,1,0,0,1,.15-.78L29,129.05a1,1,0,0,1,.67-.44,1,1,0,0,1,.79.15Z" style="fill:#BA68C8"></path><g style="opacity:0.2"><path d="M51.44,142.72a1,1,0,0,1,.45.67,1,1,0,0,1-.16.79L49,148.26a1,1,0,0,1-.67.45,1,1,0,0,1-.79-.15l-3.27-2.19a1,1,0,0,1-.45-.67,1.05,1.05,0,0,1,.16-.79l2.72-4.08a1,1,0,0,1,.67-.45,1,1,0,0,1,.79.16Zm-7-4.65a1,1,0,0,1,.44.67,1,1,0,0,1-.15.79L42,143.62a1.07,1.07,0,0,1-1.46.29l-14-9.31a1,1,0,0,1-.44-.68,1,1,0,0,1,.15-.78L29,129.05a1,1,0,0,1,.67-.44,1,1,0,0,1,.79.15Z" style="fill:#fff"></path></g></g></g></svg>